SplineFontDB: 3.0
FontName: Uncursive
FullName: Uncursive
FamilyName: Uncursive
Weight: Regular
Copyright: Sirish K Nandyala\nCopyright (c) 2018, ,,,
UComments: "2018-11-17: Created with FontForge (http://fontforge.org)"
Version: 001.000
ItalicAngle: 0
UnderlinePosition: -100
UnderlineWidth: 50
Ascent: 800
Descent: 200
InvalidEm: 0
LayerCount: 2
Layer: 0 0 "Back" 1
Layer: 1 0 "Fore" 0
XUID: [1021 10 -1544317668 1492209]
StyleMap: 0x0000
FSType: 0
OS2Version: 0
OS2_WeightWidthSlopeOnly: 0
OS2_UseTypoMetrics: 1
CreationTime: 1542443581
ModificationTime: 1542444733
OS2TypoAscent: 0
OS2TypoAOffset: 1
OS2TypoDescent: 0
OS2TypoDOffset: 1
OS2TypoLinegap: 90
OS2WinAscent: 0
OS2WinAOffset: 1
OS2WinDescent: 0
OS2WinDOffset: 1
HheadAscent: 0
HheadAOffset: 1
HheadDescent: 0
HheadDOffset: 1
OS2Vendor: 'PfEd'
MarkAttachClasses: 1
DEI: 91125
Encoding: ISO8859-1
UnicodeInterp: none
NameList: AGL For New Fonts
DisplaySize: -48
AntiAlias: 1
FitToEm: 0
WinInfo: 0 16 4
BeginPrivate: 0
EndPrivate
BeginChars: 256 95

StartChar: exclam
Encoding: 33 33 0
Width: 256
VWidth: 0
Flags: W
VStem: 83.5127 32.0576<770.037 799.928> 108.173 39.834<298.812 676.628> 119.937 19.8506<216.612 224.526>
LayerCount: 2
Fore
SplineSet
156.229492188 43.984375 m 1x80
 156.229492188 43.984375 156.197265625 43.3154296875 146.194335938 30.828125 c 1
 152.681640625 32.5654296875 l 1
 156.227539062 19.33203125 l 1
 123.34765625 2.892578125 l 1
 103.497070312 -2.42578125 l 1
 99.951171875 10.8076171875 l 1
 104.08203125 15.7978515625 105.791015625 17.869140625 110.67578125 23.818359375 c 1
 106.7265625 22.759765625 l 2
 98.658203125 20.6259765625 91.3330078125 21.4677734375 88.4072265625 29.513671875 c 0
 88.1904296875 30.322265625 88.1455078125 30.4599609375 87.8994140625 31.1396484375 c 0
 87.8994140625 31.1657023224 87.8910077588 31.1926318639 87.8793124181 31.2205110358 c 0
 87.8793124181 31.2312070866 87.8716315165 31.2420429425 87.8716315165 31.2530248331 c 0
 87.8590045202 31.3067374662 87.845839067 31.3633319104 87.830078125 31.421875 c 2
 84.283203125 44.654296875 l 2
 83.783203125 46.685546875 83.5126953125 49.0869140625 83.5126953125 51.9072265625 c 2
 97.2314453125 55.5830078125 l 1
 95.6015625 61.6611328125 l 2
 93.39453125 69.6650390625 93.28515625 80.212890625 99.951171875 93.005859375 c 1
 119.801757812 98.3251953125 l 1
 123.34765625 85.0927734375 l 1
 118.448242188 75.6923828125 117.334960938 66.6513671875 117.765625 60.7119140625 c 0
 120.40625 54.9521484375 124.109375 50.708984375 124.3984375 49.5732421875 c 2
 125.196289062 46.5986328125 l 1
 129.958007812 49.671875 132.772460938 51.8603515625 132.833007812 51.9072265625 c 2
 152.681640625 57.2255859375 l 2
 152.918945312 56.34375 156.229492188 43.984375 156.229492188 43.984375 c 1x80
115.12890625 767.352539062 m 1
 108.830078125 765.665039062 l 1
 110.95703125 750.477539062 114.624023438 735.479492188 118.369140625 721.263671875 c 0
 118.490234375 720.811523438 119.103515625 718.534179688 119.436523438 717.293945312 c 2
 122.982421875 704.059570312 l 1
 123.223632812 703.155273438 l 1
 123.223632812 703.155273438 123.223632812 703.155273438 123.4609375 702.2734375 c 0
 126.405273438 691.245117188 129.263671875 680.106445312 131.568359375 668.712890625 c 2
 148.006835938 298.8125 l 1x40
 139.787109375 216.612304688 l 1
 119.936523438 211.29296875 l 1x20
 116.391601562 224.526367188 l 1
 124.61328125 306.727539062 l 1
 108.172851562 676.627929688 l 2x40
 106.137695312 686.682617188 103.56640625 696.95703125 101.057617188 706.450195312 c 0
 100.985351562 706.719726562 100.336914062 709.129882812 100.016601562 710.319335938 c 2
 96.4716796875 723.553710938 l 2
 89.720703125 748.731445312 83.5126953125 773.619140625 83.5126953125 799.927734375 c 1
 84.7265625 800.297851562 l 1
 104.575195312 805.616210938 l 2
 109.211914062 806.880859375 111.268554688 805.565429688 112.0234375 802.947265625 c 2
 115.5703125 789.713867188 l 2
 117.010742188 784.71875 113.924804688 776.162109375 114.490234375 769.734375 c 2
 115.12890625 767.352539062 l 1
87.8716315165 31.2530248331 m 0
 87.8597349992 31.2810067915 87.8370894037 31.3099239791 87.826171875 31.33984375 c 2
 87.8994140625 31.1396484375 l 2
 87.8925417879 31.1656435633 87.8793124181 31.1926443186 87.8793124181 31.2205110358 c 0
 87.8793124181 31.2312243338 87.8716315165 31.2420655946 87.8716315165 31.2530248331 c 0
EndSplineSet
Validated: 37
EndChar

StartChar: quotedbl
Encoding: 34 34 1
Width: 316
VWidth: 0
Flags: W
HStem: 727.229 21G<174.462 191.539> 855.229 9.65918<175.174 190.45>
VStem: 86.4609 17.0771<770.233 864.889> 206.462 17.0771<824.889 863.425>
LayerCount: 2
Fore
SplineSet
174.461914062 864.888671875 m 1
 188.338867188 868.606445312 l 2
 195.026367188 871.51953125 199.520507812 875.315429688 198.461914062 880.888671875 c 1
 212.950195312 884.770507812 l 2
 217.233398438 884.770507812 219.51171875 881.443359375 220.659179688 876.916992188 c 2
 223.248046875 867.2578125 l 2
 225.422851562 858.682617188 223.538085938 845.8046875 223.5390625 843.111328125 c 2
 223.5390625 819.111328125 l 1
 191.5390625 731.111328125 l 1
 177.049804688 727.229492188 l 1
 174.461914062 736.888671875 l 1
 206.461914062 824.888671875 l 1
 206.461914062 848.888671875 l 2
 206.461914062 850.7421875 207.30078125 856.889648438 207.2109375 863.649414062 c 1
 206.322265625 863.209960938 201.778320312 861.415039062 199.221679688 860.711914062 c 2
 184.732421875 856.830078125 l 2
 181.977539062 856.073242188 179.290039062 855.546875 177.049804688 855.229492188 c 2
 174.461914062 864.888671875 l 1
100.950195312 868.770507812 m 1
 103.538085938 859.111328125 l 1
 103.538085938 827.111328125 l 2
 103.538085938 793.0859375 94.4150390625 761.327148438 86.794921875 731.12109375 c 1
 92.9501953125 732.770507812 l 1
 95.5380859375 723.111328125 l 1
 79.5390625 699.111328125 l 1
 65.0498046875 695.229492188 l 1
 62.4619140625 704.888671875 l 1
 70.560546875 747.74609375 86.4609375 787.200195312 86.4609375 832.888671875 c 2
 86.4609375 864.888671875 l 1
 100.950195312 868.770507812 l 1
EndSplineSet
Validated: 1
EndChar

StartChar: numbersign
Encoding: 35 35 2
Width: 607
VWidth: 0
Flags: W
HStem: 200.229 9.65918<-40.8256 -24.4609> 431.229 21G<13.4619 30.5391> 574.229 13.541<547.617 579.827> 630.598 9.95605<239.676 249.614>
VStem: 148.05 14.4883<182.111 187.888> 367.869 14.3506<203.048 328.066>
LayerCount: 2
Fore
SplineSet
404.642386667 536.220635873 m 1
 205.434139521 482.38040868 l 1
 176.587884467 280.458838771 l 1
 332.461914062 330.888671875 l 1
 346.950195312 334.770507812 l 1
 368.300495284 339.345678469 l 1
 376.099417569 402.414170743 389.83954953 475.715821782 404.642386667 536.220635873 c 1
247.950195312 642.770507812 m 1
 250.5390625 633.111328125 l 2
 248.048828125 631.770507812 246.098632812 630.970703125 244.577148438 630.59765625 c 2
 230.087890625 626.71484375 l 2
 227.879882812 626.173828125 226.5078125 626.791015625 226.114257812 627.139648438 c 2
 206.97846492 493.190567871 l 1
 407.417437005 547.363393012 l 1
 419.45988822 594.853286774 431.997104656 633.068003343 442.461914062 649.888671875 c 1
 456.951171875 653.770507812 l 1
 459.5390625 644.111328125 l 1
 449.890739636 628.603400633 438.530300447 595.00752484 427.426493496 552.755292529 c 1
 434.950195312 554.771484375 l 1
 577.951171875 587.770507812 l 1
 580.5390625 578.111328125 l 1
 566.049804688 574.229492188 l 1
 424.544924697 541.574295542 l 1
 409.50303099 482.081387476 395.253824613 408.049113923 386.770784829 343.303689684 c 1
 500.951171875 367.771484375 l 1
 503.5390625 358.111328125 l 1
 489.049804688 354.229492188 l 1
 385.337822064 332.005199883 l 1
 378.490448151 276.118128011 376.324797334 228.488654309 382.219726562 205.303710938 c 0
 382.387695312 204.674804688 382.366210938 204.755859375 382.5390625 204.111328125 c 2
 368.048828125 200.229492188 l 2
 367.989257812 200.448242188 367.928710938 200.669921875 367.869140625 200.893554688 c 2
 365.280273438 210.552734375 l 2
 359.479532362 232.32716682 361.008754353 276.078874987 366.957052418 328.066411066 c 1
 342.420898438 322.80859375 l 1
 174.89502532 268.608954758 l 1
 162.538085938 182.111328125 l 1
 148.049804688 178.228515625 l 1
 145.4609375 187.887695312 l 1
 156.125165229 262.536342678 l 1
 -24.4609375 204.111328125 l 1
 -38.9501953125 200.229492188 l 1
 -41.5380859375 209.888671875 l 1
 157.818028953 274.386238457 l 1
 186.812879872 477.347620809 l 1
 30.5390625 435.111328125 l 1
 16.0498046875 431.229492188 l 1
 13.4619140625 440.888671875 l 1
 188.357208453 488.157783777 l 1
 211.461914062 649.888671875 l 2
 213.3984375 650.931640625 214.340820312 651.385742188 216.389648438 652.109375 c 0
 216.395507812 652.111328125 216.986328125 652.295898438 217.423828125 652.403320312 c 2
 231.913085938 656.28515625 l 2
 234.95703125 657.03125 236.291992188 656.067382812 236.821289062 654.297851562 c 2
 239.409179688 644.638671875 l 2
 239.776367188 643.408203125 239.770507812 642.862304688 239.67578125 640.553710938 c 2
 247.950195312 642.770507812 l 1
EndSplineSet
Validated: 33
EndChar

StartChar: dollar
Encoding: 36 36 3
Width: 472
VWidth: 0
Flags: W
HStem: 7.22949 13.541<182.544 233.599> 788.229 13.542<242.745 285.722 305.887 314.038>
VStem: 126.462 17.0771<645.222 694.153> 131.226 13.1523<-89.8887 -84.1113 629.396 636.689 636.689 644.281> 346.462 17.0771<225.216 337.076> 357.461 17.0771<957.111 1015.53> 390.954 16.8916<603.83 721.256>
LayerCount: 2
Fore
SplineSet
418.5390625 594.112304688 m 1xe6
 404.049804688 590.229492188 l 2
 397.466796875 591.837890625 393.9453125 596.508789062 392.254882812 603.009765625 c 2
 389.666992188 612.668945312 l 2
 384.725585938 631.674804688 395.17578125 666.946289062 390.954101562 686.047851562 c 2
 390.78515625 686.680664062 l 2
 390.612304688 687.325195312 390.633789062 687.244140625 390.4609375 687.888671875 c 0
 390.4609375 696.510742188 389.485351562 704.918945312 387.899414062 712.411132812 c 0
 375.4609375 751.241210938 342.008789062 776.131835938 303.303710938 784.798828125 c 1
 255.196289062 499.850585938 l 1
 299.205078125 453.291015625 337.211914062 404.244140625 353.065429688 345.046875 c 2
 355.654296875 335.387695312 l 2
 360.733398438 316.421875 363.5390625 296.413085938 363.5390625 275.111328125 c 0
 363.5390625 215.427734375 308.000976562 32.474609375 233.516601562 12.826171875 c 2
 219.028320312 8.9443359375 l 2
 214.76171875 7.8193359375 210.432617188 7.2294921875 206.048828125 7.2294921875 c 0
 193.619140625 7.2294921875 181.920898438 9.578125 170.8203125 13.7109375 c 1
 150.5390625 -89.888671875 l 1
 136.049804688 -93.7705078125 l 1
 133.461914062 -84.111328125 l 1
 154.125 21.4384765625 l 1
 101.420898438 50.595703125 61.9921875 117.213867188 19.0498046875 150.229492188 c 1
 16.4619140625 159.888671875 l 1
 38.4609375 236.887695312 l 1
 52.9501953125 240.770507812 l 1
 55.5380859375 231.111328125 l 1
 35.306640625 160.299804688 l 1
 73.7578125 128.518554688 110.684570312 70.166015625 157.755859375 39.9833984375 c 1
 170.461914062 104.888671875 l 1
 236.119140625 493.78515625 l 1
 226.28515625 504.020507812 216.203125 514.145507812 206.049804688 524.229492188 c 0
 174.752929688 555.3125 143.256835938 592.515625 131.3984375 635.387695312 c 0
 131.225585938 636.032226562 131.403320312 635.389648438 131.225585938 636.032226562 c 0xda
 131.053710938 636.666015625 131.044921875 636.689453125 131.044921875 636.689453125 c 1
 128.45703125 646.348632812 l 2
 127.704101562 649.170898438 127.037109375 652.017578125 126.461914062 654.888671875 c 0
 126.461914062 719.655273438 174.408203125 776.344726562 234.591796875 793.10546875 c 2
 234.591796875 793.10546875 235.162109375 793.26171875 235.620117188 793.383789062 c 2
 250.109375 797.266601562 l 2
 261.092773438 800.203125 272.450195312 801.771484375 283.951171875 801.771484375 c 0
 285.337890625 801.771484375 286.723632812 801.751953125 288.106445312 801.711914062 c 2
 313.4609375 951.888671875 l 2
 316.583007812 960.473632812 346.4609375 1039.88867188 346.4609375 1039.88867188 c 1
 360.950195312 1043.77050781 l 2
 363.541992188 1043.77050781 366.649414062 1036.96582031 368.899414062 1029.0390625 c 0
 369.071289062 1028.39550781 369.116210938 1028.23828125 369.297851562 1027.59667969 c 2
 369.336914062 1027.44042969 l 1
 371.92578125 1017.78125 l 2
 373.487304688 1011.87695312 374.538085938 1005.57324219 374.538085938 1001.11132812 c 2
 374.538085938 957.111328125 l 1
 360.049804688 953.229492188 l 1
 357.4609375 962.888671875 l 1
 357.4609375 1006.88867188 l 2
 357.4609375 1009.11425781 356.924804688 1013.62207031 356.584960938 1015.62109375 c 1
 347.14453125 990.5078125 332.787109375 952.296875 330.538085938 946.111328125 c 2
 305.88671875 800.09765625 l 1
 350.036132812 793.293945312 389.180664062 765.92578125 401.181640625 721.255859375 c 2
 403.770507812 711.596679688 l 2
 406.278320312 702.26171875 407.465820312 694.100585938 407.540039062 682.154296875 c 2
 407.845703125 681.014648438 l 2
 412.470703125 663.192382812 403.48828125 632.581054688 405.8125 611.984375 c 0
 407.541015625 608.494140625 410.973632812 604.987304688 415.950195312 603.771484375 c 1
 418.5390625 594.112304688 l 1xe6
285.721679688 787.583984375 m 1
 281.194335938 788.012695312 276.62890625 788.229492188 272.049804688 788.229492188 c 0
 263.080078125 788.229492188 253.596679688 787.130859375 245.411132812 785.442382812 c 0
 188.33203125 766.666015625 143.538085938 711.643554688 143.5390625 649.111328125 c 0xe2
 143.775390625 647.93359375 144.377929688 645.219726562 144.377929688 645.219726562 c 2
 157.130859375 603.59765625 187.525390625 567.98828125 217.950195312 537.770507812 c 0
 225.306640625 530.463867188 232.624023438 523.147460938 239.834960938 515.791015625 c 1
 285.721679688 787.583984375 l 1
174.181640625 30.8798828125 m 1
 187.8203125 24.521484375 202.328125 20.7705078125 217.950195312 20.7705078125 c 0
 219.935546875 20.7705078125 222.006835938 20.900390625 223.901367188 21.1328125 c 0
 294.344726562 50.9873046875 346.461914062 222.68359375 346.461914062 280.888671875 c 0xca
 346.461914062 300.497070312 344.243164062 318.159179688 339.810546875 336.35546875 c 0
 324.36328125 389.256835938 290.790039062 434.649414062 251.424804688 477.51171875 c 1
 187.5390625 99.111328125 l 1
 174.181640625 30.8798828125 l 1
EndSplineSet
Validated: 33
EndChar

StartChar: percent
Encoding: 37 37 4
Width: 709
VWidth: 0
Flags: W
HStem: 47.0742 16.25<563.239 629.22> 244.705 16.6191<576.881 588.892 625.528 629.94> 588.274 16.25<21.503 89.1775> 746.676 16.249<99.626 249.889>
VStem: -21.0459 20.4932<623.254 682.371> 137.354 20.4922<639.904 688.899> 506.953 20.4922<95.4789 189.81> 704.953 20.4922<146.87 191.791>
LayerCount: 2
Fore
SplineSet
625.528320312 247.71875 m 1
 654.701171875 245.322265625 713.322265625 232.364257812 721.40625 202.4140625 c 2
 724.51171875 190.823242188 l 2
 725.123046875 188.55859375 725.4453125 186.1953125 725.4453125 183.733398438 c 0
 725.447265625 133.408203125 681.625976562 69.1240234375 628.370117188 54.6953125 c 2
 610.982421875 50.037109375 l 2
 603.8828125 48.1123046875 596.614257812 47.07421875 589.259765625 47.07421875 c 0
 548.741210938 47.0751953125 522.98046875 64.640625 513.81640625 96.826171875 c 0
 513.609375 97.5986328125 513.828125 96.830078125 513.609375 97.5986328125 c 0
 513.42578125 98.271484375 513.390625 98.3828125 513.390625 98.3828125 c 1
 510.283203125 109.973632812 l 2
 508.073242188 118.33203125 506.953125 127.646484375 506.953125 137.866210938 c 0
 506.953125 172.857421875 517.111328125 208.626953125 536.249023438 231.64453125 c 0
 545.483398438 242.749023438 556.806640625 250.885742188 570.088867188 254.53515625 c 2
 587.4765625 259.193359375 l 2
 592.547851562 260.5859375 597.904296875 261.32421875 603.540039062 261.32421875 c 2
 629.940429688 261.326171875 l 1
 633.046875 249.734375 l 1
 625.528320312 247.71875 l 1
588.891601562 245.075195312 m 2
 586.943359375 245.05078125 582.432617188 244.705078125 582.428710938 244.705078125 c 0
 580.044921875 243.642578125 578.608398438 242.896484375 576.678710938 241.803710938 c 2
 588.891601562 245.075195312 l 2
541.671875 200.262695312 m 1
 532.307617188 179.770507812 527.4453125 155.181640625 527.4453125 130.93359375 c 0
 527.4453125 123.1953125 528.466796875 113.81640625 529.474609375 108.708007812 c 0
 539.819335938 79.099609375 564.9296875 63.32421875 603.540039062 63.32421875 c 0
 607.698242188 63.32421875 613.383789062 63.8896484375 616.331054688 64.357421875 c 0
 666.333984375 83.416015625 704.954101562 143.145507812 704.953125 190.666015625 c 0
 704.953125 191.354492188 704.931640625 191.791015625 704.931640625 191.791015625 c 1
 689.513671875 221.233398438 624.703125 231.875 602.459960938 231.874023438 c 0
 596.379882812 231.874023438 589.369140625 231.4453125 587.038085938 231.217773438 c 0
 582.513671875 228.815429688 578.479492188 224.556640625 572.584960938 220.265625 c 0
 569.740234375 218.193359375 562.626953125 214.084960938 559.7421875 212.723632812 c 2
 577.140625 195.32421875 l 1
 580.24609375 183.733398438 l 1
 562.859375 179.075195312 l 1
 541.671875 200.262695312 l 1
197.447265625 777.733398438 m 1
 180.059570312 773.075195312 l 1
 160.243164062 787.149414062 141.40625 803.5859375 114.059570312 799.475585938 c 0
 104.6796875 799.475585938 80.421875 776.711914062 69.0185546875 765.3984375 c 1
 75.1689453125 764.331054688 82.6044921875 763.477539062 89.8837890625 762.948242188 c 0
 125.829101562 760.337890625 173.650390625 762.924804688 181.140625 762.924804688 c 0
 221.111328125 763.915039062 264.251953125 769.577148438 300.948242188 778.741210938 c 0
 346.55859375 791.90625 388.587890625 810.78515625 427.75390625 837.466796875 c 0
 453.813476562 855.217773438 473.458984375 864.478515625 488.263671875 868.50390625 c 2
 505.650390625 873.163085938 l 2
 506.392578125 873.364257812 507.296875 873.595703125 507.296875 873.595703125 c 2
 542.30859375 882.173828125 549.0234375 861.790039062 550.431640625 856.528320312 c 2
 553.5390625 844.9375 l 2
 553.69140625 844.3671875 553.622070312 844.62890625 553.840820312 843.716796875 c 2
 329.4453125 249.733398438 l 1
 197.447265625 -53.8662109375 l 1
 180.059570312 -58.5244140625 l 1
 176.954101562 -46.93359375 l 1
 308.953125 256.666015625 l 1
 532.469726562 848.322265625 l 1
 528.33203125 854.336914062 518.8359375 861.778320312 500.02734375 858.780273438 c 0
 487.483398438 854.115234375 469.6015625 845.081054688 448.247070312 830.533203125 c 0
 406.7421875 802.260742188 360.880859375 782.33984375 313.234375 769.525390625 c 2
 295.846679688 764.8671875 l 2
 253.65625 753.520507812 210.064453125 747.745117188 166.859375 746.67578125 c 0
 160.981445312 746.67578125 130.091796875 745.084960938 99.6259765625 745.6640625 c 1
 122.73828125 728.895507812 146.45703125 706.70703125 152.98046875 683.060546875 c 2
 156.086914062 671.46875 l 2
 157.228515625 667.331054688 157.845703125 663.145507812 157.845703125 658.93359375 c 0
 157.846679688 631.124023438 122.84765625 605.342773438 89.20703125 596.326171875 c 2
 71.8203125 591.666992188 l 2
 63.6455078125 589.4765625 55.5517578125 588.274414062 48.0595703125 588.274414062 c 0
 17.1328125 588.275390625 -7.947265625 597.484375 -15.560546875 623.203125 c 0
 -15.767578125 623.9765625 -15.79296875 624.064453125 -16.0205078125 624.83203125 c 2
 -16.00390625 624.798828125 l 1
 -19.111328125 636.390625 l 2
 -20.376953125 641.23828125 -21.0458984375 646.6484375 -21.0458984375 652.666015625 c 0
 -21.0458984375 681.12109375 4.8115234375 724.154296875 35.1396484375 758.189453125 c 1
 31.9453125 770.107421875 l 2
 31.818359375 770.546875 31.75390625 770.999023438 31.75390625 771.466796875 c 2
 49.1416015625 776.125 l 1
 49.1416015625 776.125 49.6533203125 775.890625 51.306640625 775.0546875 c 1
 69.388671875 792.475585938 87.2568359375 805.372070312 102.200195312 809.720703125 c 2
 102.200195312 809.720703125 102.701171875 809.860351562 103.09765625 809.963867188 c 2
 120.485351562 814.623046875 l 2
 123.265625 815.345703125 125.89453125 815.724609375 128.33984375 815.724609375 c 0
 155.688476562 819.836914062 174.525390625 803.3984375 194.33984375 789.32421875 c 1
 197.447265625 777.733398438 l 1
54.115234375 749.543945312 m 1
 24.513671875 715.658203125 -0.552734375 673.5 -0.552734375 645.733398438 c 0
 -0.552734375 642.142578125 -0.083984375 637.141601562 0.2109375 635.161132812 c 0
 9.515625 612.421875 33.25 604.524414062 62.33984375 604.524414062 c 0
 66.9208984375 604.524414062 74.3662109375 605.400390625 77.478515625 605.971679688 c 0
 109.16796875 617.318359375 137.354492188 640.611328125 137.353515625 665.866210938 c 0
 137.353515625 667.81640625 136.981445312 671.600585938 136.8828125 672.291992188 c 0
 123.513671875 705.578125 82.5302734375 732.931640625 56.3017578125 748.2734375 c 0
 55.58984375 748.69140625 54.8310546875 749.131835938 54.115234375 749.543945312 c 1
EndSplineSet
Validated: 33
EndChar

StartChar: ampersand
Encoding: 38 38 5
Width: 504
VWidth: 0
Flags: W
HStem: -68 12<124.293 178.353> 308 12<308.814 363.578> 803 12<247.118 303.297>
VStem: 51 15<27.6674 170.431 499.179 611.276> 219 15<178.141 236.64> 318 12<676.6 788> 398 14<53.1727 61> 447 15<182.547 231 240 244.453>
LayerCount: 2
Fore
SplineSet
128 301 m 1
 92 241 66 177 66 104 c 0
 66 79 68 44 75 15 c 0
 87 -25 109 -56 153 -56 c 0
 160 -56 168 -55 176 -53 c 0
 226 -37 289 4 342 53 c 1
 303 69 265 102 230 142 c 0
 191 187 156 243 128 301 c 1
130 333 m 1
 159 378 191 421 219 465 c 0
 274 549 320 640 318 742 c 0
 318 754 318 768 316 780 c 0
 311 793 302 803 281 803 c 0
 268 803 256 802 243 799 c 0
 146 769 66 658 66 559 c 0
 66 533 72 501 81 465 c 0
 92 424 109 378 130 333 c 1
355 64 m 1
 408 115 447 174 447 218 c 0
 447 223 446 228 445 232 c 0
 430 278 372 308 330 308 c 0
 324 308 318 307 313 306 c 0
 268 291 234 245 234 203 c 0
 234 199 234 194 234 193 c 0
 235 192 238 188 241 175 c 2
 242 172 l 1
 262 152 l 1
 264 143 l 1
 253 140 l 1
 285 105 320 78 355 64 c 1
120 318 m 0
 98 366 81 414 69 457 c 2
 66 466 l 1
 66 467 l 1
 56 505 51 537 51 564 c 0
 51 665 133 779 234 806 c 2
 247 809 l 2
 261 813 277 815 292 815 c 0
 314 815 324 804 328 788 c 2
 330 779 l 1
 330 778 l 2
 333 765 333 751 333 737 c 0
 335 635 289 544 234 460 c 0
 204 414 170 369 140 321 c 0
 139 320 139 317 138 316 c 0
 162 267 190 219 221 178 c 1
 220 181 220 184 219 187 c 2
 219 187 219 191 219 208 c 0
 219 251 256 300 304 313 c 2
 317 317 l 2
 325 319 333 320 341 320 c 0
 384 320 444 288 457 240 c 2
 460 231 l 2
 462 225 462 218 462 212 c 0
 462 168 423 110 370 59 c 1
 379 56 388 54 398 53 c 1
 398 59 394 70 399 71 c 2
 412 74 l 2
 414 74 416 75 420 73 c 2
 423 64 l 1
 412 61 l 1
 412 55 415 48 413 44 c 2
 400 41 l 2
 386 41 371 43 357 47 c 1
 301 -4 235 -47 185 -60 c 2
 172 -64 l 2
 161 -67 151 -68 142 -68 c 0
 97 -68 74 -35 63 6 c 0
 63 7 63 6 63 7 c 2
 63 8 l 1
 61 16 l 2
 53 47 51 82 51 109 c 0
 51 185 80 251 118 314 c 0
 119 315 119 317 120 318 c 0
221 178 m 1
 224 175 226 171 229 168 c 1
 227 174 226 177 225 179 c 0
 224 179 222 178 221 178 c 1
EndSplineSet
Validated: 37
EndChar

StartChar: quotesingle
Encoding: 39 39 6
Width: 277
VWidth: 0
Flags: W
HStem: 954.229 13.541<245.019 265.95>
VStem: 133.05 135.489
LayerCount: 2
Fore
SplineSet
268.5390625 958.112304688 m 1
 254.049804688 954.229492188 l 1
 245.018554688 954.229492188 l 1
 147.538085938 705.111328125 l 1
 133.049804688 701.229492188 l 1
 130.461914062 710.888671875 l 1
 229.4609375 963.888671875 l 1
 243.950195312 967.770507812 l 1
 265.950195312 967.771484375 l 1
 268.5390625 958.112304688 l 1
EndSplineSet
Validated: 1
EndChar

StartChar: parenleft
Encoding: 40 40 7
Width: 304
VWidth: 0
Flags: W
HStem: 815.758 9.66016<275.495 279.24>
LayerCount: 2
Fore
SplineSet
277.365234375 825.41796875 m 1
 279.953125 815.7578125 l 1
 233.03125 776.443359375 165.377929688 723.625 136.953125 639.758789062 c 1
 66.046875 544.806640625 23.0849609375 408.5859375 52.56640625 290.61328125 c 0
 54.15234375 285.086914062 55.6005859375 280.514648438 57.365234375 275.41796875 c 0
 79.2265625 212.287109375 94.447265625 158.282226562 134.365234375 110.41796875 c 1
 277.365234375 11.41796875 l 1
 279.953125 1.7587890625 l 1
 260.634765625 -3.41796875 l 1
 117.634765625 95.58203125 l 1
 77.716796875 143.447265625 62.49609375 197.451171875 40.634765625 260.58203125 c 0
 38.4453125 266.907226562 36.48046875 273.293945312 34.734375 279.732421875 c 0
 34.60546875 280.215820312 34.736328125 279.733398438 34.60546875 280.215820312 c 0
 34.4794921875 280.68359375 34.453125 280.77734375 34.453125 280.77734375 c 1
 31.865234375 290.436523438 l 2
 -0.1611328125 410.270507812 43.208984375 548.041015625 115.045898438 644.241210938 c 1
 143.471679688 728.108398438 211.125 780.926757812 258.046875 820.241210938 c 1
 277.365234375 825.41796875 l 1
EndSplineSet
Validated: 33
EndChar

StartChar: parenright
Encoding: 41 41 8
Width: 306
VWidth: 0
Flags: W
VStem: 30.0469 19.3184<832.529 840.117>
LayerCount: 2
Fore
SplineSet
30.046875 838.241210938 m 1
 49.365234375 843.41796875 l 1
 107.829101562 766.11328125 151.779296875 686.270507812 175.869140625 596.41796875 c 2
 178.45703125 586.758789062 l 2
 178.541992188 586.444335938 178.646484375 586.05078125 178.646484375 586.05078125 c 0
 197.45703125 515.428710938 203.981445312 439.72265625 195.954101562 353.758789062 c 0
 186.21875 249.517578125 183.51953125 172.529296875 147.953125 81.7587890625 c 1
 67.9541015625 -14.2412109375 l 1
 48.634765625 -19.41796875 l 1
 46.046875 -9.7578125 l 1
 126.046875 86.2412109375 l 1
 161.61328125 177.01171875 164.3125 254 174.046875 358.241210938 c 0
 181.916015625 442.501953125 175.82421875 516.766601562 157.84765625 586.3203125 c 0
 133.762695312 673.30078125 89.9814453125 752.755859375 32.634765625 828.58203125 c 1
 30.046875 838.241210938 l 1
EndSplineSet
Validated: 33
EndChar

StartChar: asterisk
Encoding: 42 42 9
Width: 280
VWidth: 0
Flags: W
HStem: 716.814 18.9258<23.4422 35.1873>
VStem: 55.8145 28.4736<512.656 539.57> 135.799 15.4121<773.503 785.983> 155.813 18.3711<539.304 626.383> 235.814 14.4893<794.972 799.303>
LayerCount: 2
Fore
SplineSet
154.568359375 755.727539062 m 1
 155.8046875 738.9609375 158.383789062 715.365234375 160.596679688 703.454101562 c 2
 164.54296875 688.725585938 l 2
 164.705078125 688.124023438 164.90234375 687.372070312 164.90234375 687.372070312 c 2
 165.431640625 685.318359375 165.928710938 683.245117188 166.396484375 681.153320312 c 1
 188.377929688 714.036132812 208.576171875 745.278320312 221.5390625 767.814453125 c 1
 218.983398438 777.353515625 l 2
 218.791992188 778.006835938 218.678710938 778.756835938 218.678710938 778.756835938 c 2
 218.198242188 787.546875 231.1796875 789.157226562 234.93359375 794.869140625 c 0
 235.701171875 797.091796875 235.814453125 798.026367188 235.814453125 799.302734375 c 2
 250.303710938 803.185546875 l 1
 254.185546875 788.696289062 l 2
 254.559570312 787.04296875 254.145507812 785.541992188 253.299804688 784.254882812 c 0
 252.35546875 781.064453125 250.6640625 777.375976562 247.984375 772.061523438 c 0
 236.091796875 748.4765625 208.549804688 705.837890625 178.631835938 661.3359375 c 1
 196.650390625 645.223632812 213.9453125 629.911132812 230.302734375 619.185546875 c 1
 234.185546875 604.696289062 l 1
 242.185546875 572.696289062 l 1
 227.696289062 568.814453125 l 1
 223.814453125 583.302734375 l 1
 219.385742188 601.017578125 l 1
 204.528320312 610.86328125 188.708007812 624.658203125 172.173828125 639.3984375 c 1
 174.83984375 602.426757812 172.716796875 563.28515625 174.184570312 528.697265625 c 1
 162.185546875 520.696289062 l 1
 147.696289062 516.814453125 l 1
 143.814453125 531.303710938 l 1
 155.813476562 539.303710938 l 1
 154.65234375 566.673828125 155.74609375 596.706054688 154.934570312 626.3828125 c 1
 126.9453125 585.395507812 99.892578125 546.657226562 84.2880859375 523.780273438 c 1
 86.185546875 516.697265625 l 1
 74.185546875 508.696289062 l 1
 59.6962890625 504.814453125 l 1
 55.814453125 519.302734375 l 1
 67.626953125 537.612304688 110.172851562 597.952148438 150.983398438 658.248046875 c 1
 116.3828125 688.62890625 79.28515625 717.716796875 41.759765625 720.58203125 c 1
 27.6962890625 716.814453125 l 2
 24.75390625 718.694335938 23.541015625 719.853515625 23.4365234375 720.541015625 c 2
 19.5546875 735.030273438 l 2
 19.501953125 735.374023438 19.7275390625 735.599609375 20.15234375 735.740234375 c 2
 34.6416015625 739.622070312 l 2
 34.8583984375 739.694335938 35.1875 739.748046875 35.1875 739.748046875 c 2
 38.4462890625 740.080078125 43.9765625 738.87890625 46.302734375 739.185546875 c 0
 81.60546875 739.185546875 116.202148438 715.209960938 148.943359375 687.458984375 c 1
 148.65625 688.890625 148.356445312 690.314453125 148.04296875 691.732421875 c 2
 148.04296875 691.732421875 147.975585938 691.952148438 147.696289062 692.814453125 c 0
 147.586914062 693.151367188 147.622070312 693.033203125 147.42578125 693.70703125 c 0
 147.424804688 693.708007812 147.334960938 694.03125 147.26171875 694.307617188 c 2
 143.37890625 708.796875 l 2
 139.172851562 724.661132812 134.038085938 783.584960938 135.798828125 785.983398438 c 2
 135.798828125 785.983398438 135.837890625 786.016601562 135.872070312 786.022460938 c 2
 150.361328125 789.905273438 l 2
 150.565429688 789.940429688 150.845703125 789.33984375 151.2109375 787.991210938 c 2
 155.092773438 773.502929688 l 2
 155.791992188 770.916992188 156.802734375 765.581054688 158.185546875 756.697265625 c 1
 154.568359375 755.727539062 l 1
EndSplineSet
Validated: 33
EndChar

StartChar: plus
Encoding: 43 43 10
Width: 290
VWidth: 0
Flags: W
HStem: 386.814 18.3711<22.6973 134.176 152.824 253.303>
VStem: 134.832 17.9922<359.306 386.814 405.186 555.304> 143.696 14.4893<236.696 357.474>
LayerCount: 2
Fore
SplineSet
129.720703125 529.922851562 m 1xc0
 128.814453125 533.302734375 l 1
 128.814453125 555.303710938 l 1
 143.302734375 559.185546875 l 1
 147.185546875 544.697265625 l 1
 152.16796875 405.185546875 l 1
 253.302734375 405.185546875 l 1
 257.185546875 390.697265625 l 1
 242.696289062 386.814453125 l 1
 152.82421875 386.814453125 l 1xc0
 158.185546875 236.696289062 l 1
 143.696289062 232.814453125 l 1xa0
 139.814453125 247.303710938 l 1
 134.83203125 386.814453125 l 1
 22.697265625 386.814453125 l 1
 18.814453125 401.302734375 l 1
 33.3037109375 405.185546875 l 1
 134.17578125 405.185546875 l 1
 129.720703125 529.922851562 l 1xc0
EndSplineSet
Validated: 1
EndChar

StartChar: comma
Encoding: 44 44 11
Width: 235
VWidth: 0
Flags: W
HStem: -138.771 253.541
VStem: 50.0498 131.901
LayerCount: 2
Fore
SplineSet
181.951171875 114.770507812 m 1
 184.5390625 105.111328125 l 1
 64.5380859375 -134.888671875 l 1
 50.0498046875 -138.770507812 l 1
 47.4609375 -129.111328125 l 1
 167.461914062 110.888671875 l 1
 181.951171875 114.770507812 l 1
EndSplineSet
Validated: 1
EndChar

StartChar: hyphen
Encoding: 45 45 12
Width: 400
VWidth: 0
Flags: W
HStem: 350.814 18.3711<276.307 346.303> 366.814 18.3711<121.559 245.687>
VStem: 77.9404 272.245
LayerCount: 2
Fore
SplineSet
102.259765625 399.828125 m 1x60
 115.66796875 396.404296875 133.953125 390.96875 138.302734375 385.185546875 c 1x60
 186.303710938 385.186523438 l 1
 346.302734375 369.185546875 l 1
 350.185546875 354.696289062 l 1
 335.696289062 350.814453125 l 1xa0
 175.697265625 366.815429688 l 1
 127.696289062 366.814453125 l 1
 120.384765625 376.534179688 82.4794921875 383.034179688 81.822265625 383.889648438 c 2
 77.9404296875 398.37890625 l 2
 77.9384765625 398.384765625 77.9296875 398.388671875 77.927734375 398.395507812 c 0
 77.931640625 398.403320312 77.935546875 398.413085938 77.939453125 398.421875 c 2
 77.939453125 398.421875 77.97265625 398.440429688 78.0302734375 398.451171875 c 2
 92.51953125 402.333984375 l 2
 93.1806640625 402.45703125 97.216796875 402.094726562 106.303710938 401.185546875 c 0
 106.5625 400.219726562 102.259765625 399.828125 102.259765625 399.828125 c 1x60
77.927734375 398.395507812 m 1
 77.3408203125 399.141601562 77.552734375 397.538085938 77.927734375 398.395507812 c 1
EndSplineSet
Validated: 5
EndChar

StartChar: period
Encoding: 46 46 13
Width: 202
VWidth: 0
Flags: W
HStem: 90.1113 9.65918<91.1832 96.8263>
VStem: 39.0498 102.482
LayerCount: 2
Fore
SplineSet
67.18359375 25.3935546875 m 2
 61.0244140625 40.5546875 l 2
 59.455078125 36.923828125 58.0048828125 33.4775390625 56.580078125 30.330078125 c 0
 58.97265625 29.20703125 62.7578125 27.421875 67.18359375 25.3935546875 c 2
77.1025390625 45.623046875 m 2
 74.052734375 49.220703125 71.0478515625 52.751953125 68.3056640625 56.064453125 c 1
 66.740234375 53.0927734375 65.31640625 50.1396484375 63.994140625 47.25390625 c 2
 77.1025390625 45.623046875 l 2
92.6591796875 26.5390625 m 1
 87.6787109375 24.115234375 82.98828125 21.8330078125 79.2548828125 20.0166015625 c 1
 87.93359375 16.2841796875 96.6455078125 12.88671875 101.409179688 12.052734375 c 1
 100.173828125 15.8056640625 96.908203125 20.8798828125 92.6591796875 26.5390625 c 1
88.826171875 85.7919921875 m 1
 89.53125 86.302734375 89.9580078125 86.7060546875 90 87 c 1
 89.2001953125 86.8017578125 88.826171875 86.3876953125 88.826171875 85.7919921875 c 1
141.532226562 45.384765625 m 2
 143.104492188 44.115234375 140.2109375 40.068359375 140.833984375 37.7412109375 c 2
 141.538085938 35.111328125 l 1
 141.538085938 17.609375 135.844726562 8.3173828125 127.333984375 4.1767578125 c 1
 119.848632812 -7.314453125 110.984375 -16.611328125 102.186523438 -19.134765625 c 2
 102.186523438 -19.134765625 101.76953125 -19.2607421875 101.4375 -19.349609375 c 2
 86.9482421875 -23.232421875 l 2
 85.62109375 -23.587890625 83.134765625 -24.0869140625 83.0498046875 -23.7705078125 c 2
 80.4619140625 -14.111328125 l 1
 80.4619140625 -14.111328125 84.6123046875 -8.9296875 90.44140625 -1.6494140625 c 1
 66.2646484375 2.357421875 39.0498046875 20.228515625 39.0498046875 20.228515625 c 1
 36.4609375 29.888671875 l 1
 42.287109375 40.7607421875 47.193359375 56.69140625 56.953125 71.6572265625 c 0
 55.271484375 75.1220703125 55.845703125 76.8916015625 59.986328125 76.0498046875 c 0
 65.2763671875 83.2763671875 71.873046875 90.126953125 80.4619140625 95.888671875 c 2
 94.9501953125 99.7705078125 l 1
 97.5390625 90.111328125 l 2
 94.66015625 88.1796875 92.001953125 86.119140625 89.5380859375 83.9580078125 c 0
 95.818359375 74.2138671875 141.532226562 45.384765625 141.532226562 45.384765625 c 2
EndSplineSet
Validated: 5
EndChar

StartChar: slash
Encoding: 47 47 14
Width: 391
VWidth: -86
Flags: W
HStem: 780.897 20G<329.081 354.579>
VStem: 38.5723 316.044
LayerCount: 2
Fore
SplineSet
349.220703125 800.897460938 m 1
 354.616210938 780.758789062 l 1
 64.107421875 0.9677734375 l 1
 43.96875 -4.427734375 l 1
 38.572265625 15.7109375 l 1
 329.081054688 795.501953125 l 1
 349.220703125 800.897460938 l 1
EndSplineSet
Validated: 1
EndChar

StartChar: zero
Encoding: 48 48 15
Width: 396
VWidth: 0
Flags: W
HStem: 1.48926 16.3975<164.992 232.329> 783.795 16.3984<155.975 202.842>
VStem: 5.40234 20.6807<269.638 473.249> 257.29 20.6807<694.038 726.911> 363.859 20.6807<277.334 457.689>
LayerCount: 2
Fore
SplineSet
260.42578125 689.336914062 m 1
 257.290039062 701.034179688 l 1
 257.290039062 708.299804688 l 2
 257.290039062 710.543945312 256.946289062 713.876953125 256.677734375 715.60546875 c 0
 245.094726562 747.604492188 207.077148438 783.794921875 175.655273438 783.794921875 c 0
 172.896484375 783.794921875 168.92578125 783.48046875 167.145507812 783.255859375 c 0
 62.228515625 739.549804688 26.0830078125 440.706054688 26.0830078125 367.067382812 c 0
 26.0830078125 330.241210938 33.1005859375 264.333984375 49.1044921875 202.369140625 c 0
 75.6767578125 107.1796875 123.6015625 17.88671875 204.598632812 17.88671875 c 0
 209.9921875 17.88671875 217.46484375 18.6474609375 220.887695312 19.232421875 c 0
 330.731445312 60.4853515625 363.859375 295.783203125 363.859375 383.751953125 c 0
 363.859375 411.549804688 359.875976562 440.168945312 354.444335938 461.982421875 c 0
 319.3984375 583.04296875 221.06640625 660.905273438 172.112304688 754.633789062 c 1
 166.559570312 752.166015625 l 1
 149.013671875 747.46484375 l 1
 145.87890625 759.162109375 l 1
 167.677734375 768.850585938 l 1
 185.22265625 773.552734375 l 1
 234.942382812 676.260742188 336.775390625 597.708007812 370.376953125 472.92578125 c 2
 373.510742188 461.228515625 l 2
 380.501953125 435.266601562 384.540039062 407.305664062 384.540039062 376.756835938 c 0
 384.540039062 286.791015625 349.931640625 42.685546875 233.90625 9.7421875 c 2
 233.90625 9.7421875 233.322265625 9.580078125 232.8515625 9.4541015625 c 2
 215.305664062 4.7529296875 l 2
 207.3203125 2.6162109375 198.952148438 1.4892578125 190.186523438 1.4892578125 c 0
 107.541015625 1.4892578125 58.99609375 95.3759765625 33.193359375 191.45703125 c 2
 30.0595703125 203.154296875 l 2
 12.41015625 268.879882812 5.40234375 335.6328125 5.40234375 374.064453125 c 0
 5.40234375 449.508789062 43.240234375 761.360351562 154.440429688 793.012695312 c 2
 154.440429688 793.012695312 154.951171875 793.153320312 155.361328125 793.26171875 c 2
 172.907226562 797.963867188 l 2
 178.4453125 799.428710938 184.1640625 800.193359375 190.06640625 800.193359375 c 0
 223.064453125 800.193359375 262.84375 761.151367188 272.745117188 726.911132812 c 2
 272.745117188 726.911132812 272.916015625 726.295898438 273.045898438 725.805664062 c 2
 276.1796875 714.106445312 l 2
 277.344726562 709.69140625 277.970703125 705.388671875 277.970703125 701.303710938 c 2
 277.970703125 694.038085938 l 1
 260.42578125 689.336914062 l 1
EndSplineSet
Validated: 1
EndChar

StartChar: one
Encoding: 49 49 16
Width: 398
VWidth: 0
Flags: W
HStem: 0.692383 17.7256<57.7939 226.103> 24.2549 17.5938<360.605 378.235> 613.305 15.2617<11.8467 20.4914>
VStem: 186.482 22.3545<521.572 759.567 780.456 796.119> 202.189 22.3535<115.271 271.636 355.783 615.901> 228.369 22.3096<-7.59177 3.01912>
LayerCount: 2
Fore
SplineSet
208.836914062 788.153320312 m 2xf4
 208.836914062 769.83984375 l 1
 208.836914062 746.669921875 l 2xf4
 208.836914062 718.743164062 211.455078125 690.818359375 211.455078125 662.892578125 c 0
 211.455078125 615.319335938 219.307617188 567.20703125 219.307617188 518.90234375 c 1
 226.59765625 466.76953125 217.224609375 412.752929688 224.544921875 361.822265625 c 0
 231.471679688 313.619140625 224.54296875 263.60546875 224.54296875 215.213867188 c 0
 229.150390625 179.733398438 228.994140625 144.65625 235.016601562 110.494140625 c 0
 239.793945312 83.3896484375 245.455078125 50.9248046875 248.51171875 21.4296875 c 1
 279.663085938 25.1728515625 311.137695312 31.1611328125 342.549804688 37.083984375 c 2
 358.840820312 41.44921875 l 2
 359.629882812 41.6689453125 360.60546875 41.8486328125 360.60546875 41.8486328125 c 2
 367.8203125 42.8369140625 373.403320312 41.2373046875 378.235351562 41.98046875 c 2
 381.623046875 29.3359375 l 1
 362.658203125 24.2548828125 l 2
 358.856445312 23.6708984375 356.46875 24.3291015625 349.659179688 24.466796875 c 2
 339.096679688 21.63671875 l 2
 308.994140625 16.009765625 279.2578125 10.146484375 249.883789062 5.9248046875 c 1
 250.2890625 0.2578125 250.563476562 -5.228515625 250.678710938 -10.4658203125 c 2
 253.341796875 -20.40625 l 1
 234.375976562 -25.4873046875 l 1
 229.140625 -20.2509765625 l 1
 225.752929688 -7.607421875 l 2
 227.016601562 -7.2685546875 227.103515625 -7.2451171875 228.369140625 -6.9072265625 c 0
 228.359375 -3.6953125 228.274414062 -0.3466796875 228.126953125 3.119140625 c 1
 201.99609375 0.1728515625 176.155273438 -1.0849609375 150.600585938 0.6923828125 c 0
 134.62109375 0.6923828125 33.7109375 1.5234375 27.7294921875 10.49609375 c 2
 27.7294921875 10.49609375 27.6220703125 10.71484375 27.583984375 10.8935546875 c 2
 24.1943359375 23.5380859375 l 1
 24.1650390625 23.80859375 l 2
 24.8623046875 25.5908203125 26.3056640625 26.453125 27.9033203125 26.916015625 c 0
 30.009765625 27.4814453125 33.779296875 28.814453125 34.638671875 29.044921875 c 2
 53.603515625 34.1259765625 l 1
 56.3662109375 23.8173828125 l 1
 86.2509765625 18.970703125 153.211914062 18.41796875 166.177734375 18.41796875 c 0
 186.216796875 17.0234375 206.549804688 17.5185546875 227.064453125 19.2314453125 c 1
 224.350585938 50.8193359375 217.919921875 88.2177734375 212.663085938 118.056640625 c 0
 206.640625 152.21875 206.796875 187.295898438 202.189453125 222.776367188 c 0xec
 202.190429688 271.16796875 209.118164062 321.181640625 202.190429688 369.384765625 c 0
 194.87109375 420.314453125 204.243164062 474.33203125 196.953125 526.46484375 c 1
 196.953125 574.768554688 189.100585938 622.881835938 189.100585938 670.455078125 c 0
 189.100585938 698.379882812 186.482421875 726.3046875 186.482421875 754.23046875 c 2
 186.482421875 759.567382812 l 1
 160.443359375 731.729492188 120.037109375 694.075195312 111.969726562 689.072265625 c 0
 81.26953125 670.037109375 67.1640625 641.733398438 34.7724609375 623.142578125 c 1
 36.046875 618.385742188 l 1
 17.08203125 613.3046875 l 1
 11.8466796875 615.922851562 l 1
 8.458984375 628.56640625 l 1
 42.7626953125 646.198242188 57.8310546875 676.926757812 89.615234375 696.634765625 c 0
 99.5517578125 702.795898438 158.485351562 758.424804688 179.249023438 784.280273438 c 0
 183.771484375 789.911132812 186.482421875 794.130859375 186.482421875 796.119140625 c 2
 205.44921875 801.201171875 l 1
 208.836914062 788.556640625 l 1
 208.836914062 788.556640625 208.977539062 788.654296875 208.836914062 788.153320312 c 2xf4
EndSplineSet
Validated: 33
EndChar

StartChar: two
Encoding: 50 50 17
Width: 511
VWidth: -337
Flags: W
HStem: 7.26953 27.7402<134.747 300.857> 765.29 27.7402<151.634 265.398>
VStem: 19.3799 27.7402<616.65 669.079> 378.76 27.7402<504.436 627.907>
LayerCount: 2
Fore
SplineSet
59.2001953125 583.911132812 m 1
 37.3212890625 578.049804688 l 1
 32.9033203125 584.930664062 27.00390625 591.97265625 24.7490234375 599.962890625 c 2
 18.8857421875 621.840820312 l 2
 18.6318359375 622.739257812 18.39453125 623.842773438 18.390625 623.864257812 c 0
 17.5419921875 628.897460938 17.787109375 631.7890625 19.3798828125 636.168945312 c 0
 19.3798828125 703.192382812 90.501953125 763.579101562 158.334960938 781.672851562 c 2
 180.213867188 787.534179688 l 2
 193.607421875 791.107421875 206.873046875 793.030273438 219.438476562 793.030273438 c 0
 305.638671875 793.030273438 371.349609375 720.286132812 392.98828125 640.393554688 c 2
 398.8515625 618.515625 l 2
 399.083984375 617.65625 399.3671875 616.581054688 399.3671875 616.581054688 c 0
 404.3046875 597.477539062 406.5 580.733398438 406.5 562.771484375 c 0
 393.522460938 425.245117188 317.82421875 304.584960938 246.440429688 191.311523438 c 0
 213.904296875 136.124023438 183.0234375 72.73046875 134.747070312 34.8212890625 c 1
 137.869140625 34.9853515625 138.814453125 35.009765625 140.918945312 35.009765625 c 0
 214.494140625 35.009765625 288.6875 23.0712890625 364.3984375 16.890625 c 1
 488.21875 25.951171875 l 1
 494.080078125 4.0732421875 l 1
 472.203125 -1.7900390625 l 1
 348.3828125 -10.8505859375 l 1
 272.670898438 -4.6689453125 198.478515625 7.2685546875 124.903320312 7.26953125 c 0
 107.1015625 7.26953125 83.6591796875 1.630859375 81.1611328125 4.9033203125 c 2
 81.1611328125 4.9033203125 81.0771484375 5.07421875 81.0537109375 5.23046875 c 2
 75.1904296875 27.107421875 l 2
 74.94140625 28.7431640625 78.7841796875 32.0712890625 88.83984375 38.208984375 c 0
 150.5546875 75.873046875 182.416015625 145.783203125 218.700195312 207.328125 c 0
 290.083984375 320.600585938 365.782226562 441.260742188 378.759765625 578.787109375 c 0
 378.759765625 593.39453125 377.123046875 608.108398438 373.92578125 622.955078125 c 0
 350.25390625 696.76171875 286.595703125 765.290039062 203.421875 765.290039062 c 0
 194.30859375 765.290039062 183.965820312 764.14453125 174.864257812 762.29296875 c 0
 111.904296875 741.150390625 47.1201171875 684.033203125 47.1201171875 620.153320312 c 0
 46.625 618.790039062 46.6083984375 618.818359375 46.1025390625 616.544921875 c 0
 47.2275390625 614.782226562 51.275390625 609 53.3369140625 605.790039062 c 2
 59.2001953125 583.911132812 l 1
EndSplineSet
Validated: 33
EndChar

StartChar: three
Encoding: 51 51 18
Width: 416
VWidth: 0
Flags: W
HStem: 7.82422 10.9648<180.176 237.43> 407.002 20G<140.825 141.601> 780.028 17.2236<117.416 201.845>
VStem: 31.1143 21.7305<98.008 111.988 686.991 693.424> 356.747 21.7227<504.226 630.416> 379.644 21.7207<150.962 272.938>
LayerCount: 2
Fore
SplineSet
50.2919921875 688.293945312 m 1
 31.86328125 683.35546875 l 2
 29.931640625 686.390625 28.876953125 685.9296875 27.7490234375 685.900390625 c 0
 26.1798292289 685.811448443 26.6071461871 685.6796875 26.6904296875 686.234375 c 2
 23.3994140625 698.520507812 l 2
 23.3515625 698.91796875 23.380859375 699.599609375 23.4833984375 700.73046875 c 0
 23.482421875 737.745117188 75.1376953125 777.653320312 118.173828125 789.088867188 c 2
 136.604492188 794.02734375 l 2
 144.458007812 796.114257812 152.0234375 797.251953125 158.936523438 797.251953125 c 0
 262.430664062 797.251953125 341.688476562 729.091796875 366.791015625 635.446289062 c 2
 370.083984375 623.159179688 l 1
 370.30859375 622.293945312 l 2
 370.522460938 621.47265625 370.30859375 622.293945312 370.528320312 621.473632812 c 0
 375.7265625 601.502929688 378.469726562 580.390625 378.469726562 558.549804688 c 0
 378.46875 473.151367188 329.541992188 422.419921875 260.385742188 403.84375 c 2
 241.956054688 398.90625 l 2
 241.38671875 398.751953125 240.672851562 398.564453125 240.672851562 398.564453125 c 2
 233.966796875 396.823242188 228.990234375 395.756835938 222.739257812 394.65625 c 1
 298.713867188 368.774414062 370.413085938 349.490234375 391.671875 269.233398438 c 2
 394.96484375 256.946289062 l 2
 399.118164062 241.263671875 401.364257812 223.247070312 401.364257812 202.389648438 c 0
 401.364257812 114.213867188 331.263671875 35.8466796875 246.93359375 13.1171875 c 2
 228.502929688 8.1796875 l 2
 227.911132812 8.01953125 227.170898438 7.82421875 227.169921875 7.82421875 c 0
 210.76171875 3.5654296875 195.658203125 1.5634765625 179.415039062 1.5634765625 c 0
 122.813476562 1.5634765625 52.40625 30.0224609375 37.3310546875 85.92578125 c 2
 34.0400390625 98.2119140625 l 1
 34.0966796875 97.9697265625 l 2
 33.8935546875 98.7939453125 33.818359375 99.095703125 33.599609375 99.9140625 c 0
 31.978515625 106.47265625 31.1142578125 113.400390625 31.1142578125 120.697265625 c 2
 31.1142578125 128.329101562 l 1
 49.544921875 133.268554688 l 1
 54.6328125 125.635742188 l 1
 57.92578125 113.349609375 l 1
 52.8447265625 111.98828125 l 1
 52.9384765625 107.514648438 53.2763671875 102.946289062 54.310546875 97.2158203125 c 0
 72.1162109375 46.380859375 139.413085938 18.7880859375 194.552734375 18.7890625 c 0
 207.959960938 18.7880859375 220.560546875 20.171875 234.114257812 23.0888671875 c 0
 313.08203125 48.2939453125 379.643554688 124.099609375 379.643554688 209.73828125 c 0
 379.643554688 228.045898438 377.852539062 244.518554688 374.66015625 258.524414062 c 0
 349.045898438 339.30859375 270.463867188 354.715820312 189.962890625 383.583984375 c 0
 184.416015625 385.572265625 178.817382812 387.64453125 173.254882812 389.796875 c 0
 158.661132812 387.889648438 125.766601562 406.948242188 125.330078125 409.497070312 c 2
 122.0390625 421.783203125 l 2
 122.017578125 421.90625 122.072265625 421.991210938 122.209960938 422.033203125 c 2
 140.639648438 426.970703125 l 2
 140.708984375 426.9921875 140.82421875 427.001953125 140.825195312 427.001953125 c 0
 142.376953125 426.993164062 146.952148438 425.260742188 156.392578125 420.740234375 c 0
 166.663085938 415.822265625 176.923828125 411.482421875 187.4140625 407.40234375 c 0
 190.028320312 407.40234375 190.780273438 407.690429688 192.008789062 408.020507812 c 0
 211.419921875 408.020507812 230.01953125 409.92578125 247.6171875 413.813476562 c 0
 311.3046875 434.162109375 356.74609375 483.814453125 356.747070312 565.8984375 c 0
 356.747070312 586.282226562 354.625976562 604.530273438 349.9375 624.30078125 c 0
 323.62109375 713.333984375 245.48828125 780.028320312 143.799804688 780.028320312 c 0
 139.381835938 780.028320312 135.85546875 779.71875 130.256835938 778.758789062 c 0
 94.4833984375 766.208984375 53.109375 734.803710938 46.0859375 701.928710938 c 0
 46.173828125 701.836914062 46.4091796875 701.510742188 47.0009765625 700.580078125 c 2
 50.2919921875 688.293945312 l 1
EndSplineSet
Validated: 33
EndChar

StartChar: four
Encoding: 52 52 19
Width: 434
VWidth: 0
Flags: W
HStem: 340.389 18.0998<159.085 271.665 302.825 304.431 330.231 391.545>
VStem: 270.818 24.54<545.845 781.698> 273.692 35.1914<775.709 792.633> 388.652 23.124<366.934 380.653>
LayerCount: 2
Fore
SplineSet
173.805664062 789.58984375 m 1xd0
 177.524414062 775.708984375 l 1
 111.805664062 652.540039062 64.16796875 501.084960938 41.37109375 359.041992188 c 1
 111.90625 331.366210938 212.533203125 362.91796875 288.765625 358.489257812 c 0
 290.168411687 358.408036861 296.0133217 358.593455853 304.431076614 358.958650037 c 1
 286.588524118 486.673177369 270.818914432 615.815515362 270.818359375 738.02734375 c 0xd0
 270.819335938 750.811523438 273.692382812 789.362304688 273.692382812 792.6328125 c 2
 294.513671875 798.2109375 l 2
 302.032226562 798.919921875 300.388671875 794.646484375 308.883789062 789.58984375 c 1xb0
 312.602539062 775.708984375 l 1
 297.494140625 771.66015625 l 1
 296.518554688 756.395507812 295.358398438 738.638671875 295.358398438 729.725585938 c 0
 295.358398438 610.520399671 310.361582701 484.721516376 327.657399478 360.085417095 c 1
 349.165214216 361.212610832 374.785482195 362.75000202 391.544921875 364.094726562 c 1
 391.345703125 366.48828125 391.458007812 367.51953125 391.478515625 368.228515625 c 2
 388.65234375 378.77734375 l 1
 409.473632812 384.35546875 l 2
 410.649414062 383.392578125 411.356445312 382.166015625 411.776367188 380.813476562 c 2
 415.495117188 366.93359375 l 2
 415.823242188 365.874023438 415.7421875 366.377929688 416.008789062 364.171875 c 2
 418.940429688 353.231445312 l 2
 418.940429688 353.12890625 418.915039062 353.08203125 418.426757812 352.888671875 c 0
 418.424804688 352.888671875 418.16015625 352.802734375 417.881835938 352.733398438 c 2
 397.061523438 347.154296875 l 2
 391.004667772 345.617220263 359.962001321 343.396040058 330.230666669 341.661016951 c 1
 343.427095511 247.727778888 357.572200997 154.674092161 367.208007812 65.8310546875 c 0
 369.331054688 51.681640625 370.1171875 35.529296875 372.037109375 22.728515625 c 0
 373.09375 22.62890625 374.340820312 22.533203125 374.740234375 22.2080078125 c 0
 374.744140625 22.2001953125 374.87890625 22.0029296875 374.927734375 21.7919921875 c 2
 378.646484375 7.912109375 l 2
 378.912109375 6.763671875 377.759765625 4.8046875 376.43359375 3.9345703125 c 2
 376.43359375 3.9345703125 376.206054688 3.8251953125 376.036132812 3.802734375 c 2
 355.216796875 -1.7763671875 l 2
 355.017578125 -1.8017578125 354.982421875 -1.8359375 354.6875 -1.56640625 c 2
 354.6875 -1.56640625 354.568359375 -1.359375 354.515625 -1.087890625 c 2
 350.796875 12.79296875 l 2
 350.663085938 13.4658203125 350.772460938 14.681640625 351.291992188 16.6533203125 c 2
 342.66796875 74.1328125 l 2
 333.360407554 159.956671038 319.844183944 249.709858107 307.039915307 340.389470649 c 1
 288.742767948 339.452556805 274.260423514 338.88007572 271.665039062 339.03125 c 0
 193.440429688 343.575195312 89.2607421875 310.227539062 18.7529296875 341.905273438 c 1
 15.0341796875 355.78515625 l 1
 37.115234375 501.928710938 85.4462890625 657.431640625 152.984375 784.010742188 c 1
 173.805664062 789.58984375 l 1xd0
EndSplineSet
Validated: 33
EndChar

StartChar: five
Encoding: 53 53 20
Width: 574
VWidth: 0
Flags: W
HStem: 380.521 22.4785<117.494 204.637> 399.963 21G<144.318 144.373> 772.281 22.4775<198.81 400.424 511.664 546.058>
VStem: 33.9648 24.0527<80.9395 102.951> 349.367 28.3477<76.9698 227.452>
LayerCount: 2
Fore
SplineSet
144.627929688 400.041015625 m 0xb8
 145.947265625 400.37109375 146.124023438 400.416992188 147.6171875 400.817382812 c 0
 152.82421875 402.122070312 157.482421875 402.999023438 160.9375 402.999023438 c 0
 269.276367188 402.999023438 338.165039062 322.322265625 363.009765625 229.46875 c 2
 367.305664062 213.434570312 l 2
 374.211914062 187.622070312 377.71484375 160.8671875 377.71484375 134.64453125 c 0
 377.712890625 65.2470703125 346.859375 29.2998046875 295.284179688 15.427734375 c 2
 271.233398438 8.982421875 l 2
 270.521484375 8.791015625 269.626953125 8.5595703125 269.626953125 8.5595703125 c 2
 251.162109375 3.861328125 232.600585938 2.041015625 210.90234375 2.041015625 c 0
 143.565429688 7.171875 59.142578125 6.6640625 39.275390625 80.939453125 c 2
 34.978515625 96.9736328125 l 2
 34.6201171875 98.31640625 34.28125 99.6845703125 33.96484375 101.075195312 c 2
 58.017578125 107.51953125 l 1
 60.2431640625 99.2109375 l 2
 82.8525390625 29.486328125 163.921875 29.6044921875 230.657226562 24.5205078125 c 0
 247.944335938 24.51953125 262.622070312 25.6279296875 278.354492188 28.5751953125 c 0
 321.6640625 44.052734375 349.365234375 79.412109375 349.3671875 144.235351562 c 0
 349.3671875 167.637695312 346.38671875 192.536132812 340.969726562 215.075195312 c 0
 314.462890625 303.59375 246.735351562 380.520507812 141.180664062 380.520507812 c 0
 139.295898438 380.520507812 136.893554688 380.235351562 134.497070312 379.799804688 c 0
 132.465820312 379.186523438 127.369140625 377.653320312 124.326171875 376.795898438 c 0
 122.723632812 376.366210938 122.326171875 376.25390625 120.727539062 375.803710938 c 2
 120.93359375 375.868164062 l 1
 96.8818359375 369.422851562 l 2
 91.9326171875 368.119140625 87.6669921875 367.241210938 84.7421875 367.241210938 c 0
 81.5234375 367.241210938 81.3369140625 367.200195312 78.5888671875 367.08203125 c 2
 78.5888671875 367.08203125 78.1025390625 367.067382812 78.1025390625 367.241210938 c 2
 73.8046875 383.275390625 l 1
 73.806640625 434.927734375 115.267578125 569.412109375 140.20703125 618.995117188 c 0
 157.837890625 654.047851562 154.53125 725.309570312 164.174804688 762.321289062 c 1
 161.102539062 762.321289062 l 1
 156.806640625 778.35546875 l 1
 160.677734375 786.251953125 159.846679688 785.083984375 166.766601562 791.634765625 c 1
 190.817382812 798.079101562 l 1
 193.752929688 787.126953125 l 1
 197.45703125 788.119140625 l 1
 198.267578125 785.092773438 l 1
 233.568359375 786.935546875 267.000976562 794.758789062 293.737304688 794.758789062 c 0
 353.16015625 794.758789062 405.580078125 781.479492188 463.057617188 781.479492188 c 0
 474.250976562 783.364257812 497.041992188 783.666015625 511.400390625 785.58984375 c 0
 517.065429688 788.583984375 519.758789062 790.995117188 522.006835938 794.955078125 c 2
 546.057617188 801.399414062 l 1
 550.354492188 785.365234375 l 1
 546.64453125 778.825195312 539.03515625 774.823242188 529.674804688 772.274414062 c 2
 505.624023438 765.831054688 l 2
 485.920898438 760.466796875 458.462890625 761.552734375 443.302734375 759.000976562 c 0
 385.825195312 759.000976562 333.405273438 772.28125 273.982421875 772.28125 c 0
 252.581054688 772.28125 224.067382812 766.84375 196.40234375 764.00390625 c 1
 181.845703125 732.53515625 188.20703125 648.478515625 168.5546875 609.405273438 c 0
 145.9453125 564.455078125 109.4453125 447.4296875 103.140625 389.720703125 c 1
 106.861328125 389.71875 107.461914062 389.94140625 108.446289062 390.08203125 c 0
 113.073242188 391.474609375 116.19140625 392.405273438 120.020507812 393.444335938 c 2
 144.071289062 399.887695312 l 2
 144.274414062 399.943359375 144.458984375 399.995117188 144.627929688 400.041015625 c 0xb8
144.627929688 400.041015625 m 2
 144.627929688 400.041015625 144.318359375 399.962890625 144.318359375 399.962890625 c 2x78
 144.427734375 399.9921875 144.532226562 400.041015625 144.627929688 400.041015625 c 2
EndSplineSet
Validated: 37
EndChar

StartChar: six
Encoding: 54 54 21
Width: 491
VWidth: 0
Flags: W
HStem: 0.365234 21.5576<180.408 296.745> 315.581 21.5596<300.473 377.131>
VStem: 21.4297 27.1865<153.343 346.6> 180.632 23.3633<101.375 111.612 111.617 120.798> 435.35 27.1875<131.53 240.188>
LayerCount: 2
Fore
SplineSet
251.458007812 798.8203125 m 1
 255.578125 783.442382812 l 1
 115.91796875 637.942382812 53.69140625 404.252929688 48.6162109375 200.76953125 c 0
 48.6162109375 187.927734375 50.345703125 173.935546875 52.8125 162.637695312 c 0
 78.1015625 82.400390625 157.194335938 21.9228515625 238.720703125 21.9228515625 c 0
 259.021484375 21.9228515625 281.104492188 24.5185546875 299.221679688 28.50390625 c 0
 375.750976562 52.9033203125 435.3515625 109.95703125 435.349609375 194.046875 c 0
 435.349609375 205.581054688 433.440429688 220.915039062 431.125976562 231.315429688 c 0
 416.752929688 276.424804688 385.573242188 315.581054688 337.583007812 315.581054688 c 0
 330.806640625 315.581054688 323.827148438 314.932617188 317.831054688 314.004882812 c 0
 261.951171875 292.877929688 225.692382812 231.942382812 210.145507812 173.528320312 c 0
 204.3671875 151.818359375 201.450195312 130.45703125 201.450195312 111.6171875 c 1
 201.450195312 111.6171875 203.163085938 104.712890625 203.995117188 101.375 c 2
 222.80078125 91.97265625 l 1
 226.920898438 76.5947265625 l 1
 203.85546875 70.4130859375 l 1
 184.750976562 79.9658203125 l 1
 180.631835938 95.3427734375 l 2
 179.915039062 98.0263671875 174.263671875 120.814453125 174.263671875 120.814453125 c 1
 174.263671875 193.201171875 216.833984375 302.609375 300.745117188 326.521484375 c 2
 300.745117188 326.521484375 301.6484375 326.770507812 302.375976562 326.962890625 c 2
 325.442382812 333.14453125 l 2
 335.2578125 335.741210938 345.62109375 337.140625 356.528320312 337.140625 c 0
 406.682617188 337.140625 438.771484375 293.712890625 451.791015625 247.08984375 c 0
 452.064453125 246.065429688 451.779296875 247.087890625 452.064453125 246.065429688 c 2
 452.364257812 244.984375 l 1
 456.484375 229.607421875 l 2
 460.5078125 214.506835938 462.537109375 199.133789062 462.537109375 184.849609375 c 0
 462.538085938 97.0546875 397.608398438 38.71484375 316.203125 16.2998046875 c 0
 316.203125 16.2998046875 315.259765625 16.04296875 314.501953125 15.8408203125 c 2
 291.435546875 9.6611328125 l 2
 268.341796875 3.5185546875 244.059570312 0.365234375 219.775390625 0.365234375 c 0
 214.426757812 0.365234375 209.087890625 0.625 203.776367188 1.134765625 c 0
 125.640625 8.625 52.8955078125 69.9423828125 31.71875 148.427734375 c 2
 27.5986328125 163.8046875 l 2
 23.5908203125 178.66015625 21.4296875 194.12890625 21.4296875 209.966796875 c 0
 26.50390625 413.450195312 88.73046875 647.138671875 228.391601562 792.638671875 c 1
 251.458007812 798.8203125 l 1
EndSplineSet
Validated: 33
EndChar

StartChar: seven
Encoding: 55 55 22
Width: 462
VWidth: 0
Flags: W
HStem: 380.326 22.0723<313.968 433.826> 401.958 20G<75.8125 121.686> 768.267 22.0713<356.969 392.358>
LayerCount: 2
Fore
SplineSet
37.4892578125 793.598632812 m 1x60
 38.06640625 791.446289062 l 2
 42.3466796875 788.677734375 48.9560546875 791.125 53.7890625 790.337890625 c 0
 160.520507812 797.609375 251.778320312 799.099609375 356.96875 796.858398438 c 0
 372.5234375 796.52734375 415.365234375 800.201171875 418.703125 785.688476562 c 2
 422.921875 769.944335938 l 2
 423.056640625 769.350585938 423.12890625 768.728515625 423.12890625 768.07421875 c 0
 400.359375 700.771484375 379.314453125 625.116210938 357.926757812 552.9140625 c 0
 342.740234375 501.635742188 327.245117188 449.959960938 311.610351562 398.19140625 c 1
 361.983398438 397.79296875 406.92578125 399.82421875 431.950195312 402.3984375 c 1
 436.168945312 386.654296875 l 1
 412.55078125 380.326171875 l 2xa0
 389.653320312 377.970703125 350.076171875 376.0703125 304.921875 376.068359375 c 1
 268.19140625 254.689453125 230.817382812 133.033203125 194.928710938 15.013671875 c 1
 188.408203125 8.494140625 l 1
 164.791015625 2.166015625 l 1
 160.573242188 17.9111328125 l 1
 167.092773438 24.4306640625 l 1
 202.08203125 139.4921875 238.483398438 258.010742188 274.32421875 376.361328125 c 1
 204.310546875 377.7109375 127.377929688 383.96875 80.03125 399.88671875 c 1
 75.8125 415.630859375 l 1
 99.4287109375 421.958007812 l 1
 143.943359375 406.9921875 214.611328125 400.56640625 281.092773438 398.729492188 c 1
 297.637695312 453.467773438 314.03515625 508.122070312 330.091796875 562.331054688 c 0
 350.767578125 632.1328125 370.799804688 704.099609375 392.913085938 770.407226562 c 1
 381.375976562 775.950195312 350.23828125 774.515625 337.571289062 774.786132812 c 0
 232.380859375 777.02734375 141.123046875 775.536132812 34.3916015625 768.266601562 c 0
 29.1513671875 769.118164062 19.337890625 766.268554688 18.1943359375 770.436523438 c 2
 13.9765625 786.180664062 l 2
 13.6884765625 787.227539062 13.873046875 787.270507812 13.873046875 787.270507812 c 1
 37.4892578125 793.598632812 l 1x60
EndSplineSet
Validated: 37
EndChar

StartChar: eight
Encoding: 56 56 23
Width: 472
VWidth: 0
Flags: W
HStem: 4.65039 19.499<211.082 358.337>
VStem: 32.3447 24.5918<112.355 212.933> 72.6641 24.5908<605.491 698.395> 403.865 24.5908<650.165 707.744> 424.023 24.5918<69.3672 181.172>
LayerCount: 2
Fore
SplineSet
224.034179688 450.009765625 m 1xf0
 314.904296875 535.834960938 403.865234375 617.568359375 403.865234375 703.998046875 c 0
 403.638671875 710.405273438 403.201171875 718.114257812 404.983398438 724.512695312 c 1
 378.875 760.755859375 327.64453125 787.671875 280.870117188 779.370117188 c 0
 259.9765625 779.370117188 234.561523438 776.538085938 211.262695312 771.193359375 c 0
 151.459960938 752.782226562 97.2548828125 714.963867188 97.2548828125 649.600585938 c 0
 97.2548828125 637.95703125 98.9482421875 624.622070312 101.158203125 614.728515625 c 0
 119.958984375 555.098632812 168.423828125 503.322265625 224.034179688 450.009765625 c 1xf0
221.876953125 416.266601562 m 1
 136.454101562 334.247070312 56.9365234375 247.455078125 56.9365234375 148.48046875 c 0
 56.9365234375 142.046875 57.38671875 136.870117188 58.5830078125 130.301757812 c 0
 87.3505859375 49.451171875 225.139648438 24.1494140625 298.0078125 24.1494140625 c 0
 318.286132812 24.1494140625 337.889648438 25.4189453125 358.43359375 29.6240234375 c 0
 395.006835938 41.998046875 424.0234375 67.314453125 424.0234375 116.479492188 c 0xe8
 424.0234375 134.29296875 421.779296875 152.219726562 417.971679688 168.290039062 c 0
 389.166015625 263.484375 301.317382812 341.240234375 221.876953125 416.266601562 c 1
427.879882812 737.692382812 m 1
 430.48828125 738.390625 l 1
 434.21484375 724.48046875 l 1
 433.4375 723.735351562 l 1
 437.094726562 710.080078125 l 1
 428.375976562 707.744140625 l 2
 428.189453125 703.584960938 428.331054688 699.203125 428.456054688 695.680664062 c 0xf0
 428.456054688 606.604492188 334.237304688 522.7734375 240.688476562 434.185546875 c 1
 321.55078125 357.891601562 410.688476562 279.43359375 437.09765625 180.782226562 c 2
 440.825195312 166.873046875 l 2
 445.85546875 148.081054688 448.615234375 128.552734375 448.615234375 108.16015625 c 0
 448.615234375 55.080078125 415.17578125 29.4892578125 372.58984375 18.1728515625 c 2
 351.7265625 12.5830078125 l 2
 329.452148438 6.6640625 304.673828125 4.650390625 280.872070312 4.650390625 c 0
 206.8828125 4.650390625 63.1787109375 30.294921875 39.4326171875 117.236328125 c 2
 35.7021484375 131.149414062 l 2
 35.46875 132.081054688 35.447265625 132.153320312 35.2001953125 133.080078125 c 0
 33.3349609375 140.536132812 32.3447265625 148.435546875 32.3447265625 156.799804688 c 0
 32.3447265625 258.977539062 116.811523438 347.900390625 205.193359375 432.146484375 c 1
 148.3125 486.840820312 98.4140625 541.33203125 82.0732421875 601.9296875 c 2
 78.3466796875 615.838867188 l 2
 74.658203125 629.514648438 72.6640625 643.515625 72.6640625 657.919921875 c 0
 72.6640625 726.407226562 131.862304688 764.56640625 195.5625 782.08984375 c 0
 195.565429688 782.091796875 196.454101562 782.333007812 197.168945312 782.5234375 c 2
 218.033203125 788.114257812 l 2
 245.856445312 795.549804688 274.155273438 798.869140625 298.0078125 798.869140625 c 1
 347.596679688 807.670898438 402.028320312 777.115234375 426.31640625 737.705078125 c 0
 426.83203125 736.868164062 427.879882812 737.692382812 427.879882812 737.692382812 c 1
EndSplineSet
Validated: 33
EndChar

StartChar: nine
Encoding: 57 57 24
Width: 439
VWidth: 0
Flags: W
HStem: 434.846 19.2285<129.074 220.487> 781.324 19.2295<228.79 320.397>
VStem: 29.0547 24.249<507.234 603.797> 268.451 23.4141<6.00586 19.7217 20.8454 103.365> 313.055 24.249<208.39 513.465> 369.637 24.4658<697.448 747.263 768.636 780.842>
LayerCount: 2
Fore
SplineSet
367.154296875 747.262695312 m 1
 356.489257812 744.404296875 l 1
 342.520507812 765.844726562 302.399414062 785.37890625 265.610351562 781.32421875 c 0
 255.00390625 781.32421875 242.227539062 779.791992188 233.338867188 777.966796875 c 0
 136.069335938 745.459960938 53.3037109375 634.473632812 53.3037109375 539.7578125 c 0
 53.3037109375 535.323242188 54.001953125 528.768554688 54.44140625 526.18359375 c 0
 72.818359375 477.67578125 135.263671875 454.07421875 183.109375 454.07421875 c 0
 192.216796875 454.07421875 201.784179688 455.068359375 209.552734375 456.485351562 c 0
 254.698242188 472.44140625 288.864257812 510.458007812 313.9765625 556.827148438 c 0
 321.125 570.026367188 327.2890625 583.297851562 332.98046875 597.517578125 c 0
 340.680664062 629.936523438 349.046875 661.002929688 356.063476562 690.984375 c 0
 360.69140625 710.752929688 364.665039062 729.926757812 367.154296875 747.262695312 c 1
394.102539062 771.840820312 m 0
 394.041992188 745.837890625 390.807617188 713.728515625 383.95703125 679.838867188 c 0
 377.844726562 649.604492188 369.411132812 619.322265625 357.227539062 589.301757812 c 0
 353.739257812 574.69921875 350.658203125 560.997070312 347.771484375 546.514648438 c 0
 341.57421875 515.427734375 337.303710938 485.07421875 337.303710938 457.3984375 c 2
 337.303710938 289.837890625 l 2
 337.305664062 202.474609375 294.704101562 116.37109375 294.705078125 31.3984375 c 0
 294.704101562 22.8779296875 291.864257812 14.3583984375 291.865234375 5.837890625 c 1
 271.291015625 0.326171875 l 1
 268.451171875 6.005859375 l 1
 264.776367188 19.7216796875 l 1
 268.080078125 20.6083984375 l 2
 268.737304688 25.62109375 270.454101562 33.4794921875 270.456054688 39.6015625 c 0
 270.456054688 124.57421875 313.055664062 210.678710938 313.0546875 298.041992188 c 2
 313.055664062 465.6015625 l 2
 313.0546875 481.012695312 314.40234375 497.426757812 316.657226562 514.25390625 c 1
 292.234375 480.9609375 261.482421875 455.366210938 223.932617188 445.212890625 c 2
 203.359375 439.69921875 l 2
 191.6640625 436.538085938 179.2890625 434.845703125 166.2109375 434.845703125 c 0
 116.650390625 434.845703125 50.8896484375 460.8125 35.873046875 511.999023438 c 0
 35.6279296875 512.912109375 35.6279296875 512.912109375 35.6279296875 512.912109375 c 1
 35.3408203125 513.905273438 l 1
 31.6640625 527.62109375 l 2
 29.966796875 534.018554688 29.0546875 540.797851562 29.0546875 547.961914062 c 0
 29.0556640625 646.099609375 118.578125 761.999023438 219.012695312 789.1484375 c 2
 239.5859375 794.662109375 l 2
 253.75 798.490234375 268.131835938 800.553710938 282.509765625 800.553710938 c 0
 316.098632812 804.254882812 352.794921875 787.916992188 369.63671875 768.635742188 c 1
 369.76953125 772.82421875 369.854492188 777.283203125 369.854492188 780.841796875 c 2
 390.4296875 786.354492188 l 1
 394.104492188 772.637695312 l 2
 394.104492188 772.373046875 394.102539062 772.107421875 394.102539062 771.840820312 c 0
EndSplineSet
Validated: 33
EndChar

StartChar: colon
Encoding: 58 58 25
Width: 220
VWidth: 0
Flags: W
HStem: 263.258 12.459<110.466 133.956> 476.229 13.542<88.0698 111.136>
VStem: 65.4609 17.0771<197.304 212.944>
LayerCount: 2
Fore
SplineSet
103.950195312 285.770507812 m 2
 106.538085938 276.111328125 l 2
 106.53515625 276.111328125 105.125 273.293945312 103.103515625 269.251953125 c 1
 105.346679688 270.208984375 106.979492188 270.83203125 109.637695312 271.608398438 c 2
 109.637695312 271.608398438 110.096679688 271.736328125 110.465820312 271.833984375 c 2
 124.955078125 275.716796875 l 2
 135.995117188 278.622070312 146.220703125 276.4453125 150.198242188 261.606445312 c 2
 152.786132812 251.947265625 l 2
 153.913085938 247.7421875 154.538085938 242.521484375 154.538085938 236.111328125 c 2
 154.538085938 236.111328125 114.487304688 166.729492188 106.927734375 164.18359375 c 2
 92.439453125 160.30078125 l 2
 92.2978515625 160.25390625 92.16796875 160.229492188 92.0498046875 160.229492188 c 0
 83.3173828125 160.229492188 73.5302734375 175.12890625 69.705078125 189.153320312 c 2
 67.1171875 198.8125 l 2
 66.0625 202.681640625 65.4609375 206.484375 65.4609375 209.888671875 c 0
 66.4794921875 214.59765625 68.6474609375 220.544921875 71.5419921875 226.537109375 c 0
 72.078125 227.646484375 72.798828125 229.059570312 73.4619140625 230.315429688 c 2
 73.4609375 249.888671875 l 2
 73.4609375 251.697265625 73.87890625 254.6015625 74.650390625 257.940429688 c 0
 76.787109375 267.1875 81.6416015625 279.768554688 87.875 281.649414062 c 2
 102.364257812 285.53125 l 2
 102.883789062 285.688476562 103.412109375 285.770507812 103.950195312 285.770507812 c 2
105.712890625 556.111328125 m 1
 103.12109375 553.89453125 100.400390625 551.228515625 98.2470703125 548.796875 c 1
 101.283203125 548.484375 103.80859375 547.771484375 106.885742188 546.639648438 c 1
 106.633789062 548.678710938 106.119140625 552.833984375 105.712890625 556.111328125 c 1
113.595703125 239.228515625 m 1
 124.609375 245.05859375 137.322265625 251.26953125 136.767578125 252.509765625 c 0
 132.862304688 261.2421875 126.655273438 263.490234375 119.680664062 263.2578125 c 0
 116.131835938 261.706054688 112.015625 259.452148438 108.484375 257.298828125 c 1
 109.671875 257.598632812 108.703125 257.353515625 109.668945312 257.612304688 c 0
 113.311523438 258.534179688 120.849609375 255.828125 119.950195312 253.770507812 c 2
 113.595703125 239.228515625 l 1
119.869140625 577.274414062 m 0
 120.004882812 578.924804688 119.775390625 580.040039062 119.044921875 580.411132812 c 1
 119.377929688 577.758789062 119.250976562 578.765625 119.438476562 577.270507812 c 0
 119.58203125 577.270507812 119.725585938 577.274414062 119.869140625 577.274414062 c 0
110.505859375 516.001953125 m 1
 103.954101562 489.774414062 l 1
 103.954101562 489.774414062 106.095703125 489.771484375 106.950195312 489.771484375 c 0
 107.747070312 489.771484375 109.217773438 489.760742188 109.431640625 489.858398438 c 0
 115.143554688 492.467773438 113.217773438 503.862304688 110.505859375 516.001953125 c 1
108.447265625 525.053710938 m 2
 108.345703125 525.509765625 108.245117188 525.963867188 108.146484375 526.416015625 c 1
 107.754882812 526.171875 107.361328125 525.92578125 106.96484375 525.678710938 c 2
 106.950195312 521.771484375 l 1
 108.447265625 525.053710938 l 2
99.9462890625 521.31640625 m 1
 88.287109375 514.048828125 77.125 506.806640625 78.8388671875 504.625976562 c 0
 79.470703125 503.822265625 80.26171875 502.861328125 80.8291015625 502.228515625 c 0
 82.583984375 500.26953125 87.0771484375 496.352539062 87.0771484375 496.352539062 c 1
 99.9462890625 521.31640625 l 1
94.6494140625 534.333007812 m 1
 92.4775390625 534.372070312 90.4638671875 534.541992188 88.734375 534.887695312 c 0
 88.0478515625 533.591796875 90.6201171875 533.666015625 94.6494140625 534.333007812 c 1
100.049804688 208.228515625 m 1
 85.3173828125 213.139648438 l 2
 84.08203125 209.877929688 83.103515625 206.727539062 82.5380859375 204.111328125 c 0
 82.5380859375 202.40234375 82.9462890625 198.861328125 83.087890625 198.017578125 c 0
 86.5439453125 188.638671875 105 227 96.5576171875 176.892578125 c 1
 104.119140625 186.782226562 103.829101562 201.473632812 102.020507812 212.73828125 c 1
 100.049804688 208.228515625 l 1
100.049804688 208.228515625 m 1
 101.677734375 214.739257812 l 2
 100.803710938 219.541015625 99.7060546875 223.5703125 98.9384765625 226.107421875 c 0
 98.3828125 227.9453125 98 229 98 229 c 2
 98 230.200195312 101.735351562 232.669921875 106.887695312 235.580078125 c 1
 108.049804688 240.229492188 l 2
 108.397460938 241.620117188 104.870117188 243.083007812 104.379882812 243.345703125 c 0
 99.404296875 238.802734375 96.1552734375 234.2734375 92.60546875 228.21875 c 1
 100.049804688 208.228515625 l 1
114.950195312 601.775390625 m 2
 117.186523438 601.079101562 146.950195312 585.770507812 146.950195312 585.770507812 c 1
 149.538085938 576.111328125 l 2
 149.538085938 563.798828125 149.616210938 554.258789062 149.76953125 546.112304688 c 1
 154.314453125 547.330078125 l 2
 154.40234375 547.360351562 154.482421875 547.259765625 154.5546875 547.005859375 c 2
 157.142578125 537.346679688 l 2
 157.393554688 536.458984375 157.538085938 533.69921875 157.538085938 528.111328125 c 0
 157.538085938 508.229492188 139.638671875 486.984375 119.416015625 481.4765625 c 2
 104.927734375 477.594726562 l 2
 101.673828125 476.708007812 98.359375 476.229492188 95.0498046875 476.229492188 c 0
 81.08984375 476.229492188 67.4833984375 476.184570312 63.9384765625 486.375 c 0
 63.7666015625 487.01953125 63.7685546875 487.037109375 63.5498046875 487.666992188 c 2
 60.9677734375 497.333984375 l 2
 60.6357421875 498.686523438 60.4619140625 500.198242188 60.4619140625 501.888671875 c 0
 60.6298828125 503.212890625 60.8662109375 504.890625 61.0888671875 506.374023438 c 2
 60.8115234375 507.409179688 l 2
 60.583984375 508.25390625 60.4619140625 509.083984375 60.4609375 509.888671875 c 0
 60.4609375 522.99609375 62.6650390625 531.587890625 66.12890625 536.998046875 c 0
 68.123046875 540.112304688 70.541015625 542.17578125 73.1923828125 543.435546875 c 0
 74.125 545.015625 75.185546875 546.703125 76.1279296875 548.076171875 c 0
 81.1064453125 555.330078125 87.44140625 561.696289062 95.48046875 566.9765625 c 0
 97.8701171875 568.545898438 100.849609375 570.243164062 103.7734375 571.729492188 c 0
 103.522460938 573.743164062 103.270507812 575.767578125 103.036132812 577.641601562 c 0
 101.7109375 588.265625 100.61328125 596.9609375 100.46484375 597.888671875 c 2
 114.950195312 601.775390625 l 2
114.950195312 601.775390625 m 1
 115.912109375 601.775390625 114.8203125 602.430664062 114.950195312 601.775390625 c 1
EndSplineSet
Validated: 37
EndChar

StartChar: semicolon
Encoding: 59 59 26
Width: 207
VWidth: 0
Flags: W
VStem: 70 67<257.045 267 281.713 313.158> 70 14<265 269.492> 104 16<-8.125 69 78 108.333>
LayerCount: 2
Fore
SplineSet
84 265 m 2x40
 84 263.081043528 91.3647878827 266.685677968 98.1447157512 269.630843845 c 1
 97.576799611 270.458813164 97.0708609598 271.684388464 96.611773317 273.141178458 c 2
 101.765996883 274.330614665 l 2
 100.304170613 275.362657284 99 276.681328642 99 278 c 1
 98 277 98 276 97 276 c 2
 96 276 l 2
 95.9415970296 276 95.8831940591 276.003410907 95.8247910324 276.009834293 c 0
 95.3966700595 277.769307303 95.0100699819 279.672372906 94.6474911978 281.526536083 c 1
 93.9554458907 280.060063052 93.3601841216 278.461589322 93.4406072889 276.941624495 c 1
 93.2937381926 276.978429469 93.1468690963 277 93 277 c 0
 91 272 89 266 89 266 c 1
 84 265 l 2x40
116 240 m 0
 114 239 113 238 111 237 c 2
 110 236 l 1
 99 234 l 2
 98 234 97 233 96 233 c 0
 90 233 76 241 73 249 c 2
 71 257 l 2
 71 258 70 257 70 258 c 0
 70 270 72 277 76 281 c 1
 76 288 l 2
 76 296 91 316 99 318 c 2
 110 321 l 1
 111 321 l 2
 120 321 133 303 135 298 c 2
 137 290 l 2
 137 286 136 278 133 269 c 0
 134 268 135 267 135 267 c 1
 137 260 l 2x80
 137 255 135 244 132 242 c 2
 131 242 l 1
 121 239 l 1
 120 239 l 2x20
 119 239 117 239 116 240 c 0
122 279 m 1
 123 284 105 274 104 276 c 0x20
 102.238892853 278.641660721 102.610065845 277.018761164 103.065242361 274.630440545 c 2
 122 279 l 1
101 107 m 1
 116 111 l 2
 117 109 118 108 118 106 c 2
 120 96 l 2
 122 90 120 83 120 78 c 2
 123 69 l 1
 123 14 107 -28 99 -79 c 1
 84 -83 l 1
 76 -85 l 1
 64 -68 l 1
 84 -45 l 1x60
 101 1 105 19 105 73 c 1
 104 79 l 2
 102 85 104 91 104 97 c 2
 101 107 l 1
106 272 m 2
 105 272 105 273 104 273 c 0
 103.775024027 273.112487987 103.537394507 273.23762952 103.292804901 273.374001224 c 1
 103.761768667 270.565456988 103.912981825 267.543509106 101 269 c 0
 100.575418364 268.64618197 100.175874168 268.482648482 99.7988869758 268.482114746 c 2
 109 251 l 1
 107 258 l 2
 106 263 106 268 107 272 c 1
 106 272 l 2
93.4406072889 276.941624495 m 1
 93.5170722699 275.49646776 94.2043485503 274.122282156 96 273 c 2
 96.611773317 273.141178458 l 2
 96.3342350588 274.02187077 96.0738195481 274.987065657 95.8271846833 276 c 2
 95.8247910324 276.009834293 l 2
 95.0300630991 276.097241751 94.2353351658 276.742467942 93.4406072889 276.941624495 c 1
92.418982396 291 m 2
 91.9818754383 291.907698596 91.5211106414 292.042221283 91 291 c 2
 92.418982396 291 l 2
EndSplineSet
Validated: 5
EndChar

StartChar: less
Encoding: 60 60 27
Width: 390
VWidth: 0
Flags: W
VStem: 31.0498 306.253
LayerCount: 2
Fore
SplineSet
330.509765625 247.581054688 m 2
 334.950195312 248.770507812 l 2
 336.228515625 247.702148438 336.80078125 247.16015625 337.302734375 246.399414062 c 0
 337.302734375 246.396484375 337.395507812 246.216796875 337.419921875 246.100585938 c 2
 340.0078125 236.44140625 l 2
 340.036132812 236.30859375 340.056640625 236.28515625 339.923828125 236.112304688 c 0
 339.921875 236.112304688 339.8203125 236.047851562 339.6953125 236.021484375 c 2
 325.206054688 232.138671875 l 2
 323.154296875 231.700195312 311.912109375 236.836914062 307.049804688 239.229492188 c 0
 208.7734375 256.268554688 111.030273438 327.1875 31.0498046875 357.229492188 c 1
 28.4619140625 366.888671875 l 1
 28.4619140625 389.572265625 103.831054688 445.008789062 120.461914062 460.888671875 c 0
 162.608398438 501.131835938 206.936523438 544.791992188 248.4609375 584.888671875 c 1
 262.950195312 588.770507812 l 1
 265.538085938 579.111328125 l 1
 224.013671875 539.014648438 179.685546875 495.354492188 137.5390625 455.111328125 c 0
 122.53515625 440.78515625 59.8388671875 393.645507812 47.7197265625 368.939453125 c 1
 127.786132812 337.43359375 222.475585938 269.498046875 318.950195312 252.771484375 c 0
 321.602539062 251.465820312 326.439453125 249.228515625 330.509765625 247.581054688 c 2
EndSplineSet
Validated: 1
EndChar

StartChar: equal
Encoding: 61 61 28
Width: 528
VWidth: 0
Flags: W
HStem: 295.229 13.542<119.569 406.448> 301.229 9.65918<107.05 172.278> 469.229 13.541<117.05 381.739>
LayerCount: 2
Fore
SplineSet
104.461914062 310.888671875 m 1x60
 118.951171875 314.771484375 l 1
 131.4921875 312.329101562 185.09375 310.126953125 206.950195312 308.771484375 c 0
 267.373046875 305.021484375 320.91015625 306.770507812 378.950195312 306.770507812 c 0
 386.109375 307.944335938 397.1171875 310.106445312 402.278320312 311.3203125 c 0
 415.587890625 315.456054688 426.168945312 320.150390625 434.461914062 326.888671875 c 1
 448.950195312 330.770507812 l 1
 451.5390625 321.111328125 l 1
 442.139648438 313.474609375 428.620117188 308.028320312 414.0546875 303.998046875 c 0
 413.088867188 303.739257812 414.052734375 304.005859375 413.088867188 303.739257812 c 0
 412.126953125 303.477539062 412.107421875 303.46875 412.107421875 303.46875 c 1
 397.618164062 299.5859375 l 2
 387.524414062 296.895507812 377 294.860351562 367.049804688 293.228515625 c 0
 309.008789062 293.229492188 255.47265625 291.479492188 195.049804688 295.229492188 c 0xa0
 173.193359375 296.584960938 119.591796875 298.788085938 107.049804688 301.229492188 c 1
 104.461914062 310.888671875 l 1x60
114.461914062 474.888671875 m 1
 128.950195312 478.771484375 l 1
 270.950195312 482.770507812 l 1
 346.950195312 482.770507812 l 2
 367.754882812 482.770507812 382.525390625 480.05859375 398.950195312 478.770507812 c 1
 401.5390625 469.111328125 l 1
 397.538085938 467.111328125 l 1
 383.049804688 463.229492188 l 1
 382.40625 465.630859375 l 1
 368.165039062 466.997070312 353.825195312 469.229492188 335.049804688 469.228515625 c 2
 259.049804688 469.229492188 l 1
 117.049804688 465.229492188 l 1
 114.461914062 474.888671875 l 1
EndSplineSet
Validated: 33
EndChar

StartChar: greater
Encoding: 62 62 29
Width: 342
VWidth: 0
Flags: W
HStem: 235.99 327.178
VStem: 42.8789 248.623
LayerCount: 2
Fore
SplineSet
42.87890625 549.865234375 m 1
 40.4609375 558.888671875 l 2
 40.4365234375 558.9765625 40.4443359375 559.065429688 40.4443359375 559.065429688 c 2
 40.5224609375 559.237304688 40.5966796875 559.255859375 40.755859375 559.286132812 c 2
 55.2451171875 563.16796875 l 2
 59.8154296875 564.016601562 113.203125 538.1796875 128.950195312 536.770507812 c 1
 160.344726562 517.215820312 282.02734375 497.505859375 291.501953125 463.512695312 c 2
 294.090820312 453.853515625 l 2
 294.1640625 453.588867188 294.24609375 453.256835938 294.24609375 453.256835938 c 0
 296.342773438 443.958984375 290.619140625 434.263671875 273.538085938 423.111328125 c 1
 220.252929688 364.034179688 160.71484375 305.450195312 109.538085938 249.111328125 c 0
 106.452148438 246.7265625 106.02734375 246.609375 104.616210938 244.79296875 c 0
 102.450195312 241.411132812 101.333984375 239.928710938 101.166992188 239.872070312 c 2
 86.6787109375 235.990234375 l 1
 86.6787109375 235.990234375 88.36328125 231.700195312 86.646484375 235.999023438 c 2
 84.05859375 245.658203125 l 2
 83.951171875 245.927734375 87.001953125 250.669921875 92.4609375 254.888671875 c 0
 143.637695312 311.227539062 203.17578125 369.810546875 256.4609375 428.888671875 c 1
 270.774414062 438.233398438 277.025390625 446.39453125 277.580078125 454.608398438 c 1
 259.370117188 485.119140625 147.14453125 504.483398438 117.049804688 523.229492188 c 1
 102.177734375 524.560546875 52.25390625 547.9765625 42.87890625 549.865234375 c 1
EndSplineSet
Validated: 33
EndChar

StartChar: question
Encoding: 63 63 30
Width: 464
VWidth: 0
Flags: W
HStem: 6.78027 19.21<277.115 290.41> 789.87 9.04004<204.891 294.214>
VStem: 36.1602 15.8203<593.25 663.824> 241.82 16.9492<168.37 244.625> 259.9 16.9492<38.5984 48.5898> 409.06 20.3408<599.523 710.73>
LayerCount: 2
Fore
SplineSet
237.299804688 159.330078125 m 1
 235.040039062 168.370117188 l 2
 236.169921875 168.370117188 236.169921875 168.370117188 237.299804688 168.370117188 c 1
 236.169921875 218.08984375 231.650390625 297.190429688 218.08984375 352.559570312 c 0
 215.830078125 359.33984375 213.5703125 366.120117188 211.309570312 371.76953125 c 0
 211.309570312 372.900390625 211.309570312 371.76953125 211.309570312 372.900390625 c 0
 211.309570312 374.030273438 210.1796875 372.900390625 210.1796875 374.030273438 c 2
 207.919921875 385.330078125 l 2
 203.400390625 403.41015625 236.169921875 415.83984375 253.120117188 428.26953125 c 1
 348.040039062 467.8203125 409.059570312 565 409.059570312 667.830078125 c 0
 409.059570312 680.259765625 407.9296875 690.4296875 405.669921875 701.73046875 c 0
 385.330078125 766.139648438 318.66015625 789.870117188 242.950195312 789.870117188 c 0
 229.389648438 789.870117188 215.830078125 788.740234375 200.009765625 785.349609375 c 0
 125.4296875 762.75 51.98046875 698.33984375 51.98046875 622.629882812 c 0
 51.98046875 611.330078125 53.1103515625 601.16015625 54.240234375 593.25 c 1
 55.3701171875 593.25 l 1
 58.759765625 581.950195312 l 1
 57.6298828125 581.950195312 l 1
 41.8095703125 577.4296875 l 1
 41.8095703125 577.4296875 40.6796875 578.559570312 39.5498046875 581.950195312 c 2
 36.16015625 593.25 l 1
 36.16015625 594.379882812 l 2
 33.900390625 603.419921875 31.6396484375 615.849609375 31.6396484375 629.41015625 c 0
 31.6396484375 707.379882812 110.740234375 772.919921875 189.83984375 794.389648438 c 2
 205.66015625 798.91015625 l 1
 206.790039062 798.91015625 l 1
 224.870117188 803.4296875 240.690429688 805.690429688 256.509765625 805.690429688 c 0
 333.349609375 805.690429688 402.280273438 780.830078125 421.490234375 711.900390625 c 2
 423.75 701.73046875 l 2
 423.75 700.599609375 423.75 700.599609375 423.75 699.469726562 c 0
 427.139648438 688.169921875 429.400390625 675.740234375 429.400390625 661.049804688 c 0
 429.400390625 558.219726562 368.379882812 461.040039062 273.459960938 421.490234375 c 0
 256.509765625 410.190429688 228.259765625 398.889648438 227.129882812 383.0703125 c 0
 229.389648438 376.290039062 230.51953125 369.509765625 232.780273438 361.599609375 c 2
 236.169921875 351.4296875 l 1
 236.169921875 350.299804688 l 1
 250.860351562 296.059570312 255.379882812 216.959960938 256.509765625 166.110351562 c 1
 259.900390625 157.0703125 l 2
 257.639648438 153.6796875 257.639648438 152.549804688 257.639648438 152.549804688 c 1
 240.690429688 148.030273438 l 1
 237.299804688 159.330078125 l 1
261.030273438 6.7802734375 m 1
 251.990234375 4.51953125 250.860351562 3.3896484375 249.73046875 3.3896484375 c 2
 249.018645092 5.76212060699 l 1
 248.599609375 5.650390625 l 1
 245.209960938 16.9501953125 l 1
 241.8203125 30.509765625 l 1
 241.8203125 33.900390625 l 1
 258.76953125 38.419921875 l 1
 258.783551239 38.3731979994 l 2
 259.308060463 43.1899550801 259.900390625 47.1730823979 259.900390625 48.58984375 c 2
 276.849609375 53.1103515625 l 1
 280.240234375 41.8095703125 l 2
 280.240234375 39.5498046875 277.98046875 31.6396484375 276.849609375 22.599609375 c 1
 282.5 23.73046875 289.280273438 25.990234375 290.41015625 25.990234375 c 2
 293.799804688 14.6904296875 l 1
 289.280273438 10.169921875 285.889648438 7.91015625 283.629882812 6.7802734375 c 2
 282.5 6.7802734375 l 1
 266.6796875 2.259765625 l 2
 264.419921875 1.1298828125 262.16015625 3.3896484375 261.030273438 5.650390625 c 2
 261.030273438 6.7802734375 l 1
EndSplineSet
Validated: 33
EndChar

StartChar: at
Encoding: 64 64 31
Width: 560
VWidth: 0
Flags: W
HStem: 56 14<248.523 327.878> 224 13.7705<225.553 281.799> 350 14<443.267 481.354> 554.229 13.542<233.246 294.125> 647 14<288.94 374.137>
VStem: 19 18<265.499 385.903> 139.461 17.0771<317.913 442.988> 514 18<413.562 516>
LayerCount: 2
Fore
SplineSet
398 420 m 0
 399 418 401 416 402 414 c 0
 419 385 442 364 469 364 c 0
 470 364 472 364 472 364 c 0
 508 382 514 448 514 480 c 0
 514 489 513 500 511 508 c 0
 489 582 405 647 334 647 c 0
 314 647 294 645 276 640 c 0
 140 599 37 451 37 315 c 0
 37 300 39 285 42 271 c 0
 74 162 192 70 301 70 c 0
 312 71 323 73 333 75 c 0
 429 104 502 195 544 285 c 1
 559 289 l 1
 562 279 l 1
 519 188 443 94 343 67 c 2
 328 63 l 2
 316 60 303 57 289 56 c 0
 179 56 58 152 29 262 c 2
 26 271 l 2
 22 288 19 304 19 321 c 0
 19 459 127 611 266 648 c 2
 281 652 l 2
 302 658 324 661 346 661 c 0
 418 661 503 593 524 518 c 0
 524 517 524 518 524 517 c 0
 525 516 525 516 525 516 c 1
 527 507 l 2
 530 496 532 485 532 474 c 0
 532 441 524 367 483 356 c 2
 468 352 l 2
 465 351 461 350 457 350 c 0
 432 350 410 369 393 395 c 1
 378 326 342 248 284 231 c 2
 284 231 283 231 283 231 c 2
 268 227 l 2
 262 225 254 224 247 224 c 0
 193 224 162 268 149 315 c 0
 148 315 149 315 148 315 c 2
 148.286132812 316.087890625 l 1
 145.698242188 325.747070312 l 2
 141.508789062 341.381835938 139.4609375 357.27734375 139.4609375 371.888671875 c 0
 139.461914062 435.880859375 156.811523438 540.739257812 230.528320312 560.58984375 c 2
 245.016601562 564.47265625 l 2
 252.986328125 566.618164062 261.614257812 567.771484375 270.950195312 567.771484375 c 0
 310.77734375 567.770507812 325.666015625 549.198242188 349.475585938 532.158203125 c 1
 349.467773438 532.7421875 349.461914062 533.4140625 349.461914062 533.888671875 c 0
 349.461914062 536.674804688 347.880859375 538.331054688 349.231445312 539.420898438 c 2
 349.231445312 539.420898438 349.551757812 539.583007812 349.9375 539.677734375 c 2
 364.426757812 543.559570312 l 2
 365.000976562 543.700195312 365.815429688 543.770507812 366.950195312 543.770507812 c 0
 379.470703125 543.770507812 391.510742188 514.002929688 396.94140625 493.823242188 c 2
 399.529296875 484.1640625 l 2
 401.4453125 477.041992188 402.5390625 471.114257812 402.538085938 468.112304688 c 0
 402.538085938 465.806640625 402.494140625 463.28125 402.411132812 460.752929688 c 0
 402.950195312 459.771484375 402.624023438 460.364257812 402.950195312 459.770507812 c 2
 405.5390625 450.111328125 l 1
 401.754882812 449.09765625 l 1
 401.236328125 442.551757812 400.469726562 435.454101562 399.498046875 428.489257812 c 0
 399.123046875 425.79296875 399 423 398 420 c 0
351.620117188 509.607421875 m 0
 349.737304688 510.67578125 347.750976562 511.854492188 346.137695312 512.86328125 c 0
 316.861328125 531.162109375 303.41796875 554.229492188 259.049804688 554.229492188 c 0
 252.677734375 554.229492188 245.09375 553.431640625 240.596679688 552.61328125 c 0
 172.663085938 528.043945312 156.5390625 427.997070312 156.538085938 366.111328125 c 0
 156.538085938 353.075195312 158.3359375 338.36328125 161.543945312 324.827148438 c 0
 174.838867188 279.889648438 206.673828125 237.770507812 258.950195312 237.770507812 c 0
 263.763671875 237.770507812 268.913085938 238.272460938 273.09375 238.970703125 c 0
 330.872070312 260.057617188 365.49609375 344.028320312 378.94140625 413.41796875 c 0
 379.263671875 415.08203125 379.607421875 416.92578125 379.922851562 418.665039062 c 0
 379.481445312 419.5703125 379.146484375 420.270507812 378.715820312 421.182617188 c 0
 370.948242188 437.59765625 364.748046875 455.120117188 360.287109375 471.716796875 c 2
 357.69921875 481.375976562 l 2
 356.274414062 486.677734375 355.02734375 491.884765625 353.963867188 496.931640625 c 0
 353.038085938 501.319335938 352.263671875 505.506835938 351.620117188 509.607421875 c 0
366.6796875 522.49609375 m 2
 366.060546875 523.370117188 366.686523438 522.418945312 366.686523438 522.418945312 c 1
 366.6796875 522.49609375 l 2
384.8671875 457.471679688 m 2
 375.020507812 475.373046875 l 2
 377.5859375 466.93359375 380.716796875 458.04296875 384.202148438 449.372070312 c 1
 384.463867188 452.114257812 384.68359375 454.813476562 384.8671875 457.471679688 c 2
EndSplineSet
Validated: 1
EndChar

StartChar: A
Encoding: 65 65 32
Width: 499
VWidth: 0
Flags: W
HStem: 286.776 13.7109<60.001 91.2227 125.77 200.598> 779.998 20G<333.136 353.987>
VStem: 5.22363 24.2422<1.96561 58.0625> 445.087 23.0156<132.447 355.478 373.09 408.205>
LayerCount: 2
Fore
SplineSet
8.8984375 -2.810546875 m 1
 5.2236328125 10.9013671875 l 2
 3.693359375 18 4.7138671875 25.0966796875 5.2236328125 32.1943359375 c 0
 5.2236328125 46.837890625 7.6318359375 52.0771484375 9.4814453125 66.263671875 c 2
 91.22265625 287.643554688 l 1
 60.0009765625 286.776367188 l 1
 56.3271484375 300.487304688 l 1
 76.8955078125 305.998046875 l 1
 98.2177734375 306.590820312 l 1
 111.689453125 343.07421875 l 1
 256.482421875 675.24609375 l 1
 333.135742188 794.487304688 l 1
 353.705078125 799.998046875 l 1
 353.987304688 799 l 0
 354.552734375 797 l 0
 354.834960938 796 l 0
 464.428710938 408.205078125 l 1
 468.102539062 394.493164062 l 1
 476.577148438 68.18359375 l 1
 485.721679688 37.705078125 l 1
 489.395507812 23.9931640625 l 1
 468.828125 18.482421875 l 1
 456.052734375 61.0693359375 l 1
 452.37890625 74.78125 l 1
 445.086914062 355.477539062 l 1
 382.931640625 330.616210938 l 1
 362.36328125 325.103515625 l 1
 213.310546875 291.034179688 l 1
 118.775390625 288.409179688 l 1
 33.7236328125 58.0625 l 2
 31.8740234375 43.876953125 29.4658203125 38.63671875 29.4638671875 23.9931640625 c 0
 28.9560546875 16.896484375 27.935546875 9.7978515625 29.4658203125 2.7001953125 c 1
 15.1318359375 -1.1396484375 l 0
 8.8984375 -2.810546875 l 1
444.629882812 373.08984375 m 1
 443.880859375 401.912109375 l 1
 342.009765625 762.37890625 l 1
 280.72265625 667.044921875 l 1
 232.368164062 556.517578125 187.282226562 438.881835938 135.931640625 334.873046875 c 1
 125.76953125 307.35546875 l 1
 230.204101562 310.256835938 l 1
 363.4140625 340.705078125 l 1
 443.861328125 372.884765625 l 1
 444.629882812 373.08984375 l 1
EndSplineSet
Validated: 1
EndChar

StartChar: B
Encoding: 66 66 33
Width: 367
VWidth: 0
Flags: W
HStem: -50.8828 12.3594<-24.4375 76.2188> 348.229 15.1104<61.5684 99.8271> 758.966 12.8174<39.1427 48.8606>
VStem: 38.9873 22.5811<363.339 529.129> 49.0146 21.8477<526.428 756.818> 315.592 20.4141<507.047 628.175> 325.36 21.8486<118.563 193.232>
LayerCount: 2
Fore
SplineSet
40.810546875 758.965820312 m 1xe8
 37.4990234375 771.323242188 l 2
 37.9599609375 771.509765625 38.40234375 771.662109375 38.828125 771.783203125 c 2
 57.3642578125 776.75 l 2
 57.7919921875 776.87109375 58.2958984375 776.974609375 58.2958984375 776.974609375 c 2
 62.9580078125 777.672851562 65.0341796875 774.903320312 66.298828125 770.205078125 c 2
 69.609375 757.84765625 l 2
 69.73046875 757.3984375 69.865234375 756.818359375 69.865234375 756.818359375 c 2
 72.736328125 743.231445312 68.970703125 719.6953125 70.8623046875 706.360351562 c 0xe8
 74.3515625 681.763671875 75.908203125 656.54296875 76.2119140625 631 c 0
 77.16015625 551.2890625 65.9140625 468.438476562 63.185546875 391.6328125 c 2
 61.568359375 363.338867188 l 1
 67.232421875 364.2421875 74.4755859375 365.125976562 80.9541015625 365.515625 c 2
 133.454101562 379.833007812 l 1
 214.053710938 410.538085938 l 1
 279.301757812 456.596679688 l 1
 310.212890625 495.782226562 313.793945312 534.595703125 317.682617188 583.254882812 c 0
 318.634765625 595.15625 317.795898438 606.772460938 315.591796875 617.188476562 c 0
 296.09375 676.469726562 230.256835938 717.961914062 178.984375 751.290039062 c 1
 152.041992188 776.993164062 113.088867188 784.872070312 75.3544921875 781.995117188 c 0
 69.0703125 783.251953125 62.9306640625 783.020507812 54.1630859375 781.634765625 c 0
 49.7880859375 779.9296875 44.732421875 777.228515625 43.994140625 775.446289062 c 2
 25.4580078125 770.48046875 l 1
 22.146484375 782.837890625 l 2
 23.24609375 785.487304688 31.5703125 789.374023438 41.841796875 792.061523438 c 2
 60.37890625 797.02734375 l 2
 70.2041015625 799.598632812 81.8115234375 801.073242188 90.5810546875 799.3203125 c 0
 128.314453125 802.197265625 167.267578125 794.318359375 194.209960938 768.615234375 c 1
 247.170898438 734.189453125 315.734375 691.881835938 332.694335938 628.174804688 c 2
 336.005859375 615.81640625 l 2xf4
 339.32421875 603.352539062 340.666992188 590.067382812 339.53125 575.86328125 c 0
 335.641601562 527.206054688 332.061523438 488.390625 301.149414062 449.205078125 c 1
 235.901367188 403.147460938 l 1
 155.301757812 372.442382812 l 1
 115.997070312 361.72265625 l 1
 133.703125 358.395507812 150.083984375 353.280273438 167.341796875 346.41796875 c 0
 221.340820312 322.48828125 275.444335938 300.659179688 309.353515625 254.302734375 c 0
 321.845703125 237.224609375 333.405273438 218.037109375 339.465820312 195.572265625 c 2
 342.77734375 183.21484375 l 1
 342.77734375 183.21484375 342.779296875 183.190429688 343.000976562 182.34765625 c 0
 343.211914062 181.522460938 343.000976562 182.34765625 343.221679688 181.524414062 c 0
 345.751953125 171.624023438 347.208984375 161.092773438 347.208984375 149.830078125 c 0
 337.891601562 88.8916015625 307.751953125 65.7421875 266.606445312 34.685546875 c 0
 239.142578125 13.9541015625 219.62109375 -0.5400390625 193.68359375 -19.0478515625 c 1
 175.145507812 -24.0146484375 l 1
 83.029296875 -47.04296875 l 1
 -24.4375 -50.8828125 l 1
 -27.7490234375 -38.5234375 l 1
 -9.2119140625 -33.5576171875 l 1
 98.255859375 -29.7177734375 l 1
 172.551757812 -11.14453125 l 1
 197.176757812 6.4404296875 217.51171875 21.509765625 244.758789062 42.0771484375 c 0
 285.903320312 73.1337890625 316.043945312 96.283203125 325.360351562 157.221679688 c 0
 325.360351562 166.83203125 324.477539062 174.836914062 322.489257812 184.186523438 c 0
 316.555664062 202.78125 305.515625 221.411132812 294.127929688 236.977539062 c 0
 260.219726562 283.334960938 206.116210938 305.163085938 152.1171875 329.094726562 c 0
 128.747070312 338.385742188 108.209960938 344.244140625 82.498046875 347.043945312 c 0
 77.7509765625 347.561523438 72.828125 347.973632812 67.677734375 348.28515625 c 2
 66.4423828125 348.228515625 l 1
 60.6162109375 346.66796875 l 1
 47.833984375 122.962890625 l 1
 43.994140625 76.9052734375 l 1
 25.45703125 71.9384765625 l 1
 22.146484375 84.296875 l 1
 25.9853515625 130.354492188 l 1
 38.16015625 343.408203125 l 2
 36.9462890625 343.415039062 36.3896484375 343.510742188 36.3720703125 343.671875 c 2
 33.060546875 356.030273438 l 2
 33.041015625 356.213867188 33.720703125 356.481445312 34.9267578125 356.798828125 c 2
 38.9873046875 357.88671875 l 1xf2
 41.3369140625 399.022460938 l 2
 44.9404296875 500.442382812 63.3935546875 612.399414062 49.0146484375 713.751953125 c 0
 47.4150390625 725.021484375 49.837890625 743.712890625 48.90625 757.606445312 c 0
 47.94140625 758.760742188 46.4091796875 759.946289062 43.7060546875 759.7421875 c 2
 40.810546875 758.965820312 l 1xe8
EndSplineSet
Validated: 33
EndChar

StartChar: C
Encoding: 67 67 34
Width: 626
VWidth: 0
Flags: W
HStem: 0.314453 18.5488<255.718 383.969> 781.137 18.5488<303.938 402.636>
VStem: -1.45117 23.3936<293.809 477.283>
LayerCount: 2
Fore
SplineSet
515.09375 708.372070312 m 1
 495.24609375 703.053710938 l 1
 463.95703125 737.358398438 409.854492188 785.543945312 351.409179688 781.13671875 c 0
 334.923828125 781.13671875 316.1484375 778.736328125 301.71875 775.484375 c 0
 150.2734375 727.930664062 21.9443359375 541.4375 21.9423828125 400.15234375 c 0
 21.9423828125 354.397460938 27.72265625 306.560546875 38.5771484375 263.63671875 c 0
 76.6630859375 128.875 169.854492188 18.86328125 326.6171875 18.86328125 c 0
 351.120117188 18.86328125 374.2890625 21.9736328125 393.661132812 26.4140625 c 0
 457.809570312 45.8251953125 509.177734375 83.9599609375 578.000976562 108.065429688 c 1
 602.659179688 157.380859375 l 1
 622.506835938 162.69921875 l 1
 626.051757812 149.467773438 l 1
 601.39453125 100.15234375 l 1
 529.30859375 74.9033203125 478.673828125 35.380859375 408.62890625 16.0673828125 c 2
 408.62890625 16.0673828125 407.583007812 15.7841796875 406.740234375 15.5595703125 c 2
 386.893554688 10.240234375 l 2
 363.75390625 4.0732421875 338.6875 0.314453125 310.314453125 0.314453125 c 0
 151.129882812 0.314453125 57.5224609375 113.685546875 20.5380859375 251.385742188 c 2
 16.9931640625 264.6171875 l 2
 4.5849609375 310.815429688 -1.451171875 359.75390625 -1.451171875 408.065429688 c 0
 -1.44921875 552.493164062 133.3203125 744.448242188 287.8125 786.153320312 c 2
 307.659179688 791.471679688 l 2
 327.43359375 796.809570312 347.532226562 799.685546875 367.712890625 799.685546875 c 0
 426.158203125 804.09375 480.259765625 755.909179688 511.547851562 721.603515625 c 1
 515.09375 708.372070312 l 1
EndSplineSet
Validated: 33
EndChar

StartChar: D
Encoding: 68 68 35
Width: 513
VWidth: 0
Flags: W
HStem: 0 18.8672<59.9727 63.0371 63.0381 180.374> 779.824 20G<45.8447 144.806>
VStem: 54.0664 23.3975<188.059 522.059> 469.207 23.3975<261.713 463.032>
LayerCount: 2
Fore
SplineSet
59.97265625 22.763671875 m 1
 77.1005859375 21.287109375 82.9189453125 20.6787109375 83.9599609375 19.6376953125 c 0
 88.4326171875 19.673828125 96.482421875 18.8671875 106.799804688 18.8671875 c 0
 143.73046875 18.8671875 180.10546875 23.2314453125 215.556640625 31.849609375 c 0
 355.479492188 72.890625 469.206054688 182.174804688 469.20703125 342.372070312 c 1
 474.883789062 385.219726562 472.334960938 424.541992188 462.732421875 463.918945312 c 0
 411.557617188 640.365234375 216.229492188 762.859375 61.1220703125 780.158203125 c 1
 61.2744140625 779.870117188 61.4287109375 779.575195312 61.5859375 779.272460938 c 2
 65.1328125 766.038085938 l 1
 57.19921875 763.9140625 l 1
 58.849609375 749.793945312 62.7705078125 729.811523438 61.021484375 724.935546875 c 0
 35.29296875 653.19140625 77.462890625 492.28515625 77.4638671875 412.552734375 c 2
 77.4638671875 285.134765625 l 1
 59.97265625 22.763671875 l 1
45.8447265625 794.505859375 m 1
 65.6962890625 799.82421875 l 1
 223.915039062 787.489257812 430.971679688 661.78125 480.836914062 476.032226562 c 2
 484.379882812 462.8125 l 1
 484.321289062 463.036132812 l 2
 484.340820312 462.95703125 484.379882812 462.8828125 484.379882812 462.8125 c 0
 484.568359375 462.092773438 484.657226562 461.759765625 484.872070312 460.956054688 c 0
 495.265625 421.331054688 498.504882812 378.993164062 492.604492188 334.45703125 c 1
 492.603515625 170.889648438 374.467773438 59.951171875 228.6015625 21.0380859375 c 2
 208.75 15.71875 l 2
 170.684570312 5.5634765625 130.73046875 0.3134765625 90.4951171875 0.3134765625 c 0
 69.880859375 0.3134765625 65.1884765625 0 64.39453125 0 c 0
 64.373046875 0 63.037109375 0.1630859375 63.037109375 0.1630859375 c 2
 63.0254727374 0.1630859375 63.0139110923 0.163819595914 63.0023828767 0.163819595914 c 0
 62.9949190716 0.163819595914 62.9874552664 0.164292653987 62.9799914613 0.164292653987 c 1
 63.0004589168 0.164292653987 63.0215865173 0.1630859375 63.037109375 0.1630859375 c 1
 63.0255338756 0.1630859375 63.0139583761 0.163819595914 63.0023828767 0.163819595914 c 0
 62.9723101587 0.163819595914 62.9424649249 0.1669921875 62.912109375 0.1669921875 c 2
 62.912109375 0.1669921875 62.945090682 0.164292653987 62.9799914613 0.164292653987 c 1
 62.9528068075 0.164292653987 62.9256221538 0.166015625 62.8984375 0.166015625 c 0
 62.861328125 0.166015625 62.8388671875 0.166015625 62.828125 0.166015625 c 1
 63.81640625 1.291015625 61.830078125 2.0966796875 58.634765625 2.6943359375 c 2
 57.466796875 -14.818359375 l 1
 60.78125 -27.1865234375 l 2
 60.787109375 -27.2724609375 60.7470703125 -27.3173828125 60.6669921875 -27.326171875 c 2
 40.81640625 -32.64453125 l 2
 40.140625 -32.7109375 36.650390625 -30.1123046875 36.009765625 -27.4638671875 c 2
 32.4619140625 -14.2294921875 l 2
 32.1982421875 -13.138671875 32.619140625 -11.869140625 33.8046875 -10.8681640625 c 2
 34.9619140625 6.494140625 l 1
 -69.80859375 41.4169921875 l 1
 -73.353515625 54.6513671875 l 1
 -53.501953125 59.9697265625 l 1
 36.525390625 29.9599609375 l 1
 54.06640625 293.048828125 l 1
 54.06640625 420.467773438 l 2
 54.06640625 500.200195312 11.896484375 661.106445312 37.6240234375 732.850585938 c 0
 40.154296875 739.903320312 30.2763671875 781.25 34.099609375 784.07421875 c 2
 34.099609375 784.07421875 34.2177734375 784.134765625 34.3232421875 784.153320312 c 2
 47.66015625 787.727539062 l 1
 45.8447265625 794.505859375 l 1
EndSplineSet
Validated: 37
EndChar

StartChar: E
Encoding: 69 69 36
Width: 490
VWidth: 0
Flags: W
HStem: -11.5459 17.8262<154.514 429.871> 359.707 17.8262<115.993 304.116> 375.505 17.8262<331.02 376.647> 397.028 20G<58.8828 72.3975> 780.13 20G<43.6846 66.166>
VStem: 27.8867 22.4814<26.4945 355.785> 35.7852 22.4824<180.212 384.758 415.989 744.15> 43.6846 22.4121<438.039 773.954 783.885 795.02>
LayerCount: 2
Fore
SplineSet
62.759765625 800.129882812 m 1xd9
 66.166015625 787.413085938 l 1
 66.0966796875 783.884765625 l 1
 82.5068359375 788.28125 l 1
 101.948242188 771.095703125 199.899414062 760.142578125 244.436523438 752.736328125 c 2
 469.557617188 736.9375 l 1
 472.96484375 724.221679688 l 1
 453.890625 719.111328125 l 1
 228.76953125 734.909179688 l 2
 184.231445312 742.314453125 86.28125 753.26953125 66.83984375 770.455078125 c 1
 65.9033203125 773.954101562 l 1
 58.8828125 415.989257812 l 1
 62.759765625 417.028320312 l 1
 82.03515625 374.24609375 169.602539062 386.16015625 216.790039062 377.533203125 c 1
 276.032226562 377.533203125 l 1xd9
 374.771484375 393.331054688 l 1
 378.177734375 380.615234375 l 1
 359.103515625 375.504882812 l 1xb9
 260.365234375 359.70703125 l 1
 201.123046875 359.70703125 l 1
 160.263671875 367.17578125 89.1318359375 359.245117188 58.271484375 384.7578125 c 1
 58.271484375 384.693359375 58.267578125 384.62890625 58.267578125 384.564453125 c 2xda
 50.3701171875 131.796875 l 1
 50.3681640625 28.9267578125 l 1
 139.5546875 1.90234375 239.724609375 9.9189453125 335.275390625 6.2802734375 c 0
 347.666992188 5.80859375 389.076171875 1.03515625 416.63671875 4.4326171875 c 0
 419.149414062 5.703125 421.298828125 7.265625 422.8359375 9.0693359375 c 2
 446.534179688 28.81640625 l 1
 465.609375 33.9267578125 l 1
 469.016601562 21.2109375 l 1
 445.318359375 1.462890625 l 2
 442.400390625 -1.9609375 437.45703125 -4.404296875 431.232421875 -6.1103515625 c 2
 412.158203125 -11.220703125 l 2
 385.068359375 -18.6455078125 333.7265625 -12.083984375 319.608398438 -11.5458984375 c 0
 222.838867188 -7.861328125 121.325195312 -16.130859375 31.294921875 12.150390625 c 1
 27.88671875 24.8671875 l 1xdc
 27.8876953125 139.40234375 l 1
 35.78515625 392.170898438 l 1xda
 43.6845703125 795.01953125 l 1
 62.759765625 800.129882812 l 1xd9
EndSplineSet
Validated: 33
EndChar

StartChar: F
Encoding: 70 70 37
Width: 402
VWidth: 0
Flags: W
HStem: -15.7832 18.9961<13.6562 15.4834> 396.918 14.0381<57.0635 285.827> 405.732 12.2656<150.241 318.113> 780.108 20G<84.6543 102.538> 782.62 14.0049<102.954 413.149>
VStem: 13.5137 20.0234<-8.38184 3.21289 3.71973 11.0664>
LayerCount: 2
Fore
SplineSet
102.954101562 782.620117188 m 1x8c
 57.0634765625 408.864257812 l 1
 71.962890625 410.956054688 l 1xcc
 302.87109375 417.998046875 l 1
 317.24609375 419.770507812 l 1
 318.875 408.17578125 l 1
 301.483398438 405.732421875 l 1xa4
 287.108398438 403.95703125 l 1
 56.19921875 396.91796875 l 1
 55.876953125 399.2109375 l 1
 51.4501953125 363.149414062 l 2
 48.228515625 305.829101562 43.484375 248.516601562 40.93359375 191.0234375 c 0
 38.2822265625 131.2890625 43.8203125 70.4130859375 36.5322265625 11.06640625 c 2
 33.537109375 -13.3388671875 l 1
 16.142578125 -15.783203125 l 1
 13.513671875 -8.3818359375 l 1
 11.884765625 3.212890625 l 2
 13.04296875 3.376953125 14.32421875 3.556640625 15.4833984375 3.7197265625 c 2
 17.509765625 20.21875 l 2
 24.7978515625 79.5634765625 19.259765625 140.440429688 21.9111328125 200.173828125 c 0
 24.4609375 257.666992188 29.205078125 314.978515625 32.4267578125 372.301757812 c 2
 84.2265625 794.177734375 l 1
 84.654296875 797.6640625 l 1
 102.048828125 800.108398438 l 1xd4
 102.538085938 796.625 l 1
 413.149414062 797.302734375 l 1
 414.779296875 785.705078125 l 1
 397.385742188 783.262695312 l 1
 102.954101562 782.620117188 l 1x8c
EndSplineSet
Validated: 33
EndChar

StartChar: G
Encoding: 71 71 38
Width: 654
VWidth: 0
Flags: W
HStem: 0.739258 18.9238<200.34 352.875> 382.257 27.3086<236.629 263.877 264.783 285.737 298.314 517.373> 382.283 18.8975<301.18 553.069> 390.643 13.498<231.234 247.865> 776.477 16.459<352.393 457.921>
VStem: 5.41504 23.8662<151.483 301.624> 482.784 20.248<750.554 758.703> 588.172 23.8652<1.97168 119.462 145.849 177.742> 609.136 23.8652<217.047 270.117>
LayerCount: 2
Fore
SplineSet
503.032226562 752.4296875 m 1xaf
 482.784179688 747.004882812 l 1
 468.8359375 771.844726562 425.508789062 784.393554688 386.35546875 780.544921875 c 0
 373.39453125 780.544921875 358.782226562 778.805664062 347.7734375 776.4765625 c 0
 157.337890625 714.466796875 29.28125 367.465820312 29.28125 203.211914062 c 0
 29.28125 187.854492188 31.298828125 171.397460938 33.951171875 159.604492188 c 0
 66.234375 57.841796875 181.301757812 19.6630859375 285.59765625 19.6630859375 c 0
 316.116210938 19.6630859375 354.379882812 24.693359375 392.0703125 33.986328125 c 0
 468.703125 56.0693359375 547.106445312 96.9736328125 585.29296875 156.854492188 c 1
 583.98046875 223.86328125 l 1
 575.154296875 269.094726562 l 1
 575.01953125 269.059570312 l 1
 571.403320312 282.55859375 l 1
 572.427734375 283.0703125 l 1
 553.069335938 382.283203125 l 1xaf
 318.375976562 388.379882812 l 1
 318.563476562 387.681640625 l 1
 298.314453125 382.256835938 l 2
 293.07421875 382.256835938 288.879882812 382.255859375 285.737304688 382.256835938 c 0xcf
 277.721679688 382.256835938 264.7734375 386.44921875 264.7734375 386.44921875 c 1
 263.876953125 389.794921875 l 1
 231.234375 390.642578125 l 1
 227.618164062 404.140625 l 1x9f
 247.865234375 409.565429688 l 1xcf
 570.6875 401.180664062 l 1
 574.305664062 387.681640625 l 1
 592.93359375 292.219726562 l 1
 608.419921875 296.368164062 l 2
 617.57421875 296.368164062 622.731445312 288.959960938 625.63671875 279.251953125 c 0
 625.877929688 278.352539062 625.927734375 278.185546875 626.1953125 277.29296875 c 2
 626.171875 277.344726562 l 1
 629.788085938 263.846679688 l 2
 632.91796875 251.930664062 633.000976562 237.208984375 633.000976562 228.368164062 c 0xae80
 633.000976562 198.873046875 624.202148438 172.338867188 609.16015625 148.749023438 c 1
 612.037109375 1.9716796875 l 1
 591.790039062 -3.4541015625 l 1
 588.171875 10.044921875 l 1
 586.026367188 119.461914062 l 1
 541.836914062 73.0849609375 472.670898438 41.029296875 405.983398438 23.1416015625 c 2
 385.736328125 17.716796875 l 2
 343.490234375 6.3857421875 302.241210938 0.7392578125 268.966796875 0.7392578125 c 0
 162.8828125 0.7392578125 45.1025390625 41.0322265625 15.8720703125 145.583007812 c 0
 15.630859375 146.482421875 15.8818359375 145.5859375 15.630859375 146.482421875 c 2
 15.3486328125 147.49609375 l 1
 11.7314453125 160.995117188 l 2
 7.625 176.36328125 5.4150390625 193.1015625 5.4150390625 211.286132812 c 0
 5.4150390625 378.435546875 138.198242188 734.930664062 333.887695312 787.510742188 c 2
 354.135742188 792.935546875 l 2
 370.018554688 797.203125 386.314453125 799.46875 402.98828125 799.46875 c 0
 442.139648438 803.318359375 485.466796875 790.767578125 499.415039062 765.928710938 c 1
 503.032226562 752.4296875 l 1xaf
607.73828125 216.341796875 m 2
 608.659179688 222.881835938 609.135742188 229.58203125 609.135742188 236.440429688 c 0x8e80
 609.135742188 243.573242188 608.961914062 254.708984375 607.409179688 264.840820312 c 0
 605.23828125 270.05859375 600.927734375 274.6875 598.256835938 275.978515625 c 2
 596.29296875 274.99609375 l 1
 607.73828125 216.341796875 l 2
EndSplineSet
Validated: 33
EndChar

StartChar: H
Encoding: 72 72 39
Width: 444
VWidth: 0
Flags: W
HStem: 388.897 20.0303<34.134 51.6064 77.4092 389.899 416.553 425.743> 771.812 14.2871<376.539 381.37> 777.872 22.0947<59.6514 67.9763>
VStem: 36.0166 25.2588<627.039 777.872 784.801 794.179> 52.5908 24.8184<268.362 389.117 409.229 541.435> 75.3438 21.4316<-0.27832 125.436> 351.066 21.4307<693.035 769.491 786.099 789.231> 403.704 21.4307<-10.459 -3.73926 1.37683 23.6914>
LayerCount: 2
Fore
SplineSet
59.6513671875 777.872070312 m 1xb3
 61.275390625 771.811523438 l 1
 61.275390625 714.126953125 l 1xd3
 76.42578125 409.228515625 l 1
 389.899414062 413.248046875 l 1
 377.688476562 531.868164062 l 2
 369.879882812 606.920898438 352.741210938 723.23046875 351.1796875 781.248046875 c 1
 351.11328125 780.697265625 351.064453125 780.356445312 351.064453125 780.356445312 c 1
 351.06640625 789.231445312 l 1
 372.497070312 794.97265625 l 1
 374.875 786.098632812 l 1
 381.370117188 786.098632812 l 1
 385.198242188 771.811523438 l 1
 376.5390625 769.491210938 l 1
 378.6796875 710.283203125 395.295898438 596.854492188 402.947265625 523.322265625 c 2
 414.530273438 410.796875 l 1
 425.743164062 408.927734375 l 1
 429.571289062 394.640625 l 1
 416.552734375 391.15234375 l 1
 434.0078125 221.5859375 l 1
 429.571289062 88.466796875 l 1
 420.904296875 -2.533203125 l 1
 421.307617188 -3.7392578125 l 1
 425.134765625 -18.0283203125 l 1
 403.704101562 -23.76953125 l 1
 399.265625 -10.458984375 l 1
 395.4375 3.828125 l 1
 404.3125 97.0126953125 l 1
 408.749023438 230.131835938 l 1
 392.130859375 391.567382812 l 1
 381.517578125 393.336914062 l 1
 77.4091796875 389.436523438 l 1xcb
 96.775390625 -0.2783203125 l 1
 75.34375 -6.0205078125 l 1xc7
 71.5166015625 8.2666015625 l 1
 52.5908203125 389.1171875 l 1xcb
 35.408203125 388.897460938 l 1
 26.533203125 388.899414062 l 1
 22.7060546875 403.186523438 l 1
 44.13671875 408.9296875 l 2
 46.626953125 408.9296875 49.1171875 408.927734375 51.6064453125 408.927734375 c 2
 36.0166015625 722.671875 l 1
 36.0166015625 776.01953125 l 1
 33.7685546875 784.408203125 l 2
 32.552734375 789.086914062 35.83984375 793.317382812 39.1708984375 794.223632812 c 2
 60.6015625 799.966796875 l 2
 62.8232421875 800.5703125 65.0634765625 799.696289062 66.0029296875 796.491210938 c 2
 69.830078125 782.204101562 l 2
 69.96484375 781.74609375 70.0732421875 781.240234375 70.1494140625 780.685546875 c 2
 59.6513671875 777.872070312 l 1xb3
EndSplineSet
Validated: 1
EndChar

StartChar: I
Encoding: 73 73 40
Width: 322
VWidth: 0
Flags: W
HStem: -0.705078 21G<137.654 162.244> 8.26562 14.4385<19.5059 127.576> 777.618 20.3057<10.5381 128.326 153.562 292.498>
VStem: 128.326 25.2363<579.281 777.198> 136.717 25.5273<5.09863 10.2344 32.8037 512.331>
LayerCount: 2
Fore
SplineSet
135.828125 32.8037109375 m 2x68
 136.716796875 49.6103515625 l 2x68
 136.716796875 57.1220703125 136.571289062 58.8369140625 136.65625 58.962890625 c 0
 138.099609375 59.349609375 138.3359375 59.703125 139.005859375 60.703125 c 2
 139.005859375 60.703125 139.766601562 62.291015625 141.200195312 67.5478515625 c 2
 141.200195312 412.846679688 l 1
 128.326171875 777.618164062 l 1
 10.5380859375 779.58203125 l 1
 6.669921875 794.020507812 l 1
 28.328125 799.82421875 l 1
 142.317382812 797.923828125 l 1
 149.405273438 799.823242188 l 1
 149.948242188 797.796875 l 1
 297.390625 795.338867188 l 1
 315.328125 790.854492188 l 1
 319.196289062 776.416015625 l 1
 297.540039062 770.61328125 l 1
 279.6015625 775.09765625 l 1
 153.5625 777.198242188 l 1x70
 166.727539062 404.2109375 l 1
 166.727539062 58.912109375 l 2
 164.698242188 51.474609375 163.551757812 49.8056640625 162.916015625 49.69921875 c 0
 161.575195312 49.33984375 162.244140625 46.3662109375 162.244140625 40.974609375 c 2
 162.244140625 30.58984375 l 1
 306.359375 32.990234375 l 1
 310.229492188 18.5517578125 l 1
 288.571289062 12.75 l 1
 162.244140625 10.64453125 l 1
 162.244140625 5.0986328125 l 1
 140.5859375 -0.705078125 l 1xa8
 137.654296875 10.234375 l 1
 19.505859375 8.265625 l 1
 15.63671875 22.7041015625 l 1
 37.2958984375 28.505859375 l 1
 132.626953125 30.095703125 l 1
 132.232421875 31.6728515625 l 2
 133.676757812 32.0595703125 136.17578125 31.5078125 135.828125 32.8037109375 c 2x68
EndSplineSet
Validated: 1
EndChar

StartChar: J
Encoding: 74 74 41
Width: 435
VWidth: 0
Flags: W
HStem: -39.2686 21.2529<123.453 219.843> 770.614 24.5781<119.309 127.675 140.934 144.82 317.555 427.219 430.075 453.822>
VStem: -0.899414 26.8037<54.347 111.222> 115.246 22.7402<791.522 797.068>
LayerCount: 2
Fore
SplineSet
137.986328125 801.28515625 m 2
 138.376953125 799.830078125 138.650390625 798.936523438 138.650390625 798.936523438 c 2
 139.432617188 796.999023438 139.231445312 797.682617188 139.474609375 796.966796875 c 2
 140.93359375 791.522460938 l 1
 223.803710938 782.021484375 308.662109375 791.634765625 392.251953125 795.008789062 c 0
 399.49609375 795.126953125 451.4921875 804.662109375 453.822265625 797.911132812 c 2
 457.885742188 782.750976562 l 2
 457.984375 782.466796875 457.975585938 782.119140625 457.975585938 782.116210938 c 0
 457.610351562 780.39453125 456.147460938 778.970703125 452.817382812 776.70703125 c 2
 430.075195312 770.614257812 l 1
 427.829101562 779.000976562 l 1
 415.180664062 779.602539062 378.84765625 773.83984375 373.57421875 773.752929688 c 0
 353.911132812 772.9609375 334.174804688 771.822265625 314.409179688 770.66796875 c 1
 317.837890625 757.874023438 l 1
 352.3671875 560.110351562 l 1
 357.39453125 493.514648438 362.545898438 425.044921875 355.506835938 356.0703125 c 0
 342.643554688 230.016601562 386.796875 13.6953125 237.240234375 -26.609375 c 2
 214.498046875 -32.7021484375 l 2
 213.809570312 -32.8876953125 212.94140625 -33.1142578125 212.94140625 -33.1142578125 c 2
 196.427734375 -37.333984375 180.016601562 -39.2685546875 160.1171875 -39.2685546875 c 0
 99.859375 -39.2685546875 22.537109375 1.775390625 6.255859375 62.7939453125 c 2
 2.1923828125 77.9541015625 l 2
 0.1796875 85.4970703125 -0.8994140625 93.3427734375 -0.8994140625 101.455078125 c 0
 -0.900390625 106.112304688 1.5869140625 116.700195312 2.23828125 120.290039062 c 2
 11.6552734375 129.70703125 l 1
 34.396484375 135.799804688 l 1
 38.458984375 120.638671875 l 1
 29.0419921875 111.221679688 l 2
 28.3896484375 107.6328125 25.90234375 97.0458984375 25.904296875 92.3876953125 c 0
 25.904296875 87.0087890625 26.4599609375 81.14453125 27.3203125 76.4130859375 c 0
 47.765625 20.423828125 120.54296875 -18.015625 178.793945312 -18.015625 c 0
 194.309570312 -18.015625 208.749023438 -16.6494140625 221.278320312 -14.19921875 c 0
 357.16015625 33.447265625 316.063476562 241.28125 328.704101562 365.138671875 c 0
 335.7421875 434.112304688 330.590820312 502.58203125 325.563476562 569.178710938 c 1
 291.03515625 766.940429688 l 1
 302.311523438 769.963867188 l 1
 241.060546875 766.411132812 179.614257812 763.360351562 119.30859375 770.614257812 c 1
 115.24609375 785.775390625 l 2
 116.03125 787.633789062 115.947265625 787.307617188 116.758789062 789.541992188 c 2
 115.24609375 795.192382812 l 1
 137.986328125 801.28515625 l 2
EndSplineSet
Validated: 33
EndChar

StartChar: K
Encoding: 75 75 42
Width: 383
VWidth: 0
Flags: W
VStem: 46.4531 20.96<-22.623 116.025> 367.62 20.96<47.4733 53.4383>
LayerCount: 2
Fore
SplineSet
11.587890625 801.141601562 m 1
 15.33203125 787.166992188 l 1
 53.6640625 310.159179688 l 1
 68.2138671875 331.23046875 87.1826171875 353.619140625 99.12890625 374.534179688 c 0
 157.194335938 435.600585938 198.745117188 511 251.033203125 578.518554688 c 1
 350.85546875 747.783203125 l 1
 371.81640625 753.400390625 l 1
 375.561523438 739.424804688 l 1
 275.739257812 570.161132812 l 1
 223.450195312 502.641601562 181.900390625 427.243164062 123.833984375 366.17578125 c 1
 102.133789062 328.18359375 58.0673828125 285.442382812 57.7890625 254.875976562 c 1
 65.7587890625 241.908203125 85.37109375 232.791992188 124.430664062 228.247070312 c 0
 197.65234375 219.727539062 344.536132812 111.543945312 384.836914062 63.3232421875 c 1
 388.580078125 49.3486328125 l 1
 367.620117188 43.7333984375 l 1
 327.3203125 91.953125 180.434570312 200.137695312 107.213867188 208.657226562 c 0
 84.6220703125 211.286132812 68.453125 215.537109375 57.3564453125 221.084960938 c 1
 67.4130859375 -50.4736328125 l 1
 46.453125 -56.0888671875 l 1
 37.7724609375 -38.728515625 l 1
 34.0283203125 -24.7548828125 l 1
 41.9853515625 -22.623046875 l 1
 29.6884765625 309.432617188 l 1
 -9.3720703125 795.524414062 l 1
 11.587890625 801.141601562 l 1
EndSplineSet
Validated: 1
EndChar

StartChar: L
Encoding: 76 76 43
Width: 544
VWidth: 0
Flags: W
HStem: -0.506836 18.4824<288.993 544.483> 780 20G<4.72363 28.0303>
VStem: -3.46387 23.3066<91.1583 723.87> 4.72363 23.3066<2.8716 307.089 423.646 794.702>
LayerCount: 2
Fore
SplineSet
24.498046875 800 m 1xd0
 28.0302734375 786.817382812 l 1xd0
 19.8427734375 352.814453125 l 1xe0
 28.0302734375 37.5478515625 l 1
 34.865234375 -30.798828125 l 1
 331.576171875 17.9755859375 l 1
 519.916992188 17.9755859375 l 1
 544.483398438 13.880859375 l 1
 548.016601562 0.6982421875 l 1
 528.2421875 -4.599609375 l 1
 503.67578125 -0.5048828125 l 1
 315.333984375 -0.5068359375 l 1
 16.4453125 -49.6376953125 l 1
 12.912109375 -36.455078125 l 1
 4.7236328125 45.4326171875 l 1xd0
 -3.4638671875 360.69921875 l 1xe0
 4.7236328125 794.702148438 l 1
 24.498046875 800 l 1xd0
EndSplineSet
Validated: 1
EndChar

StartChar: M
Encoding: 77 77 44
Width: 728
VWidth: 0
Flags: W
VStem: 30.0898 25.1133<8.03225 622.466> 43.3252 25.1133<-29.3591 -5.1538> 671.738 1.72363<761.906 762.131> 691.861 25.1133<57.9675 409.221>
LayerCount: 2
Fore
SplineSet
53.6607616744 803.698697932 m 1x30
 53.3157404599 803.518894982 52.8661968103 803.289877972 52.9884826986 803.022362167 c 0
 52.9938325008 803.013956475 52.9977182725 803.006473562 53 803 c 2
 53.0028153569 802.995085239 l 2
 53.0453335038 802.948664298 53.3870914962 803.38512075 53.6607616744 803.698697932 c 1x30
53.6607616744 803.698697932 m 1
 53.8242151879 803.885984929 53.9633813046 804.029438563 54 804 c 0
 54.0921222434 803.92606498 53.9019890028 803.824410241 53.6607616744 803.698697932 c 1
53.0028153569 802.995085239 m 2
 54.4406018933 800.487847381 56.068745613 798.661367725 57 798 c 0
 63.91796875 793.086914062 69.3574370059 781.230736767 75.4182535757 773.000001028 c 0
 106.837475821 730.331936017 128.070729476 650.714381897 152.870117188 613.197265625 c 2
 324.9296875 352.901367188 l 1
 369.046875 264.665039062 l 1
 393.853515625 212.294921875 l 1
 409.505859375 303.07421875 l 1
 493.329101562 567.782226562 l 1
 563.91796875 700.13671875 l 1
 634.5078125 766.313476562 l 2
 640.373046875 769.540039062 643.314453125 771.327148438 644.885742188 771.688476562 c 2
 666.19140625 777.3984375 l 2
 667.279296875 777.6484375 667.709960938 777.217773438 667.997070312 776.110351562 c 2
 671.802734375 761.90625 l 1
 671.802734375 761.90625 671.73828125 762.258789062 671.73828125 762.258789062 c 2
 673.044921875 759.48046875 672.69140625 760.213867188 673.461914062 758.786132812 c 2
 677.268554688 744.58203125 l 1
 706.3046875 573.159179688 711.728515625 394.764648438 716.974609375 219.577148438 c 0
 719.571289062 132.83203125 734.622070312 -1.0126953125 734.622070312 -1.0126953125 c 1
 713.314453125 -6.720703125 l 1
 709.508789062 7.4833984375 l 1
 709.508789062 7.4833984375 694.458984375 141.328125 691.861328125 228.073242188 c 0
 686.712890625 400.017578125 681.412109375 574.849609375 653.754882812 743.478515625 c 0
 653.705078125 743.603515625 652.723632812 746.169921875 652.405273438 747.188476562 c 0
 652.150390625 748.135742188 652.115234375 748.252929688 651.822265625 749.188476562 c 2
 651.853515625 749.12109375 l 2
 651.600585938 750.067382812 651.797851562 749.303710938 651.551757812 750.252929688 c 2
 589.03125 691.639648438 l 1
 518.442382812 559.286132812 l 1
 434.620117188 294.578125 l 1
 412.559570312 166.635742188 l 1
 391.252929688 160.92578125 l 1
 351.546875 244.751953125 l 1
 307.428710938 332.987304688 l 1
 135.368164062 593.284179688 l 2
 109.924719659 631.775566514 65.5205078125 748.991210938 27 789 c 1
 35.38671875 694.143554688 49.638671875 556.9921875 59.6171875 462.2265625 c 1
 55.203125 29.8701171875 l 1xb0
 68.4384765625 -27.4833984375 l 1
 47.1328125 -33.1923828125 l 1
 43.3251953125 -18.9873046875 l 1x70
 30.08984375 38.365234375 l 1xb0
 34.5029296875 470.72265625 l 1
 23.9404296875 571.046875 12.251953125 673.954101562 3.716796875 774.004882812 c 0
 3.6220703125 774.24609375 3.5390625 774.483398438 3.4697265625 774.720703125 c 2
 -0.337890625 788.924804688 l 2
 -1.1162109375 791.564453125 -0.3056640625 793.944335938 1.544921875 796.216796875 c 0
 1.44140625 797.087890625 1.3486328125 797.831054688 1.2666015625 798.454101562 c 0
 0.9765625 800.098632812 0.86769187287 801.027362628 0.875 801.0546875 c 2
 3 809 l 2
 5.38699045462 817.924887104 9.47645823808 809.493989642 16 815 c 1
 27 817 l 1
 39.2891050701 812.273421127 l 2
 42.4885767672 812.373857665 50.5981216192 811.39858919 52 804 c 0
 52.0280350724 803.851414116 52.869619394 803.209122159 52.9884826986 803.022362167 c 0
 52.9918765457 803.014937697 52.9957108445 803.007483573 53 803 c 2
 53.0028153569 802.995085239 l 2
EndSplineSet
Validated: 5
EndChar

StartChar: N
Encoding: 78 78 45
Width: 550
VWidth: 0
Flags: W
HStem: -83.5576 13.9316<35.6048 43.1377> -1.3418 21G<524.514 554.503>
VStem: -11.0244 21.8525<764.696 771.72> 1.95703 24.6318<309.306 679.612> 19.2646 24.6318<-6.35403 261.247> 451.983 24.6318<620.971 746.239>
LayerCount: 2
Fore
SplineSet
-11.0244140625 769.844726562 m 1xe4
 9.873046875 775.444335938 l 2
 10.2021484375 774.5625 10.5205078125 773.536132812 10.828125 772.381835938 c 2xe4
 12.8876953125 764.696289062 l 1
 32.861328125 770.047851562 l 2
 39.1748046875 771.423828125 66.01953125 678.708007812 83.435546875 662.939453125 c 0
 123.33203125 626.813476562 161.934570312 534.198242188 191.615234375 485.524414062 c 1
 356.046875 299.455078125 l 1
 459.899414062 165.313476562 l 1
 519.771484375 79.24609375 l 1
 508.234375 155.384765625 l 1
 482.271484375 384.725585938 l 1
 451.983398438 691.956054688 l 1
 451.981445312 713.591796875 l 1
 451.981445312 726.573242188 l 1
 469.291015625 795.807617188 l 1
 476 797.605248795 l 4
 490.189453125 801.407226562 l 1
 493.921875 787.474609375 l 1
 476.614257812 718.240234375 l 1
 476.614257812 705.258789062 l 1
 476.615234375 683.623046875 l 1
 506.903320312 376.393554688 l 1
 532.866210938 147.053710938 l 1
 554.502929688 4.2568359375 l 1
 533.60546875 -1.341796875 l 1
 511.967773438 46.2568359375 l 1
 442.733398438 145.78125 l 1
 338.880859375 279.922851562 l 1
 174.44921875 465.9921875 l 1
 144.76953125 514.66796875 106.16796875 607.282226562 66.2705078125 643.40625 c 0
 51.58984375 656.69921875 30.796875 722.985351562 20.2490234375 744.512695312 c 1
 17.30859375 743.725585938 l 1
 20.36328125 722.456054688 22.7666015625 690.30078125 26.5888671875 670.641601562 c 0
 37.908203125 612.422851562 26.587890625 547.43359375 26.5888671875 488.900390625 c 0xd4
 23.1845703125 367.067382812 31.109375 245.8984375 43.896484375 125.416992188 c 1
 42.2470703125 73.7666015625 67.76953125 -75.201171875 56.8779296875 -77.9599609375 c 2
 35.98046875 -83.5576171875 l 1
 32.248046875 -69.6259765625 l 1
 43.1376953125 -66.8681640625 17.615234375 82.099609375 19.2646484375 133.750976562 c 1xcc
 6.4775390625 254.231445312 -1.447265625 375.400390625 1.95703125 497.233398438 c 0
 1.9560546875 555.766601562 13.27734375 620.755859375 1.95703125 678.974609375 c 0xd4
 -2.623046875 702.53125 -4.9150390625 741.802734375 -9.1474609375 762.842773438 c 2
 -11.0244140625 769.844726562 l 1xe4
EndSplineSet
Validated: 33
EndChar

StartChar: O
Encoding: 79 79 46
Width: 717
VWidth: 0
Flags: W
HStem: 769.109 31.0244<278.049 329.176>
VStem: 700.15 23.5156<240.739 393.374>
LayerCount: 2
Fore
SplineSet
235.8359375 760.721679688 m 1
 76.7490234375 681.993164062 -3.3427734375 481.963867188 37.919921875 307.63671875 c 1
 36.5673828125 276.155273438 40.1611328125 243.11328125 47.333984375 213.850585938 c 0
 84.2138671875 87.4423828125 193.045898438 -10.1875 340.05078125 27.63671875 c 0
 379.0390625 37.669921875 422.303710938 46.955078125 461.106445312 57.005859375 c 0
 588.600585938 92.47265625 700.15234375 149.553710938 700.150390625 323.854492188 c 0
 700.064453125 347.70703125 696.731445312 372.2265625 691.561523438 393.379882812 c 0
 662.0859375 494.169921875 583.900390625 577.760742188 497.166015625 628.640625 c 1
 435.975585938 650.666992188 407.262695312 709.690429688 356.711914062 740.177734375 c 0
 343.479492188 748.157226562 323.83984375 757.572265625 305.526367188 763.44921875 c 0
 295.5078125 766.666015625 285.209960938 768.762695312 278.048828125 769.109375 c 2
 256.864257812 762.048828125 l 1
 236.912109375 756.702148438 l 1
 235.8359375 760.721679688 l 1
393.2890625 744.444335938 m 1
 432.357421875 712.442382812 461.004882812 666.203125 513.552734375 647.287109375 c 1
 601.732421875 595.559570312 681.35546875 509.53125 709.40625 406.8671875 c 0
 709.643554688 405.981445312 709.643554688 405.981445312 709.643554688 405.981445312 c 2
 709.85546875 405.1953125 709.89453125 405.059570312 709.89453125 405.059570312 c 1
 713.458007812 391.758789062 l 2
 719.977539062 367.325195312 723.572265625 341.9609375 723.666015625 315.899414062 c 0
 723.666992188 137.147460938 605.926757812 81.556640625 475.295898438 46.505859375 c 2
 455.345703125 41.1591796875 l 2
 411.584960938 29.4169921875 366.375976562 19.9814453125 323.6640625 8.9912109375 c 0
 173.948242188 -29.53125 63.7021484375 72.83984375 29.123046875 201.740234375 c 2
 25.5595703125 215.041015625 l 2
 16.8544921875 247.484375 12.9443359375 281.610351562 14.404296875 315.592773438 c 1
 -31.6826171875 510.30078125 72.5712890625 736.63671875 271.08984375 790.875 c 2
 271.08984375 790.875 271.885742188 791.091796875 272.525390625 791.26171875 c 2
 292.4765625 796.608398438 l 2
 297.265625 797.885742188 302.107421875 799.0625 307.00390625 800.133789062 c 0
 350.193359375 800.154296875 371.91015625 785.731445312 393.75390625 758.82421875 c 1
 397.317382812 745.5234375 l 2
 395.987304688 745.166992188 395.4375 745.020507812 393.2890625 744.444335938 c 1
EndSplineSet
Validated: 33
EndChar

StartChar: P
Encoding: 80 80 47
Width: 403
VWidth: 0
Flags: W
HStem: 304.282 16.6221<-9.75781 21.6172 43.1875 82.1748 200.127 244.846> 782.97 16.6201<55.5187 174.003>
VStem: -35.5332 18.6562<746.147 757.763>
LayerCount: 2
Fore
SplineSet
30.2958984375 515.833984375 m 0
 31.3330078125 504.0625 32.3896484375 491.680664062 33.8017578125 474.747070312 c 2
 42.24609375 319.124023438 l 1
 82.1748046875 317.221679688 l 1
 130.399414062 309.626953125 162.829101562 315.14453125 214.733398438 320.904296875 c 0
 227.296875 322.297851562 240.33203125 324.533203125 253.42578125 327.642578125 c 0
 328.458007812 350.134765625 401.125976562 402.947265625 384.743164062 492.884765625 c 1
 384.743164062 522.532226562 381.33984375 550.6953125 374.456054688 578.506835938 c 0
 341.08203125 694.581054688 245.56640625 782.969726562 108.072265625 782.969726562 c 0
 95.3857421875 782.969726562 49.857421875 777.887695312 11.0830078125 768.791015625 c 0
 9.8818359375 768.422851562 8.6806640625 768.041015625 7.4892578125 767.643554688 c 2
 8.0263671875 765.640625 l 1
 4.3447265625 723.80078125 26.0478515625 590.399414062 30.119140625 518.93359375 c 0
 30.1787109375 517.888671875 30.23828125 516.85546875 30.2958984375 515.833984375 c 0
-14.068359375 743.547851562 m 1
 -31.8515625 738.783203125 l 1
 -35.533203125 746.147460938 l 1
 -38.7109375 758.002929688 l 2
 -38.7109375 765.727539062 -22.521484375 772.696289062 -0.9033203125 778.438476562 c 2
 16.8798828125 783.205078125 l 2
 54.8203125 793.284179688 109.48046875 799.58984375 122.6796875 799.58984375 c 0
 261.970703125 799.58984375 358.3515625 709.627929688 390.642578125 589.44921875 c 2
 393.8203125 577.59375 l 1
 393.8203125 577.59375 393.829101562 577.553710938 394.03515625 576.779296875 c 2
 394.03515625 576.779296875 394.03515625 576.779296875 394.247070312 575.98828125 c 0
 401.7890625 547.349609375 405.704101562 517.016601562 405.704101562 485.793945312 c 1
 422.666992188 392.670898438 344.572265625 339.108398438 265.143554688 317.938476562 c 2
 247.359375 313.173828125 l 2
 231.416015625 308.924804688 215.419921875 305.981445312 200.126953125 304.284179688 c 0
 148.221679688 298.5234375 115.79296875 293.005859375 67.568359375 300.6015625 c 1
 43.1875 301.762695312 l 1
 59.5751953125 -0.2568359375 l 1
 41.79296875 -5.021484375 l 1
 38.615234375 6.8349609375 l 1
 22.5595703125 302.745117188 l 1
 -9.7578125 304.282226562 l 1
 -12.935546875 316.138671875 l 1
 4.8486328125 320.904296875 l 1
 21.6171875 320.10546875 l 1
 15.029296875 441.5078125 l 1
 12.8134765625 449.779296875 l 1
 12.7998046875 449.829101562 l 2
 12.2119140625 452.384765625 10.0302734375 481.547851562 8.1904296875 509.219726562 c 0
 6.47265625 535.044921875 5.9755859375 559.8046875 6.4638671875 559.954101562 c 0
 0.2109375 625.248046875 -12.6337890625 713.524414062 -13.32421875 757.821289062 c 1
 -14.9013671875 756.583984375 -16.1220703125 755.314453125 -16.876953125 754.028320312 c 2
 -14.068359375 743.547851562 l 1
EndSplineSet
Validated: 33
EndChar

StartChar: Q
Encoding: 81 81 48
Width: 719
VWidth: 0
Flags: W
HStem: 0.0410156 19.1504<255.773 381.944> 779.829 20G<303.096 317.633 340.427 361.854>
VStem: -2.17676 24.1504<283.19 468.017> 294.223 20.4902<760.714 768.884> 429.987 20.4902<750.355 756.476> 693.609 24.1514<285.613 436.739>
LayerCount: 2
Fore
SplineSet
292.127929688 778.272460938 m 1
 284.860351562 777.291015625 276.20703125 775.673828125 270.265625 774.350585938 c 0
 110.828125 724.483398438 21.9755859375 526.701171875 21.9736328125 366.15234375 c 0
 21.9736328125 337.190429688 26.28515625 305.236328125 33.5322265625 276.178710938 c 0
 71.099609375 144.727539062 176.06640625 19.19140625 319.5390625 19.19140625 c 0
 346.36328125 19.19140625 375.112304688 22.986328125 401.8984375 29.3876953125 c 0
 462.842773438 47.3935546875 522.70703125 80.103515625 572.19140625 123.154296875 c 1
 555.123046875 138.109375 537.43359375 151.346679688 519.08203125 161.259765625 c 0
 480.517578125 182.09375 429.170898438 250.930664062 404.53125 258.83984375 c 1
 400.870117188 272.5 l 1
 421.361328125 277.989257812 l 1
 446.000976562 270.080078125 497.348632812 201.244140625 535.911132812 180.41015625 c 0
 554.942382812 170.12890625 573.314453125 156.224609375 591.01953125 140.532226562 c 1
 652.350585938 200.626953125 693.609375 277.630859375 693.609375 361.594726562 c 0
 693.78125 387.841796875 690.318359375 414.443359375 684.869140625 436.74609375 c 0
 646.17578125 568.076171875 526.708007812 662.653320312 408.772460938 717.041015625 c 0
 401.15625 720.552734375 343.852539062 754.015625 316.29296875 770.1953125 c 1
 314.712890625 760.713867188 l 1
 294.22265625 755.224609375 l 1
 290.5625 768.883789062 l 1
 292.127929688 778.272460938 l 1
303.095703125 796.560546875 m 2
 315.295898438 799.829101562 l 1
 315.295898438 799.829101562 316.12109375 799.34375 317.6328125 798.452148438 c 0
 326.57421875 799.345703125 335.858398438 799.831054688 344.99609375 799.831054688 c 0
 378.712890625 798.717773438 429.24609375 790.04296875 446.81640625 765.889648438 c 1
 450.477539062 752.23046875 l 1
 429.987304688 746.739257812 l 1
 416.116210938 765.807617188 381.451171875 775.2578125 350.873046875 778.94140625 c 1
 380.723632812 761.477539062 419.087890625 739.1953125 425.603515625 736.190429688 c 0
 544.973632812 681.141601562 666.616210938 583.873046875 703.115234375 450.896484375 c 0
 703.358398438 449.985351562 703.358398438 449.985351562 703.358398438 449.985351562 c 1
 703.624023438 449.020507812 l 1
 707.283203125 435.361328125 l 2
 714.23828125 409.387695312 717.947265625 382.059570312 717.760742188 353.424804688 c 0
 717.760742188 266.061523438 673.106445312 186.23828125 607.633789062 125.151367188 c 1
 632.788085938 100.935546875 656.530273438 74.1650390625 678.837890625 50.50390625 c 1
 688.646484375 53.1318359375 l 1
 692.305664062 39.4716796875 l 1
 688.0625 30.986328125 l 1
 667.573242188 25.4970703125 l 1
 642.801757812 51.39453125 616.486328125 81.5322265625 588.44140625 108.267578125 c 1
 537.798828125 66.248046875 477.223632812 34.8291015625 416.049804688 18.3974609375 c 2
 395.55859375 12.90625 l 2
 364.3515625 4.5244140625 332.989257812 0.041015625 302.708984375 0.041015625 c 0
 156.887695312 0.041015625 50.89453125 129.602539062 14.896484375 263.54296875 c 2
 11.2353515625 277.202148438 l 2
 2.44140625 309.922851562 -2.1767578125 342.903320312 -2.1767578125 374.322265625 c 0
 -2.1748046875 537.700195312 89.4453125 739.48828125 254.995117188 785.123046875 c 2
 254.995117188 785.123046875 255.782226562 785.336914062 256.415039062 785.506835938 c 2
 276.905273438 790.99609375 l 2
 285.434570312 793.27734375 294.172851562 795.143554688 303.095703125 796.560546875 c 2
EndSplineSet
Validated: 33
EndChar

StartChar: R
Encoding: 82 82 49
Width: 482
VWidth: 0
Flags: W
HStem: 0.015625 13.127<519.981 536.154> 705.337 13.127<-43.2726 -34.626> 781.602 18.4023<51.6643 194.036>
VStem: 35.377 19.5439<71.6152 262.424 280.468 379.239> 459.386 23.207<530.849 607.837>
LayerCount: 2
Fore
SplineSet
-31.107421875 705.336914062 m 1
 -50.7978515625 700.061523438 l 2
 -57.39453125 699.393554688 -60.267578125 704.571289062 -61.70703125 709.723632812 c 2
 -65.2255859375 722.849609375 l 1
 -65.1982421875 722.689453125 l 2
 -65.396484375 723.573242188 -65.443359375 723.783203125 -65.6787109375 724.657226562 c 0
 -66.0791015625 726.446289062 -66.3349609375 728.143554688 -66.5478515625 729.49609375 c 0
 -66.5478515625 753.444335938 -37.42578125 768.807617188 -1.3193359375 778.5625 c 2
 18.37109375 783.838867188 l 2
 19.2431640625 784.07421875 20.3330078125 784.362304688 20.3330078125 784.362304688 c 2
 70.5205078125 797.430664062 129.611328125 800.00390625 148.838867188 800.00390625 c 0
 242.977539062 800.00390625 443.6796875 718.415039062 474.9453125 602.42578125 c 2
 478.461914062 589.298828125 l 2
 478.6171875 588.7265625 478.802734375 588.012695312 478.802734375 588.01171875 c 0
 481.458984375 577.569335938 482.592773438 568.73046875 482.592773438 558.564453125 c 0
 455.73828125 447.728515625 377.862304688 331.536132812 263.8671875 300.94921875 c 2
 244.176757812 295.673828125 l 2
 243.516601562 295.498046875 242.692382812 295.280273438 242.69140625 295.280273438 c 0
 227.34375 291.310546875 213.498046875 289.143554688 197.8984375 288.284179688 c 0
 157.098632812 286.038085938 117.629882812 272.833984375 79.755859375 268.9609375 c 1
 107.428710938 243.59375 189.228515625 202.115234375 222.225585938 196.607421875 c 0
 342.065429688 176.604492188 408.809570312 82.8681640625 491.307617188 21.296875 c 1
 536.154296875 13.142578125 l 1
 539.670898438 0.015625 l 1
 519.981445312 -5.259765625 l 1
 475.134765625 2.89453125 l 1
 392.634765625 64.4658203125 325.891601562 158.203125 206.051757812 178.205078125 c 0
 167.790039062 184.591796875 62.9765625 239.7890625 55.267578125 261.178710938 c 2
 55.267578125 261.178710938 55.162109375 261.506835938 55.09765625 261.763671875 c 2
 54.9208984375 262.423828125 l 1
 58.5849609375 142.7109375 l 1
 70.81640625 -32.599609375 l 1
 51.126953125 -37.8759765625 l 1
 47.6083984375 -24.7490234375 l 1
 35.376953125 150.5625 l 1
 23.146484375 550.108398438 l 2
 17.80078125 611.7421875 -5.71484375 725.845703125 6.8291015625 766.153320312 c 1
 -20.212890625 756.989257812 -42.0908203125 743.62109375 -43.3203125 722.833007812 c 0
 -42.3359375 721.237304688 -39.2353515625 717.998046875 -34.6259765625 718.463867188 c 2
 -31.107421875 705.336914062 l 1
7.2900390625 766.310546875 m 2
 19.5634765625 769.59765625 l 2
 17.3720703125 769.131835938 15.18359375 768.6484375 12.9990234375 768.1484375 c 0
 11.07421875 767.5546875 9.169921875 766.94140625 7.2900390625 766.310546875 c 2
26.642578125 771.04296875 m 1
 30.0478515625 758.337890625 l 1
 17.4794921875 718.061523438 41.0068359375 603.909179688 46.3544921875 542.256835938 c 2
 54.3671875 280.467773438 l 2
 54.787109375 280.671875 55.2509765625 280.857421875 55.763671875 281.026367188 c 2
 75.455078125 286.301757812 l 1
 121.728515625 286.301757812 165.923828125 304.036132812 214.071289062 306.686523438 c 0
 226.533203125 307.373046875 238.622070312 309.052734375 250.384765625 311.643554688 c 0
 357.875976562 345.706054688 433.154296875 458.1484375 459.385742188 566.416015625 c 0
 459.385742188 574.600585938 458.573242188 582.252929688 456.872070312 590.40625 c 0
 419.918945312 702.349609375 225.693359375 781.6015625 132.666992188 781.6015625 c 0
 116.03125 781.6015625 71.6630859375 779.856445312 26.642578125 771.04296875 c 1
EndSplineSet
Validated: 33
EndChar

StartChar: S
Encoding: 83 83 50
Width: 522
VWidth: 0
Flags: W
HStem: -0.356445 17.8408<189.961 361.863> 782.238 17.8408<191.139 357.894>
VStem: -0.709961 22.499<530.287 634.85> 509.163 22.5<97.309 209.155>
LayerCount: 2
Fore
SplineSet
460.516601562 747.828125 m 1
 441.427734375 742.713867188 l 1
 387.872070312 779.288085938 305.306640625 781.533203125 239.850585938 782.23828125 c 0
 222.21484375 782.23828125 202.118164062 779.688476562 186.748046875 776.182617188 c 0
 96.826171875 748.123046875 21.7890625 671.977539062 21.7890625 573.91796875 c 0
 21.7890625 561.713867188 23.1396484375 549.77734375 25.25390625 539.833007812 c 0
 81.3037109375 366.288085938 459.403320312 443.704101562 520.05859375 215.399414062 c 2
 523.467773438 202.673828125 l 2
 528.787109375 182.654296875 531.663085938 160.28515625 531.663085938 135.190429688 c 0
 531.661132812 70.8271484375 478.465820312 37.7890625 416.3515625 21.099609375 c 2
 397.262695312 15.9853515625 l 2
 396.583007812 15.802734375 395.733398438 15.5771484375 395.733398438 15.5771484375 c 2
 344.55859375 2.16015625 289.958984375 -0.3564453125 251.708007812 -0.3564453125 c 0
 156.885742188 -0.3564453125 83.1572265625 39.6728515625 2.7001953125 58.9306640625 c 1
 -1.251953125 66.8359375 l 1
 -4.6630859375 79.5625 l 1
 14.4267578125 84.6767578125 l 1
 18.37890625 76.771484375 l 1
 98.8369140625 57.513671875 172.565429688 17.484375 267.38671875 17.484375 c 0
 303.458984375 17.484375 354.51171875 19.794921875 402.9765625 31.3017578125 c 0
 459.62109375 48.291015625 509.163085938 81.14453125 509.163085938 142.801757812 c 0
 509.163085938 165.454101562 506.865234375 185.633789062 502.467773438 204.307617188 c 0
 435.611328125 425.645507812 56.1044921875 348.91015625 7.78515625 528.046875 c 2
 4.3759765625 540.7734375 l 2
 1.0546875 553.084960938 -0.7099609375 566.610351562 -0.7099609375 581.529296875 c 0
 -0.7099609375 682.590820312 79.0986328125 760.434570312 172.41015625 786.174804688 c 2
 172.41015625 786.174804688 173.17578125 786.3828125 173.7890625 786.547851562 c 2
 192.87890625 791.662109375 l 2
 213.427734375 797.166015625 234.55859375 800.079101562 255.530273438 800.079101562 c 0
 320.985351562 799.374023438 403.551757812 797.129882812 457.106445312 760.553710938 c 1
 460.516601562 747.828125 l 1
EndSplineSet
Validated: 1
EndChar

StartChar: T
Encoding: 84 84 51
Width: 732
VWidth: 0
Flags: W
HStem: 734.379 12.3252<732.596 747.781> 767.479 18.0605<233.206 293.882 320.762 451.012> 783.016 12.3262<-63.6299 23.0435>
LayerCount: 2
Fore
SplineSet
-66.931640625 795.341796875 m 1xa0
 -48.443359375 800.294921875 l 1
 293.881835938 785.540039062 l 1
 292.901367188 791.513671875 l 2
 293.069335938 791.604492188 293.221679688 791.688476562 293.360351562 791.762695312 c 1
 293.365234375 791.740234375 293.4375 791.745117188 293.587890625 791.784179688 c 2
 312.076171875 796.73828125 l 2
 314.666992188 797.411132812 317.936523438 794.642578125 318.866210938 791.454101562 c 2
 320.76171875 784.380859375 l 1
 395.60546875 781.155273438 l 1
 663.564453125 758.188476562 l 1
 747.78125 746.704101562 l 1
 751.083984375 734.37890625 l 1
 732.595703125 729.424804688 l 1
 648.379882812 740.908203125 l 1
 380.419921875 763.876953125 l 1
 317.57421875 766.5859375 l 1
 356.798828125 527.666015625 l 1
 398.908203125 160.177734375 l 1
 421.875 3.2294921875 l 1
 418.047851562 -0.59765625 l 1
 399.559570312 -5.5517578125 l 1
 396.2578125 6.7734375 l 1
 400.083984375 10.6015625 l 1
 377.1171875 167.549804688 l 1
 335.0078125 535.038085938 l 1
 296.84765625 767.479492188 l 1xc0
 -63.6298828125 783.015625 l 1
 -66.931640625 795.341796875 l 1xa0
293.360351562 791.762695312 m 1
 295.919921875 793.166992188 293.293945312 791.90625 293.360351562 791.762695312 c 1
EndSplineSet
Validated: 5
EndChar

StartChar: U
Encoding: 85 85 52
Width: 687
VWidth: 0
Flags: W
HStem: -0.219727 17.3066<293.21 440.3> 779.223 20G<5.70117 27.5254>
VStem: 5 22<639.424 794.262> 661.316 21.8242<283.511 485.758>
LayerCount: 2
Fore
SplineSet
24.21875 799.22265625 m 1
 27.525390625 786.87890625 l 1
 27 654 l 1
 64.666015625 607.668945312 82.5393336963 347.30619007 96.048828125 296.875 c 2
 99.35546875 284.53125 l 2
 107.626953125 253.649414062 114.30078125 221.733398438 121.56640625 193.708007812 c 0
 149.046875 94.7841796875 195.833984375 17.0869140625 388.448242188 17.0869140625 c 0
 408.780273438 17.0869140625 430.061523438 19.7001953125 446.502929688 23.4345703125 c 0
 590.430664062 68.5966796875 661.315429688 235.388671875 661.31640625 380.190429688 c 0
 661.315429688 406.028320312 658.770507812 431.528320312 657.481445312 456.870117188 c 2
 619.140625 675.407226562 l 1
 607.638671875 759.755859375 l 1
 626.15625 764.716796875 l 1
 629.463867188 752.373046875 l 1
 640.965820312 668.024414062 l 1
 679.305664062 449.486328125 l 2
 680.59375 424.146484375 683.139648438 398.64453125 683.140625 372.806640625 c 0
 683.139648438 225.15234375 609.172851562 54.4951171875 460.0078125 13.6298828125 c 2
 460.0078125 13.6298828125 459.28515625 13.435546875 458.705078125 13.2802734375 c 2
 440.188476562 8.318359375 l 2
 419.32421875 2.7666015625 397.0078125 -0.21875 373.23828125 -0.2197265625 c 0
 176.8515625 -0.21875 132.01953125 80.681640625 104.791992188 182.137695312 c 2
 101.485351562 194.481445312 l 2
 93.64453125 223.698242188 87.7886030901 254.535955115 79.1708984375 285.701171875 c 0
 65.787109375 334.102539062 42.2841796875 612.889648438 5 657 c 5
 5.701171875 794.26171875 l 1
 24.21875 799.22265625 l 1
EndSplineSet
Validated: 1
EndChar

StartChar: V
Encoding: 86 86 53
Width: 736
VWidth: 0
Flags: W
HStem: 779.851 20G<721.993 748.369>
VStem: -33.2666 22.3779<743.003 754.029>
LayerCount: 2
Fore
SplineSet
-33.2666015625 752.153320312 m 1
 -10.888671875 758.1484375 l 1
 48.3935546875 679.942382812 73.2744140625 559.06640625 132.75 470.872070312 c 1
 210.16796875 385.798828125 323.12890625 61.3544921875 376.966796875 17.3876953125 c 1
 450.53125 214.912109375 474.825195312 437.66796875 610.791015625 603.881835938 c 0
 618.193359375 612.932617188 689.55859375 724.352539062 689.55859375 724.352539062 c 1
 721.993164062 793.854492188 l 1
 744.372070312 799.850585938 l 1
 748.369140625 784.931640625 l 1
 715.934570312 715.4296875 l 1
 715.934570312 715.4296875 644.569335938 604.009765625 637.166992188 594.958007812 c 0
 499.83984375 427.083007812 475.916992188 199.309570312 400.856445312 1.8701171875 c 0
 399.138671875 -0.2333984375 397.46484375 -1.498046875 395.208007812 -2.24609375 c 2
 395.208007812 -2.24609375 394.970703125 -2.31640625 394.78125 -2.3681640625 c 2
 372.40234375 -8.36328125 l 2
 324.477539062 -20.92578125 198.90234375 357.06640625 114.370117188 449.958007812 c 1
 54.89453125 538.15234375 30.013671875 659.028320312 -29.2705078125 737.233398438 c 1
 -33.2666015625 752.153320312 l 1
EndSplineSet
Validated: 33
EndChar

StartChar: W
Encoding: 87 87 54
Width: 1012
VWidth: 0
Flags: W
LayerCount: 2
Fore
SplineSet
42.8203125 722.251953125 m 1
 47.853515625 692.580078125 55.26953125 659.36328125 62.8115234375 630.454101562 c 0
 113.2421875 447.077148438 205.616210938 249.591796875 258.16796875 64.78125 c 0
 262.854492188 48.2978515625 268.391601562 36.12890625 272.124023438 31.076171875 c 1
 316.443359375 105.91015625 364.73046875 450.036132812 432.182617188 468.747070312 c 2
 458.348632812 475.7578125 l 2
 458.692382812 475.852539062 459.12109375 475.959960938 459.123046875 475.959960938 c 0
 461.2265625 476.438476562 462.35546875 476.549804688 464.053710938 476.549804688 c 2
 466.17578125 468.626953125 l 2
 490.396484375 384.078125 557.88671875 313.9296875 594.083984375 232.739257812 c 1
 627.28125 210.546875 657.188476562 116.717773438 676.052734375 73.7021484375 c 1
 735.810546875 307.911132812 873.16015625 523.99609375 968.850585938 735.020507812 c 1
 985.104492188 794.619140625 l 1
 1011.27050781 801.629882812 l 1
 1015.9453125 784.184570312 l 1
 999.69140625 724.586914062 l 1
 901.223632812 507.436523438 757.481445312 282.314453125 701.701171875 41.9189453125 c 0
 700.422851562 36.4072265625 698.823242188 33.615234375 696.928710938 33.072265625 c 2
 670.76171875 26.0615234375 l 2
 654.701171875 21.458984375 617.348632812 178.36328125 572.58984375 208.284179688 c 1
 536.353515625 289.563476562 468.12109375 360.850585938 444.482421875 444.875976562 c 1
 381.817382812 371.653320312 332.208984375 18.54296875 289.408203125 7.0263671875 c 2
 263.240234375 0.013671875 l 2
 254.307617188 -2.3896484375 245.494140625 9.310546875 236.673828125 40.326171875 c 0
 183.323242188 227.94921875 88.5966796875 429.51953125 38.9716796875 614.639648438 c 2
 34.2978515625 632.083984375 l 2
 23.9140625 670.821289062 15.505859375 708.838867188 9.8642578125 745.856445312 c 0
 10.1025390625 745.985351562 10.3173828125 746.103515625 10.513671875 746.209960938 c 1
 10.5205078125 746.1796875 10.623046875 746.184570312 10.8359375 746.239257812 c 2
 37.00390625 753.251953125 l 2
 40.669921875 754.204101562 45.2978515625 750.28515625 46.6142578125 745.772460938 c 2
 51.2890625 728.328125 l 2
 51.6474609375 727.096679688 51.759765625 725.819335938 51.5400390625 724.586914062 c 2
 42.8203125 722.251953125 l 1
10.513671875 746.209960938 m 1
 14.1357421875 748.197265625 10.419921875 746.4140625 10.513671875 746.209960938 c 1
EndSplineSet
Validated: 37
EndChar

StartChar: X
Encoding: 88 88 55
Width: 609
VWidth: 0
Flags: W
HStem: -57.3408 24.9004<-25.7164 -16.7764>
LayerCount: 2
Fore
SplineSet
11.638671875 744.571289062 m 1
 29.6396484375 749.39453125 l 0
 34.2421875 750.626953125 l 1
 193.362304688 549.38671875 l 2
 232.651367188 506.341796875 270.961914062 462.376953125 308.43359375 417.620117188 c 1
 373.231445312 499.646484375 438.357421875 582.102539062 503.041015625 665.010742188 c 0
 541.982421875 714.926757812 587.484375 779.282226562 624.71875 819.451171875 c 1
 647.322265625 825.506835938 l 1
 651.359375 810.438476562 l 1
 614.125 770.26953125 568.623046875 705.9140625 529.680664062 655.998046875 c 0
 461.895507812 569.11328125 393.623046875 482.725585938 325.750976562 396.80859375 c 1
 391.549804688 317.248046875 454.799804688 235.272460938 516.282226562 151.586914062 c 0
 521.186523438 140.251953125 565.498046875 91.740234375 568.309570312 82.453125 c 2
 572.346679688 67.384765625 l 2
 572.409179688 67.177734375 572.456054688 66.9501953125 572.456054688 66.94921875 c 0
 572.543945312 66.228515625 572.409179688 66.0078125 572.055664062 65.8916015625 c 2
 549.452148438 59.8349609375 l 2
 549.3359375 59.796875 549.15625 59.7841796875 549.155273438 59.7841796875 c 0
 547.583984375 59.8623046875 544.830078125 61.41015625 539.8359375 64.9423828125 c 2
 535.798828125 80.0107421875 l 1
 522.240234375 97.015625 500.827148438 123.2734375 497.717773438 130.462890625 c 0
 436.533203125 213.741210938 373.600585938 295.326171875 308.147460938 374.521484375 c 1
 283.634765625 343.486328125 259.185546875 312.51171875 234.840820312 281.598632812 c 2
 5.5205078125 -46.001953125 l 2
 3.7353515625 -49.33984375 2.3564453125 -50.8447265625 1.3876953125 -51.193359375 c 2
 -21.2158203125 -57.2509765625 l 2
 -21.458984375 -57.337890625 -21.7197265625 -57.3408203125 -21.7197265625 -57.3408203125 c 2
 -22.4619140625 -57.1611328125 -22.6591796875 -56.70703125 -22.822265625 -55.966796875 c 2
 -26.859375 -40.8984375 l 2
 -27.40234375 -38.4453125 -26.1005859375 -33.4560546875 -22.95703125 -32.4404296875 c 2
 -16.7763671875 -30.7841796875 l 1
 208.200195312 290.611328125 l 2
 235.631835938 325.444335938 263.196289062 360.353515625 290.833007812 395.340820312 c 1
 253.0546875 440.497070312 214.42578125 484.84765625 174.797851562 528.262695312 c 2
 15.677734375 729.502929688 l 1
 11.638671875 744.571289062 l 1
EndSplineSet
Validated: 1
EndChar

StartChar: Y
Encoding: 89 89 56
Width: 323
VWidth: 0
Flags: W
HStem: 393.419 20G<221.589 225.948> 779.978 20G<342.93 364.293>
LayerCount: 2
Fore
SplineSet
220.927734375 410.811523438 m 0
 221.5390625 409.591796875 220.985351562 413.094726562 222.193359375 413.418945312 c 2
 225.948242188 405.913085938 l 1
 229.185546875 393.829101562 l 1
 211.059570312 388.97265625 l 1
 170.239257812 428.868164062 126.080078125 470.299804688 83.45703125 509.069335938 c 0
 15.3125 571.053710938 -43.74609375 642.624023438 -96.6865234375 715.484375 c 1
 -99.923828125 727.567382812 l 1
 -81.798828125 732.423828125 l 2
 -77.9287109375 728.958984375 -73.8310546875 725.461914062 -66.787109375 724.91796875 c 1
 -63.5498046875 712.833984375 l 1
 -66.748046875 711.9765625 l 1
 -16.7998046875 645.067382812 36.4033203125 582.350585938 98.345703125 526.008789062 c 0
 138.538085938 489.450195312 181.434570312 449.22265625 220.927734375 410.811523438 c 0
361.0546875 799.977539062 m 1
 364.29296875 787.89453125 l 1
 334.268554688 671.55078125 l 1
 270.466796875 393.829101562 l 1
 176.642578125 164.896484375 l 1
 135.360351562 -0.2353515625 l 1
 117.234375 -5.091796875 l 1
 113.997070312 6.9912109375 l 1
 155.278320312 172.124023438 l 1
 249.103515625 401.056640625 l 1
 312.904296875 678.778320312 l 1
 315.80078125 690 l 0
 342.9296875 795.122070312 l 1
 361.0546875 799.977539062 l 1
EndSplineSet
Validated: 1
EndChar

StartChar: Z
Encoding: 90 90 57
Width: 655
VWidth: 0
Flags: W
HStem: 0.0390625 18.7559<97.9445 315.195> 24.9688 18.7559<402.344 631.778> 430.915 20G<488.558 568.812> 764.958 18.4639<-21.3463 19.8649> 781.181 18.7539<211.396 577.484>
VStem: 168.16 25.1904<352.846 363.654>
LayerCount: 2
Fore
SplineSet
-20.4912109375 760.405273438 m 1xf4
 -24.0751953125 773.783203125 l 2
 -22.7255859375 776.23828125 -20.7861328125 777.477539062 -18.4814453125 778.044921875 c 2
 1.5849609375 783.421875 l 2xf4
 4.8369140625 784.22265625 10.56640625 783.534179688 13.5947265625 783.279296875 c 2
 29.232421875 787.469726562 l 1
 444.731445312 799.934570312 l 1
 606.776367188 795.78125 l 1
 610.361328125 782.40234375 l 1
 440.004882812 541.412109375 l 1
 337.405273438 400.337890625 l 1
 382.052734375 408.219726562 427.561523438 418.321289062 469.661132812 425.985351562 c 2
 565.225585938 450.915039062 l 1
 568.811523438 437.537109375 l 1
 548.744140625 432.16015625 l 1
 453.178710938 407.23046875 l 2
 412.106445312 399.75390625 367.78515625 389.955078125 324.1875 382.163085938 c 1
 273.805664062 312.88671875 l 1
 128.381835938 46.966796875 l 1
 110.791992188 32.8369140625 100.864257812 21.7880859375 97.4189453125 13.9775390625 c 1
 108.3359375 7.5908203125 138.18359375 9.474609375 182.965820312 18.794921875 c 1
 305.958007812 19.537109375 427.299804688 43.078125 552.760742188 43.724609375 c 0
 558.315429688 43.7548828125 648.326171875 35.4150390625 648.326171875 35.4150390625 c 1
 685.720703125 27.1044921875 l 1
 689.306640625 13.7265625 l 1
 669.239257812 8.3505859375 l 1
 631.84375 16.66015625 l 1
 631.84375 16.66015625 541.83203125 24.9990234375 536.279296875 24.96875 c 0
 410.817382812 24.322265625 289.475585938 0.7822265625 166.482421875 0.0390625 c 1
 111.975585938 -11.3056640625 79.7470703125 -11.6904296875 76.3427734375 0.658203125 c 2
 72.7568359375 14.037109375 l 2
 70.5361328125 22.09375 80.5869140625 35.57421875 104.729492188 54.96875 c 1
 250.153320312 320.888671875 l 1
 290.6796875 376.611328125 l 1
 269.470703125 373.41796875 248.688476562 370.986328125 228.80859375 369.8359375 c 0
 223.421875 369.524414062 219.923828125 369.017578125 211.885742188 367.366210938 c 0
 206.969726562 365.7890625 197.434570312 362.182617188 193.350585938 360.07421875 c 2
 194.861328125 354.436523438 l 1
 174.793945312 349.060546875 l 2
 170.510742188 348.919921875 168.466796875 349.390625 168.16015625 350.275390625 c 2
 164.575195312 363.654296875 l 2
 164.524414062 363.801757812 164.532226562 364.001953125 164.532226562 364.001953125 c 2
 165.369140625 367.29296875 180.983398438 373.66015625 197.995117188 378.248046875 c 2
 218.061523438 383.625 l 1
 217.850585938 383.57421875 l 2
 219.192382812 383.916992188 219.565429688 384.01171875 220.903320312 384.370117188 c 0
 229.453125 386.548828125 238.146484375 388.177734375 245.291992188 388.590820312 c 0
 264.173828125 389.684570312 283.87109375 391.931640625 303.973632812 394.891601562 c 1
 416.353515625 549.413085938 l 1
 577.484375 777.354492188 l 1
 428.249023438 781.180664062 l 1xec
 21.345703125 768.97265625 l 1
 6.361328125 764.958007812 l 2
 2.76171875 764.022460938 1.1171875 764.188476562 -4.5869140625 764.666992188 c 2
 -20.4912109375 760.405273438 l 1xf4
EndSplineSet
Validated: 33
EndChar

StartChar: bracketleft
Encoding: 91 91 58
Width: 381
VWidth: 0
Flags: W
HStem: 1.12109 11.8818<30.6143 186.373 246.361 366.559> 778.973 20G<219.903 369.743>
VStem: 9.25684 21.3574<16.5674 246.389> 16.6377 21.0049<24.6743 434.026 613.436 727.149> 27.707 21.0049<364.956 654.201>
LayerCount: 2
Fore
SplineSet
369.743164062 787.091796875 m 1xd0
 351.920898438 782.31640625 l 1
 189.561523438 760.17578125 l 1
 37.642578125 727.149414062 l 1
 37.642578125 720.670898438 l 1xd0
 48.7119140625 539.860351562 l 1xc8
 37.6416015625 252.041015625 l 1
 30.6142578125 16.5673828125 l 1
 237.409179688 9.3115234375 l 1
 366.55859375 13.0029296875 l 1
 369.743164062 1.12109375 l 1
 351.920898438 -3.654296875 l 1
 222.770507812 -7.34375 l 1
 12.44140625 0.03515625 l 1
 9.2568359375 11.9169921875 l 1xe0
 16.6376953125 259.146484375 l 1xd0
 27.70703125 546.966796875 l 1xc8
 16.6376953125 727.776367188 l 1
 16.6376953125 735.157226562 l 1
 34.458984375 739.931640625 l 1
 204.19921875 776.831054688 l 1
 366.559570312 798.97265625 l 1
 369.743164062 787.091796875 l 1xd0
EndSplineSet
Validated: 1
EndChar

StartChar: backslash
Encoding: 92 92 59
Width: 450
VWidth: 0
Flags: W
HStem: 781.044 20G<17.1494 90.0771>
VStem: 17.1494 20.7197<781.68 797.368>
LayerCount: 2
Fore
SplineSet
17.1494140625 795.4921875 m 1
 37.869140625 801.043945312 l 1
 142.28515625 565.91015625 318.64453125 312.91015625 411.098632812 54.583984375 c 1
 432.548828125 15.974609375 l 1
 436.249023438 2.162109375 l 1
 415.53125 -3.390625 l 1
 394.080078125 35.2197265625 l 1
 301.625976562 293.544921875 125.266601562 546.544921875 20.8515625 781.6796875 c 1
 17.1494140625 795.4921875 l 1
EndSplineSet
Validated: 1
EndChar

StartChar: bracketright
Encoding: 93 93 60
Width: 540
VWidth: 0
Flags: W
HStem: 788.548 11.2334<7.03613 166.198>
VStem: 178.477 19.8604<681.713 773.039>
LayerCount: 2
Fore
SplineSet
4.0263671875 799.78125 m 1
 20.876953125 804.295898438 l 1
 167.4140625 800.807617188 l 2
 183.256835938 800.397460938 190.25390625 795.086914062 193.2578125 784.10546875 c 2
 196.268554688 772.870117188 l 2
 196.397460938 772.40234375 196.544921875 771.8046875 196.544921875 771.8046875 c 2
 197.822265625 766.327148438 198.166992188 761.4765625 198.336914062 754.68359375 c 0
 200.048828125 686.083007812 222.575195312 619.264648438 236.71484375 552.321289062 c 1
 261.137695312 255.756835938 l 1
 268.1171875 130.15234375 l 1
 289.049804688 35.94921875 l 1
 282.072265625 32.4609375 l 1
 265.220703125 27.9462890625 l 1
 129.151367188 0.0341796875 l 1
 104.727539062 -3.455078125 l 1
 101.717773438 7.7783203125 l 1
 118.568359375 12.29296875 l 1
 142.991210938 15.7822265625 l 1
 265.802734375 40.9755859375 l 1
 269.189453125 42.6689453125 l 1
 248.255859375 136.872070312 l 1
 241.27734375 262.475585938 l 1
 216.85546875 559.041015625 l 1
 202.713867188 625.982421875 180.1875 692.801757812 178.4765625 761.40234375 c 0
 178.369140625 765.685546875 178.056640625 770.305664062 177.662109375 773.174804688 c 0
 174.017578125 780.514648438 167.143554688 784.70703125 153.57421875 785.05859375 c 2
 7.0361328125 788.547851562 l 1
 4.0263671875 799.78125 l 1
EndSplineSet
Validated: 1
EndChar

StartChar: asciicircum
Encoding: 94 94 61
Width: 292
VWidth: 0
Flags: W
HStem: 609.229 184.542
VStem: 10.0498 14.4883<661.111 673.752>
LayerCount: 2
Fore
SplineSet
10.0498046875 657.229492188 m 1
 7.4609375 666.888671875 l 1
 7.69140625 685.071289062 74.962890625 729.859375 100.4609375 756.888671875 c 0
 114.364257812 771.626953125 128.018554688 778.541015625 142.461914062 789.888671875 c 1
 156.950195312 793.771484375 l 1
 240.950195312 661.771484375 l 1
 276.950195312 622.770507812 l 1
 279.538085938 613.111328125 l 1
 265.049804688 609.229492188 l 1
 229.049804688 648.229492188 l 1
 147.973632812 775.635742188 l 1
 138.653320312 769.12890625 127.604492188 761.783203125 117.538085938 751.111328125 c 0
 92.0400390625 724.08203125 24.7685546875 679.293945312 24.5380859375 661.111328125 c 1
 10.0498046875 657.229492188 l 1
EndSplineSet
Validated: 1
EndChar

StartChar: underscore
Encoding: 95 95 62
Width: 299
VWidth: 0
Flags: W
HStem: 0.305664 49.9287
VStem: 11.2529 274.631
LayerCount: 2
Fore
SplineSet
11.2529296875 13.15234375 m 1
 30.5234375 18.314453125 l 1
 218.053710938 38.2646484375 l 1
 285.883789062 50.234375 l 1
 289.327148438 37.3876953125 l 1
 270.056640625 32.2255859375 l 1
 202.2265625 20.2548828125 l 1
 14.6962890625 0.3056640625 l 1
 11.2529296875 13.15234375 l 1
EndSplineSet
Validated: 1
EndChar

StartChar: grave
Encoding: 96 96 63
Width: 238
VWidth: 0
Flags: W
HStem: 629.795 169.958
VStem: 16.8105 28.2598<776.794 794.362>
LayerCount: 2
Fore
SplineSet
48.2021484375 784.208007812 m 1
 64.2001953125 769.127929688 91.880859375 744.260742188 97.0234375 739.575195312 c 2
 204.75390625 647.8046875 l 1
 208.1953125 634.958007812 l 1
 188.92578125 629.794921875 l 1
 81.1953125 721.565429688 l 2
 74.107421875 728.0234375 24.658203125 772.392578125 21.5029296875 777.091796875 c 2
 21.736328125 776.6796875 l 2
 20.2744140625 779.17578125 20.5673828125 778.450195312 20.25390625 779.500976562 c 2
 16.810546875 792.34765625 l 2
 16.5234375 793.311523438 16.6259765625 793.840820312 17.4228515625 794.387695312 c 0
 17.4287109375 794.390625 17.7314453125 794.52734375 18.0302734375 794.590820312 c 2
 37.2998046875 799.752929688 l 2
 39.6611328125 800.258789062 44.3662109375 798.302734375 45.0703125 795.891601562 c 2
 48.2021484375 784.208007812 l 1
EndSplineSet
Validated: 1
EndChar

StartChar: a
Encoding: 97 97 64
Width: 450
VWidth: 0
Flags: W
HStem: -1.01758 17.8711<129.24 212.019> 398.843 17.8701<117.112 200.939>
VStem: 17.7646 22.5371<141.682 298.969> 306.773 19.1201<371.729 377.834> 373.987 22.624<296.21 321.016>
LayerCount: 2
Fore
SplineSet
347.967773438 342.127929688 m 1
 373.987304688 296.209960938 l 2
 373.73046875 306.19921875 372.736328125 315.505859375 371.732421875 321.290039062 c 0
 366.388671875 335.208984375 357.829101562 339.1953125 347.967773438 342.127929688 c 1
395.638671875 258.002929688 m 2
 396.73828125 256.060546875 l 1
 460.499023438 143.541015625 l 1
 523.84375 20.8125 l 1
 527.2578125 8.0654296875 l 1
 508.137695312 2.9423828125 l 1
 444.793945312 125.669921875 l 1
 390.442382812 221.584960938 l 1
 371.501953125 128.557617188 310.848632812 34.30078125 220.6328125 10.0869140625 c 2
 201.512695312 4.96484375 l 2
 187.018554688 1.0732421875 171.758789062 -1.017578125 155.787109375 -1.017578125 c 0
 87.15625 -1.0166015625 51.4453125 57.154296875 34.4970703125 120.35546875 c 2
 31.08203125 133.102539062 l 2
 21.294921875 169.599609375 17.7646484375 207.774414062 17.7646484375 237.39453125 c 0
 17.763671875 302.84375 48.87109375 389.57421875 117.110351562 408.0390625 c 2
 136.231445312 413.163085938 l 2
 144.760742188 415.47265625 153.87109375 416.712890625 163.573242188 416.712890625 c 0
 192.954101562 416.712890625 263.602539062 399.942382812 308.504882812 369.49609375 c 1
 306.7734375 375.958984375 l 1
 325.893554688 381.081054688 l 1
 330.133789062 375.676757812 334.547851562 371.908203125 338.997070312 369.14453125 c 0
 359.461914062 356.428710938 380.677734375 364.995117188 389.252929688 333.551757812 c 2
 392.666992188 320.8046875 l 2
 395.18359375 311.577148438 396.611328125 298.905273438 396.611328125 281.236328125 c 0
 396.611328125 276.28125 396.474609375 271.274414062 396.200195312 266.227539062 c 0
 396.055664062 263.5546875 395.86328125 260.754882812 395.638671875 258.002929688 c 2
371.943359375 254.23046875 m 2
 369.078125 259.288085938 l 1
 345.38671875 301.09765625 l 1
 326.024414062 295.908203125 l 1
 322.607421875 308.655273438 l 1
 322.607421875 316.57421875 l 2
 322.607421875 317.672851562 322.462890625 319.827148438 322.462890625 319.827148438 c 1
 300.454101562 368.344726562 186.25390625 398.84375 147.869140625 398.842773438 c 0
 142.020507812 398.842773438 134.2734375 398.073242188 130.475585938 397.44921875 c 0
 68.2802734375 373.680664062 40.2998046875 292.137695312 40.3017578125 229.76953125 c 0
 40.3017578125 201.934570312 43.5927734375 166.064453125 51.9404296875 131.997070312 c 0
 69.529296875 71.279296875 105.120117188 16.853515625 171.491210938 16.853515625 c 0
 183.836914062 16.853515625 197.327148438 18.41796875 207.525390625 20.5283203125 c 0
 298.588867188 50.66796875 357.188476562 151.735351562 370.9609375 246.83203125 c 0
 371.311523438 249.255859375 371.645507812 251.76953125 371.943359375 254.23046875 c 2
EndSplineSet
Validated: 33
EndChar

StartChar: b
Encoding: 98 98 65
Width: 370
VWidth: 0
Flags: W
HStem: 0.0390625 18.0498<88.054 202.68> 407.938 18.0498<135.716 215.597>
VStem: 17.2764 19.3145<512.832 664.752> 33.2725 22.7627<181.965 252.716> 41.2695 38.7607<42.8499 223.534 226.081 233.954> 57.3555 22.6748<179.623 252.578> 357.191 22.7646<211.898 282.727>
LayerCount: 2
Fore
SplineSet
56.8505859375 253.296875 m 1xd6
 56.2451171875 244.895507812 56.03515625 237.526367188 56.03515625 229.157226562 c 0
 56.0361328125 212.682617188 56.5703125 195.357421875 57.35546875 179.623046875 c 1
 57.36328125 196.358398438 57.294921875 215.220703125 57.2666015625 232.859375 c 0
 57.25390625 240.063476562 57.1533203125 245.802734375 56.8505859375 253.296875 c 1xd6
66.875 369.221679688 m 1
 82.2138671875 391.579101562 103.56640625 408.543945312 132.428710938 416.247070312 c 2
 151.743164062 421.422851562 l 2
 162.866210938 424.392578125 175.108398438 425.987304688 188.551757812 425.987304688 c 0
 257.002929688 425.987304688 353.67578125 346.98828125 373.048828125 274.776367188 c 2
 376.499023438 261.900390625 l 2
 376.643554688 261.359375 376.818359375 260.684570312 376.818359375 260.68359375 c 0
 379.03125 251.922851562 379.956054688 244.969726562 379.956054688 237.157226562 c 0
 354.451171875 149.37890625 297.923828125 34.2275390625 204.04296875 8.8466796875 c 2
 184.729492188 3.6708984375 l 2
 184.130859375 3.509765625 183.3828125 3.3125 183.380859375 3.3125 c 0
 164.39453125 -1.5634765625 145.6953125 -2.7841796875 124.700195312 0.0390625 c 0
 100.331054688 -2.7177734375 72.390625 1.77734375 58.5380859375 20.6982421875 c 1
 47.41796875 17.7177734375 l 2
 47.3515625 17.6962890625 47.26953125 17.685546875 47.26953125 17.685546875 c 2
 46.7275390625 17.7021484375 46.3642578125 18.326171875 46.015625 19.66796875 c 2
 42.56640625 32.5439453125 l 2
 41.7978515625 35.5068359375 41.3173828125 41.9482421875 41.26953125 52.904296875 c 0xea
 41.0009765625 114.30078125 33.2724609375 174.866210938 33.2724609375 236.858398438 c 0xd2
 33.2724609375 257.935546875 35.0830078125 279.389648438 39.2421875 299.849609375 c 0
 41.75 312.184570312 45.2412109375 324.5 49.6318359375 335.969726562 c 0
 48.775390625 342.888671875 47.888671875 349.684570312 46.94140625 356.682617188 c 0
 31.9501953125 467.38671875 7.013671875 586.509765625 17.2763671875 664.751953125 c 1
 36.5908203125 669.92578125 l 1xe2
 40.041015625 657.05078125 l 1
 30.3974609375 583.530273438 51.81640625 474.03125 66.875 369.221679688 c 1
72.3955078125 328.268554688 m 0
 74.1162109375 314.373046875 75.6396484375 300.609375 76.8525390625 287.239257812 c 0
 78.8095703125 265.666992188 79.9970703125 244.833007812 80.0302734375 225.158203125 c 0xc6
 80.087890625 190.508789062 80.029296875 155.8359375 80.0302734375 121.184570312 c 0
 82.2548828125 110.481445312 77.4091796875 67.14453125 72.4794921875 41.6416015625 c 1
 85.7705078125 20.515625 115.193359375 15.21875 140.563476562 18.0888671875 c 0
 158.233398438 15.7138671875 174.94921875 16.3203125 190.557617188 19.384765625 c 0
 278.338867188 49.705078125 332.383789062 159.475585938 357.19140625 244.856445312 c 0
 357.19140625 250.875976562 356.541015625 256.883789062 355.254882812 263.182617188 c 0
 332.47265625 332.3046875 239.563476562 407.9375 172.688476562 407.9375 c 0
 162.975585938 407.9375 154.963867188 407.25390625 145.640625 405.567382812 c 0
 116.333007812 395.021484375 94.318359375 373.147460938 80.0341796875 345.364257812 c 0
 77.265625 339.978515625 74.6826171875 334.158203125 72.3955078125 328.268554688 c 0
EndSplineSet
Validated: 33
EndChar

StartChar: c
Encoding: 99 99 66
Width: 360
VWidth: 0
Flags: W
HStem: 0.269531 21G<129.098 179.342> 419.997 15.9199<144.209 214.108>
VStem: 17.834 18.6777<170.8 290.199>
LayerCount: 2
Fore
SplineSet
299.26171875 361.073242188 m 1
 282.227539062 356.508789062 l 1
 246.056640625 376.551757812 227.387695312 426.911132812 172.88671875 419.997070312 c 0
 165.60546875 419.997070312 156.994140625 419.060546875 151.373046875 418.012695312 c 0
 73.8701171875 390.288085938 31.2001953125 286.30078125 31.203125 209.407226562 c 0
 31.203125 198.15625 33.181640625 184.404296875 36.51171875 170.571289062 c 0
 56.58984375 102.020507812 109.936523438 19.89453125 172.056640625 16.3115234375 c 1
 236.015625 38.595703125 326.123046875 55.53125 367.362304688 96.27734375 c 1
 384.397460938 100.840820312 l 1
 387.439453125 89.4833984375 l 1
 343.361328125 45.9326171875 243.20703125 29.5185546875 179.341796875 4.833984375 c 1
 162.305664062 0.26953125 l 1
 95.8896484375 0.26953125 40.498046875 88.8271484375 21.1826171875 159.393554688 c 2
 21.1826171875 159.393554688 21.0126953125 160.024414062 20.8779296875 160.52734375 c 2
 17.833984375 171.881835938 l 2
 13.4716796875 188.2109375 11.1240234375 203.447265625 11.1240234375 216.19921875 c 0
 11.123046875 295.578125 56.8759765625 404.022460938 138.639648438 427.115234375 c 2
 138.639648438 427.115234375 139.284179688 427.293945312 139.798828125 427.430664062 c 2
 156.834960938 431.99609375 l 2
 166.375976562 434.547851562 176.396484375 435.916992188 186.87890625 435.916992188 c 0
 241.37890625 442.831054688 260.047851562 392.473632812 296.21875 372.428710938 c 1
 299.26171875 361.073242188 l 1
EndSplineSet
Validated: 33
EndChar

StartChar: d
Encoding: 100 100 67
Width: 360
VWidth: 0
Flags: W
HStem: 0.0390625 18.2139<79.2396 129.685> 403.938 18.0508<142.61 218.634>
VStem: 2.94727 22.7646<75.4655 221.552> 272.559 22.291<389.815 421.591>
LayerCount: 2
Fore
SplineSet
271.390625 358.674804688 m 0
 270.295898438 359.807617188 269.204101562 360.907226562 268.08203125 362.009765625 c 0
 243.384765625 386.2734375 211.888671875 403.302734375 174.35546875 403.938476562 c 0
 167.134765625 403.938476562 159.010742188 403.120117188 153.274414062 402.12890625 c 0
 57.3955078125 366.903320312 25.7119140625 210.413085938 25.7119140625 129.182617188 c 0
 25.7119140625 113.146484375 27.341796875 96.7158203125 30.1689453125 83.7412109375 c 0
 42.4990234375 45.4052734375 70.2255859375 20.5693359375 118.913085938 18.2529296875 c 1
 244.668945312 78.0458984375 265.211914062 218.456054688 271.390625 358.674804688 c 0
306.342773438 353.731445312 m 1
 302.888671875 376.44140625 299.577148438 399.116210938 296.499023438 421.590820312 c 1
 295.993164062 404.176757812 295.498046875 386.185546875 294.849609375 368.392578125 c 0
 296.305664062 366.697265625 297.751953125 364.958007812 299.131835938 363.241210938 c 0
 301.498046875 360.297851562 304.022460938 356.958007812 306.342773438 353.731445312 c 1
272.55859375 389.815429688 m 1
 273.786132812 427.767578125 274.40234375 461.033203125 276.208984375 495.256835938 c 0
 277.341796875 516.69921875 278.954101562 537.767578125 281.385742188 557.596679688 c 0
 279.759765625 579.494140625 278.876953125 599.166992188 278.876953125 616.763671875 c 2
 278.876953125 616.763671875 287.703125 661.47265625 293.34375 682.998046875 c 0
 295.079101562 689.622070312 296.513671875 694.05078125 297.295898438 694.305664062 c 2
 316.610351562 699.481445312 l 2
 316.782226562 699.537109375 316.923828125 699.391601562 317.029296875 699.020507812 c 2
 320.479492188 686.14453125 l 2
 321.654296875 682.016601562 318.435546875 650.091796875 305.640625 561.07421875 c 0
 305.086914062 557.227539062 304.6328125 553.830078125 304.149414062 549.896484375 c 0
 305.654296875 529.635742188 307.771484375 507.704101562 310.306640625 485.137695312 c 0
 316.423828125 430.717773438 325.110351562 370.84765625 334.146484375 313.512695312 c 0
 350.672851562 208.6328125 368.3671875 112.236328125 373.625 73.1962890625 c 1
 357 25 l 1
 350.860351562 80.8974609375 l 2
 347.057617188 115.516601562 331.536132812 196.462890625 316.682617188 288.075195312 c 0
 310.671875 302.76171875 302.783203125 317.729492188 293.217773438 331.763671875 c 1
 285.713867188 193.875976562 260.475585938 59.490234375 129.684570312 5.2138671875 c 1
 110.37109375 0.0390625 l 1
 53.81640625 0.0390625 24.802734375 27.8916015625 12.7685546875 70.841796875 c 0
 12.7685546875 70.8427734375 12.5771484375 71.5380859375 12.4267578125 72.09765625 c 2
 8.9775390625 84.9736328125 l 2
 4.7919921875 100.645507812 2.947265625 118.186523438 2.947265625 136.883789062 c 0
 2.947265625 220.46875 36.3603515625 383.721679688 139.1484375 412.594726562 c 2
 139.1484375 412.594726562 139.866210938 412.79296875 140.446289062 412.9453125 c 2
 159.759765625 418.12109375 l 2
 169.3125 420.642578125 179.45703125 421.989257812 190.21875 421.989257812 c 0
 221.951171875 421.452148438 249.369140625 409.196289062 272.010742188 390.7578125 c 0
 272.379882812 390.45703125 272.516601562 390.102539062 272.55859375 389.815429688 c 1
EndSplineSet
Validated: 33
EndChar

StartChar: e
Encoding: 101 101 68
Width: 315
VWidth: 0
Flags: W
HStem: 0.0322266 14.8955<140.199 204.47> 270.631 14.8965<40.9648 208.007> 402.632 14.8955<148.527 219.5>
VStem: 0.507812 18.7852<136.899 246.124>
LayerCount: 2
Fore
SplineSet
40.96484375 285.52734375 m 1
 56.044921875 285.52734375 l 1
 138.545898438 285.52734375 l 2
 190.868164062 289.563476562 245.110351562 293.823242188 297.522460938 304.75 c 0
 313.3125 310.510742188 319.044921875 318.620117188 318.880859375 327.479492188 c 0
 302.897460938 360.943359375 222.858398438 402.631835938 184.854492188 402.631835938 c 0
 172.979492188 402.631835938 161.150390625 401.294921875 150.989257812 399.189453125 c 0
 98.2041015625 381.888671875 61.9111328125 337.490234375 40.96484375 285.52734375 c 1
39.091796875 268.302734375 m 2
 34.2490234375 267.004882812 l 1
 24.23828125 236.03515625 19.29296875 203.228515625 19.29296875 172.602539062 c 0
 19.29296875 163.95703125 20.515625 154.459960938 22.4169921875 145.956054688 c 0
 42.8369140625 79.857421875 111.641601562 14.927734375 178.145507812 14.927734375 c 0
 186.899414062 15.7451171875 197.1484375 17.4130859375 204.920898438 19.142578125 c 0
 235.102539062 28.6982421875 261.71484375 44.7958984375 281.006835938 70.0576171875 c 1
 296.9453125 74.328125 l 1
 299.791992188 63.7021484375 l 1
 278.752929688 36.15234375 248.186523438 19.1728515625 215.841796875 10.5029296875 c 2
 199.903320312 6.232421875 l 2
 188.396484375 3.1474609375 176.6640625 1.115234375 165.0546875 0.0322265625 c 0
 97.0986328125 0.0322265625 26.8798828125 67.5361328125 8.033203125 135.498046875 c 2
 8.033203125 135.498046875 7.8740234375 136.080078125 7.7490234375 136.544921875 c 2
 4.90234375 147.169921875 l 2
 2.044921875 157.881835938 0.5078125 168.569335938 0.5078125 178.95703125 c 0
 0.5078125 212.390625 5.3955078125 244.516601562 17.8564453125 280.439453125 c 0
 18.09765625 281.110351562 18.23046875 281.481445312 18.3115234375 281.705078125 c 1
 17.515625 281.426757812 17.0068359375 281.2578125 17.0068359375 281.2578125 c 1
 17.203125 281.361328125 17.701171875 281.564453125 18.3505859375 281.817382812 c 0
 18.474609375 282.163085938 18.4267578125 282.029296875 18.6396484375 282.6171875 c 0
 39.681640625 340.732421875 78.9228515625 390.91796875 139.15234375 407.634765625 c 2
 139.15234375 407.634765625 139.7734375 407.8046875 140.272460938 407.9375 c 2
 156.2109375 412.208984375 l 2
 169.180664062 415.666015625 183.087890625 417.52734375 197.9453125 417.52734375 c 0
 237.756835938 417.52734375 323.370117188 372.15234375 333.861328125 337.516601562 c 2
 333.861328125 337.516601562 333.96875 337.141601562 334.048828125 336.841796875 c 2
 336.896484375 326.216796875 l 2
 340.236328125 313.631835938 333.112304688 302.670898438 309.375976562 296.219726562 c 2
 293.4375 291.94921875 l 2
 291.459960938 291.412109375 289.366210938 290.905273438 287.154296875 290.432617188 c 0
 232.844726562 278.811523438 178.752929688 274.743164062 125.455078125 270.631835938 c 2
 42.9541015625 270.630859375 l 1
 38.4677734375 270.631835938 l 2
 38.80078125 269.389648438 38.9013671875 269.009765625 39.091796875 268.302734375 c 2
27.0078125 285.004882812 m 2
 27.0078125 285.004882812 27.296875 285.313476562 24.4814453125 284.080078125 c 1
 25.2353515625 284.356445312 26.07421875 284.6640625 27.0078125 285.004882812 c 2
EndSplineSet
Validated: 33
EndChar

StartChar: f
Encoding: 102 102 69
Width: 218
VWidth: 0
Flags: W
HStem: -0.962891 21G<73.8271 95.1738> 382.811 15.877<-76.1627 61.5752> 397.473 20G<203.718 225.064>
VStem: 77.0625 18.1113<3.88867 11.1113 26.126 123.736 239.861 306.93> 279.562 18.1113<545.764 558.79>
LayerCount: 2
Fore
SplineSet
73.0830078125 27.26171875 m 0xb8
 72.951171875 98.04296875 65.431640625 169.512695312 70.0771484375 239.861328125 c 0
 71.53125 261.880859375 65.353515625 357.49609375 63.1103515625 382.810546875 c 1
 1.9130859375 378.829101562 -43.689453125 380.389648438 -86.185546875 375.3984375 c 1
 -89.4208984375 387.47265625 l 1
 -71.310546875 392.32421875 l 1
 -32.6015625 396.870117188 5.5986328125 395.154296875 61.5751953125 398.6875 c 1xd8
 47.6708984375 532.719726562 14.611328125 623.057617188 141.326171875 689.859375 c 1
 159.4375 694.712890625 l 1
 234.580078125 698.451171875 265.31640625 616.951171875 294.439453125 559.712890625 c 1
 297.673828125 547.638671875 l 1
 279.5625 542.787109375 l 1
 251.466796875 598.006835938 222.125976562 674.034179688 154.061523438 677.803710938 c 1
 40.208984375 609.666992188 67.80078125 529.09375 82 400 c 1
 110.01171875 401.840820312 137.384765625 403.837890625 161.829101562 406.22265625 c 0
 173.141601562 407.326171875 185.842773438 408.2890625 196.794921875 409.158203125 c 2
 203.717773438 412.62109375 l 1
 221.829101562 417.47265625 l 1
 225.064453125 405.3984375 l 1
 210.064453125 397.8984375 l 1
 191.954101562 393.046875 l 2
 175.486328125 391.674804688 161.565429688 390.720703125 146.954101562 389.294921875 c 0
 127.342773438 387.3828125 105.846679688 385.71875 83.6474609375 384.185546875 c 1
 86.423828125 355.73046875 93.0400390625 257.142578125 91.4228515625 232.638671875 c 0
 86.744140625 161.728515625 95.1728515625 90.0859375 95.1728515625 18.888671875 c 2
 95.173828125 3.888671875 l 1
 77.0625 -0.962890625 l 1
 73.8271484375 11.111328125 l 1
 70.0771484375 26.111328125 l 2
 71.28515625 26.4345703125 73.3818359375 26.1484375 73.0830078125 27.26171875 c 0xb8
EndSplineSet
Validated: 33
EndChar

StartChar: g
Encoding: 103 103 70
Width: 405
VWidth: 0
Flags: W
HStem: -353.354 20.9883<171.986 305.885> 0.0449219 20.9893<128.384 228.288> 376.695 20.9883<200.553 288.438>
VStem: -33.2764 20.1621<-232.068 -161.683> 20.8643 26.4697<85.6009 207.786> 388.216 26.4678<188.908 241.153> 411.465 26.4688<-221.076 3.87475>
LayerCount: 2
Fore
SplineSet
350.22265625 355.8359375 m 1xfa
 354.235351562 340.862304688 l 1
 351.826171875 337.849609375 l 1
 363.848632812 327.552734375 399.834960938 255.34765625 408.696289062 222.518554688 c 2
 412.70703125 207.546875 l 2
 413.893554688 203.146484375 414.594726562 199.453125 414.68359375 196.711914062 c 0xfc
 414.68359375 182.600585938 412.66796875 169.0546875 408.939453125 156.150390625 c 0
 406.764648438 148.623046875 403.888671875 141.05859375 400.552734375 133.861328125 c 0
 402.03125 127.358398438 403.5 120.754882812 404.888671875 114.329101562 c 0
 425.1484375 20.66015625 437.93359375 -74.6220703125 437.93359375 -170.637695312 c 0
 437.93359375 -244.725585938 376.801757812 -323.930664062 306.584960938 -343.022460938 c 2
 284.126953125 -349.0390625 l 2
 283.438476562 -349.2265625 282.578125 -349.452148438 282.577148438 -349.452148438 c 0
 271.776367188 -352.19921875 262.84765625 -353.354492188 252.725585938 -353.354492188 c 0
 158.173828125 -348.051757812 -5.9892578125 -330.702148438 -33.2763671875 -228.787109375 c 2
 -37.2880859375 -213.815429688 l 2
 -41.4033203125 -198.444335938 -42.404296875 -181.150390625 -39.583984375 -161.682617188 c 1
 -17.126953125 -155.6640625 l 1
 -13.1142578125 -170.637695312 l 1
 -15.466796875 -186.875 -15.0439453125 -202.618164062 -12.560546875 -215.197265625 c 0
 20.78125 -309.934570312 178.224609375 -327.153320312 271.172851562 -332.366210938 c 0
 277.708984375 -332.366210938 284.848632812 -331.704101562 290.888671875 -330.649414062 c 0
 355.668945312 -306.845703125 411.46484375 -232.515625 411.46484375 -161.682617188 c 0
 411.465820312 -72.25390625 400.404296875 16.38671875 382.512695312 103.834960938 c 1
 350.041015625 60.37109375 297.359375 28.9296875 244.267578125 14.6767578125 c 2
 221.80859375 8.66015625 l 2
 200.79296875 3.0185546875 179.694335938 0.044921875 159.727539062 0.044921875 c 0
 104.3203125 0.044921875 43.708984375 38.291015625 28.4921875 93.990234375 c 2
 24.48046875 108.961914062 l 2
 22.1328125 117.556640625 20.8662109375 126.567382812 20.8642578125 135.916992188 c 0
 20.8662109375 237.662109375 85.396484375 355.869140625 190.71484375 385.149414062 c 2
 190.71484375 385.149414062 191.600585938 385.389648438 192.3125 385.579101562 c 2
 214.770507812 391.595703125 l 2
 229.701171875 395.552734375 245.426757812 397.68359375 261.873046875 397.68359375 c 0
 295.9921875 397.68359375 329.576171875 381.224609375 338.580078125 352.715820312 c 1
 350.22265625 355.8359375 l 1xfa
387.235351562 188.721679688 m 1
 387.854492188 194.276367188 388.215820312 200.178710938 388.215820312 205.666992188 c 0
 388.177734375 206.7890625 387.986328125 208.370117188 387.783203125 209.649414062 c 0
 383.712890625 221.916015625 376.87109375 238.247070312 369.833984375 253.413085938 c 1
 372.681640625 243.268554688 375.043945312 234.658203125 377.611328125 225.072265625 c 2
 381.622070312 210.100585938 l 2
 383.499023438 203.090820312 385.399414062 195.858398438 387.235351562 188.721679688 c 1
329.166015625 309.983398438 m 1
 317.827148438 306.9453125 l 2
 316.787109375 308.536132812 316.296875 309.604492188 316.194335938 310.318359375 c 2
 315.672851562 312.264648438 l 1
 313.176757812 311.595703125 l 1
 309.166015625 326.567382812 l 1
 317.91015625 337.499023438 l 1
 306.692382812 362.194335938 275.205078125 376.694335938 243.426757812 376.6953125 c 0
 231.084960938 376.6953125 216.6953125 375.0390625 207.133789062 373.120117188 c 0
 107.169921875 338.75390625 47.3359375 225.296875 47.333984375 126.963867188 c 0
 47.333984375 120.692382812 48.2236328125 112.766601562 49.09765625 108.038085938 c 0
 67.4384765625 55.8896484375 125.123046875 21.0341796875 178.172851562 21.0341796875 c 0
 194.512695312 21.0341796875 212.208007812 23.205078125 228.8828125 26.857421875 c 0
 283.9375 44.119140625 337.048828125 79.525390625 365.884765625 127.439453125 c 0
 368.768554688 132.231445312 371.606445312 137.564453125 374.083007812 142.813476562 c 0
 371.934570312 152.258789062 369.776367188 161.41015625 367.487304688 170.821289062 c 0
 364.13671875 184.6015625 360.641601562 198.342773438 357.01953125 212.041015625 c 0
 350.901367188 234.572265625 343.591796875 259.982421875 336.426757812 283.6953125 c 0
 335.145507812 287.936523438 334.056640625 291.737304688 333.1484375 295.122070312 c 2
 329.166015625 309.983398438 l 1
EndSplineSet
Validated: 33
EndChar

StartChar: h
Encoding: 104 104 71
Width: 384
VWidth: 0
Flags: W
HStem: 396.416 15.8414<216.593 244.998>
VStem: 12.5876 20.7195<443.492 731.372> 375.254 21.5965<9.89818 195.909>
LayerCount: 2
Fore
SplineSet
46.1923928452 763.001963577 m 0
 48.0443011746 749.831392299 l 0
 42.4112263944 742.242978408 l 0
 40.3492256175 731.440121288 l 0
 39.0359724331 720.117750428 l 0
 33.3071192961 544.701489518 l 0
 45.5428080919 367.792170046 l 0
 55.497837792 192.504488049 l 0
 78.1501802895 287.699601957 l 0
 119.763721578 367.224211514 l 0
 195.436886395 408.015510576 l 0
 215.192019595 410.79280764 l 0
 215.830065135 410.882576603 l 0
 216.36720199 410.95667115 l 0
 216.592522541 410.987250488 l 0
 231.368710869 412.257425371 l 0
 246.603020577 412.192954245 l 0
 262.902197797 410.776244843 l 0
 330.953858543 372.756151328 l 0
 370.426408257 313.778870573 l 0
 388.952998314 241.451772608 l 0
 390.803617497 228.281359618 l 0
 396.318465122 152.766626813 l 0
 396.850725015 77.6747987003 l 0
 399.386680084 9.89817729105 l 0
 379.630416025 7.12232766096 l 0
 377.779796843 20.2927406513 l 0
 375.254200961 86.0191756265 l 0
 374.803579036 158.887032276 l 0
 370.061237711 232.160340187 l 0
 350.921761548 301.398062793 l 0
 311.586847067 358.07870586 l 0
 244.997842067 394.829823935 l 0
 231.945445289 396.044048451 l 0
 219.526904594 396.41607083 l 0
 207.774435624 395.974415619 l 0
 126.759744389 336.868800465 l 0
 87.6284820748 232.501891356 l 0
 64.872444554 120.874507884 l 0
 60.5850384109 103.156424357 l 0
 55.8378484515 86.5912323856 l 0
 50.5129097306 71.4943229445 l 0
 50.4630059264 71.3790105317 l 0
 50.4366569842 71.3210781083 l 0
 50.3861964701 71.1657242849 l 0
 49.9585503906 67.2943408319 l 0
 49.5118846139 63.4140922918 l 0
 49.0554228369 59.613387222 l 0
 47.0241147252 40.6328918928 l 0
 45.7243020785 21.8782740913 l 0
 44.7260461383 2.52678950304 l 0
 44.4405019241 0.507843755803 l 0
 44.2167202076 -0.691388537377 l 0
 44.0531939861 -1.12005361883 l 0
 24.2967716399 -3.89719239578 l 0
 24.2731924164 -3.89561453017 l 0
 24.2541069409 -3.88059926477 l 0
 24.2462909287 -3.87136541236 l 0
 24.205034929 -3.71712145344 l 0
 22.3544157465 9.45329153685 l 0
 22.3389360415 9.55908974487 l 0
 22.3272240732 9.66065601138 l 0
 22.3226112902 9.70582723158 l 0
 23.0886617238 29.1417199674 l 0
 25.5986037789 60.3081263309 l 0
 28.777436629 81.5343464206 l 0
 30.6814402293 101.416304021 l 0
 32.1191927654 121.367524813 l 0
 33.1268809117 141.384822704 l 0
 27.2114541755 336.390945696 l 0
 12.5876329611 534.287847369 l 0
 17.4290891917 730.512313788 l 0
 18.7423072539 741.834398601 l 0
 20.8042728032 752.636968815 l 0
 26.4374179332 760.22595566 l 0
 46.1923928452 763.001963577 l 0
  Spiro
    46.1924 763.002 v
    48.0443 749.831 v
    42.4112 742.243 o
    40.3492 731.44 o
    39.036 720.118 o
    33.3071 544.701 o
    45.5428 367.792 o
    55.4978 192.504 v
    78.1502 287.7 o
    119.764 367.224 o
    195.437 408.016 [
    215.192 410.793 ]
    215.83 410.883 o
    216.367 410.957 o
    216.593 410.987 o
    231.369 412.257 o
    246.603 412.193 o
    262.902 410.776 o
    330.954 372.756 o
    370.426 313.779 o
    388.953 241.452 [
    390.804 228.281 ]
    396.318 152.767 o
    396.851 77.6748 o
    399.387 9.89818 v
    379.63 7.12233 v
    377.78 20.2927 ]
    375.254 86.0192 o
    374.804 158.887 o
    370.061 232.16 o
    350.922 301.398 o
    311.587 358.079 o
    244.998 394.83 o
    231.945 396.044 o
    219.527 396.416 o
    207.774 395.974 o
    126.76 336.869 o
    87.6285 232.502 o
    64.8724 120.875 o
    60.585 103.156 o
    55.8378 86.5912 o
    50.5129 71.4943 o
    50.463 71.379 o
    50.4367 71.3211 o
    50.3862 71.1657 o
    49.9586 67.2943 o
    49.5119 63.4141 o
    49.0554 59.6134 o
    47.0241 40.6329 o
    45.7243 21.8783 o
    44.726 2.52679 o
    44.4405 0.507844 o
    44.2167 -0.691389 o
    44.0532 -1.12005 [
    24.2968 -3.89719 ]
    24.2732 -3.89561 o
    24.2541 -3.8806 o
    24.2463 -3.87137 v
    24.205 -3.71712 v
    22.3544 9.45329 ]
    22.3389 9.55909 o
    22.3272 9.66066 o
    22.3226 9.70583 v
    23.0887 29.1417 o
    25.5986 60.3081 o
    28.7774 81.5343 o
    30.6814 101.416 o
    32.1192 121.368 o
    33.1269 141.385 o
    27.2115 336.391 o
    12.5876 534.288 o
    17.4291 730.512 o
    18.7423 741.834 o
    20.8043 752.637 o
    26.4374 760.226 [
    0 0 z
  EndSpiro
EndSplineSet
Validated: 1
EndChar

StartChar: i
Encoding: 105 105 72
Width: 139
VWidth: 0
Flags: W
HStem: 409.763 20G<55.1338 76.7598> 560.775 16.0322<69.2504 85.8121>
VStem: 55.1338 21.626<302.165 424.846> 66.5303 21.625<565.692 576.808> 66.5303 21.625<132.319 326.676 565.692 576.808>
LayerCount: 2
Fore
SplineSet
73.4814453125 429.762695312 m 1xe0
 76.759765625 417.529296875 l 1
 84.3583984375 181.98828125 l 1
 88.1572265625 125.002929688 l 1
 80.55859375 -0.3662109375 l 1
 62.2099609375 -5.28125 l 1
 58.9326171875 6.94921875 l 1
 66.53125 132.319335938 l 1
 62.7314453125 189.3046875 l 1
 55.1337890625 424.845703125 l 1
 73.4814453125 429.762695312 l 1xe0
84.87890625 581.723632812 m 1
 88.1552734375 569.491210938 l 1
 88.1552734375 565.692382812 l 1
 69.80859375 560.775390625 l 1
 66.5302734375 573.008789062 l 1
 66.5302734375 576.807617188 l 1xd0
 84.87890625 581.723632812 l 1
EndSplineSet
Validated: 1
EndChar

StartChar: j
Encoding: 106 106 73
Width: 240
VWidth: 0
Flags: W
HStem: -229.082 23.9541<68.0149 119.698>
VStem: 0 30.207<-169.312 -17.416> 122.054 25.6289<380.981 392.064 497.006 497.154> 208.729 30.208<-80.2066 41.5956>
LayerCount: 2
Fore
SplineSet
118.734375 498.879882812 m 1
 122.051757812 504.41015625 l 1
 147.681640625 511.27734375 l 1
 152.258789062 494.19140625 l 1
 146.953125 485.346679688 l 1
 121.32421875 478.479492188 l 2
 119.037109375 479.077148438 118.893554688 479.08203125 116.75390625 479.665039062 c 2
 116.411132812 479.919921875 l 1
 111.833984375 497.005859375 l 2
 111.892578125 497.057617188 111.951171875 497.108398438 112.0078125 497.15625 c 0
 112.045898438 497.124023438 112.1328125 497.119140625 112.275390625 497.150390625 c 2
 118.734375 498.879882812 l 1
147.682617188 398.067382812 m 1
 152.26171875 380.981445312 l 1
 175.254882812 285.4609375 l 1
 217.7109375 106.801757812 l 1
 237.166992188 9.51171875 l 2
 237.729492188 -1.744140625 238.9375 -13.8310546875 238.9375 -27.634765625 c 0
 238.934570312 -79.0439453125 183.618164062 -203.809570312 121.567382812 -220.384765625 c 2
 95.939453125 -227.25 l 2
 91.45703125 -228.448242188 86.9404296875 -229.08203125 82.4091796875 -229.08203125 c 0
 41.7529296875 -229.080078125 19.5 -195.020507812 10.0791015625 -159.348632812 c 2
 5.501953125 -142.262695312 l 2
 1.712890625 -127.916015625 0 -113.309570312 0 -100.553710938 c 0
 0 -72.185546875 1.2099609375 -43.015625 1.7666015625 -17.416015625 c 1
 27.3955078125 -10.548828125 l 1
 31.974609375 -27.634765625 l 1
 31.41796875 -53.2333984375 30.20703125 -82.4052734375 30.20703125 -110.772460938 c 0
 30.20703125 -121.123046875 31.330078125 -132.658203125 33.78125 -144.338867188 c 0
 44.078125 -175.283203125 65.8642578125 -205.127929688 103.458984375 -205.127929688 c 2
 104.348632812 -205.118164062 l 1
 159.629882812 -176.712890625 208.729492188 -66.001953125 208.729492188 -17.416015625 c 0
 208.729492188 -3.61328125 207.521484375 8.4736328125 206.958984375 19.732421875 c 2
 187.502929688 117.020507812 l 1
 145.047851562 295.6796875 l 1
 122.053710938 391.201171875 l 1
 147.682617188 398.067382812 l 1
112.0078125 497.15625 m 1
 116.662109375 501.130859375 111.586914062 497.51171875 112.0078125 497.15625 c 1
EndSplineSet
Validated: 5
EndChar

StartChar: k
Encoding: 107 107 74
Width: 293
VWidth: 0
Flags: W
VStem: 9.92285 22.7129<443.14 688.458> 21.8926 30.6299<231.726 268.572> 21.8945 24.4512<3.76091 208.703> 29.874 22.2451<269.081 275.161 297.244 437.569>
LayerCount: 2
Fore
SplineSet
46.345703125 13.865234375 m 2x20
 48.595703125 5.4677734375 l 1
 48.595703125 5.4677734375 48.33984375 3.8603515625 47.95703125 3.7548828125 c 2
 28.685546875 -1.408203125 l 2
 28.54296875 -1.447265625 28.400390625 -1.330078125 28.193359375 -0.681640625 c 2
 28.193359375 -0.681640625 28.1611328125 -0.5703125 28.1337890625 -0.4697265625 c 2
 24.6923828125 12.376953125 l 2
 23.5166015625 16.7900390625 21.89453125 39.1337890625 21.89453125 128.862304688 c 0x20
 21.89453125 162.25390625 25.572265625 195.798828125 27.935546875 229.212890625 c 0
 27.0673828125 230.049804688 26.201171875 230.885742188 25.3359375 231.725585938 c 2
 21.892578125 244.572265625 l 2x40
 21.892578125 252.345703125 24.9189453125 260.612304688 29.8134765625 268.962890625 c 0
 29.853515625 271.474609375 29.8740234375 273.984375 29.8740234375 276.4921875 c 0x10
 29.8740234375 394.265625 4.2197265625 514.450195312 9.9228515625 631.6015625 c 0
 10.5244140625 643.931640625 -3.1240234375 706.854492188 2.1279296875 710.068359375 c 2
 2.1279296875 710.068359375 2.2431640625 710.1171875 2.3427734375 710.135742188 c 2
 21.6123046875 715.298828125 l 2
 22.9580078125 715.541015625 25.3466796875 712.4375 29.193359375 704.594726562 c 2
 32.63671875 691.748046875 l 1
 24.017578125 689.438476562 l 1
 25.9384765625 668.740234375 33.0859375 633.162109375 32.6357421875 623.91796875 c 0x80
 27.390625 516.181640625 48.666015625 405.87890625 52.119140625 297.244140625 c 1x10
 64.9248046875 310.655273438 79.2685546875 322.99609375 89.724609375 332.3515625 c 0
 150.049804688 386.329101562 206.986328125 447.780273438 249.32421875 515.891601562 c 1
 268.59375 521.0546875 l 1
 272.037109375 508.208007812 l 1
 229.69921875 440.096679688 172.762695312 378.64453125 112.436523438 324.668945312 c 0
 94.736328125 308.833007812 66.2177734375 284.04296875 52.5224609375 260.986328125 c 0x40
 52.404296875 253.858398438 52.13671875 246.721679688 51.767578125 239.575195312 c 1
 111.467773438 182.99609375 175.067382812 132.690429688 240.665039062 82.154296875 c 0
 242.696289062 80.58984375 300.513671875 34.2744140625 300.513671875 34.2744140625 c 1
 308.495117188 18.31640625 l 1
 311.936523438 5.4677734375 l 1
 292.666015625 0.3056640625 l 1
 284.686523438 16.265625 l 1
 284.686523438 16.265625 226.8671875 62.580078125 224.8359375 64.1455078125 c 0
 164.447265625 110.66796875 104.9140625 157.727539062 49.6865234375 208.703125 c 1
 47.404296875 179.537109375 44.60546875 150.298828125 44.607421875 121.177734375 c 0
 44.607421875 56.9404296875 45.4423828125 27.18359375 46.345703125 13.865234375 c 2x20
EndSplineSet
Validated: 33
EndChar

StartChar: l
Encoding: 108 108 75
Width: 187
VWidth: 0
Flags: W
HStem: 707.467 19.3496<60.96 66.9251>
VStem: 38.2432 22.7168<561.668 707.467 711.543 721.653> 94.1045 22.7129<38.3164 328.628> 94.1045 14.7324<38.3164 220.236>
LayerCount: 2
Fore
SplineSet
65.4951171875 722.81640625 m 1xe0
 68.9365234375 709.969726562 l 2
 68.521484375 709.6328125 68.107421875 709.407226562 67.6982421875 709.271484375 c 2
 60.9599609375 707.466796875 l 1
 61.3916015625 560.994140625 98.7060546875 399.444335938 116.817382812 251.119140625 c 1xe0
 108.836914062 -0.2509765625 l 1xd0
 89.56640625 -5.4130859375 l 1
 86.1240234375 7.43359375 l 1
 94.1044921875 258.802734375 l 1
 75.892578125 407.958984375 38.244140625 570.619140625 38.2431640625 717.653320312 c 0
 37.478515625 720.495117188 37.2685546875 721.55859375 37.4765625 721.653320312 c 2
 56.7470703125 726.81640625 l 2
 57.2177734375 727.030273438 59.44921875 722.801757812 62.5703125 722.033203125 c 2
 65.4951171875 722.81640625 l 1xe0
EndSplineSet
Validated: 1
EndChar

StartChar: m
Encoding: 109 109 76
Width: 552
VWidth: 0
Flags: W
HStem: 371.787 16.9258<391.496 455.448> 386.787 16.9258<120.219 186.528> 421.213 20G<9.32715 30.6738>
VStem: -5.67285 40.3506<-0.846002 200.891> 530.576 21.3467<-13.3604 149.433> 541.826 21.3467<70.8498 256.081>
LayerCount: 2
Fore
SplineSet
282.495117188 108.810546875 m 0xb4
 286.25 140.25 286.827148438 182.178710938 286.827148438 188.861328125 c 0
 286.827148438 208.224609375 284.01171875 231.138671875 278.171875 254.791015625 c 0
 259.229492188 319.966796875 216.966796875 386.787109375 147.5625 386.787109375 c 0
 143.002929688 386.787109375 139.6953125 386.572265625 134.600585938 385.83984375 c 0
 89.0283203125 367.98828125 59.5390625 308.134765625 42.0107421875 238.25390625 c 0
 39.353515625 227.661132812 36.876953125 216.446289062 34.677734375 205.327148438 c 0
 36.640625 172.9375 37.22265625 143.553710938 34.423828125 117.889648438 c 0
 21.951171875 3.552734375 17.5380859375 -10.056640625 16.19140625 -10.458984375 c 2
 -1.9189453125 -15.3115234375 l 2
 -1.9423828125 -15.318359375 -1.96875 -15.3212890625 -1.96875 -15.3212890625 c 2
 -2.197265625 -15.318359375 -2.3056640625 -15.017578125 -2.373046875 -14.771484375 c 2
 -5.607421875 -2.697265625 l 1
 -5.623046875 -2.640625 l 2
 -5.6650390625 -2.4658203125 -5.671875 -2.4013671875 -5.6728515625 -2.388671875 c 0
 -5.673828125 41.921875 -3.0224609375 129.87109375 13.3310546875 212.546875 c 0
 12.626953125 224.317382812 11.7431640625 236.45703125 10.80859375 248.344726562 c 0
 5.01953125 321.913085938 -3.423828125 397.40625 9.3271484375 436.361328125 c 1
 27.4375 441.212890625 l 1
 30.673828125 429.139648438 l 1
 19.9267578125 396.30859375 24.216796875 337.749023438 29.3017578125 276.037109375 c 1
 48.400390625 335.877929688 77.6171875 384.0078125 122.06640625 395.974609375 c 2
 140.177734375 400.828125 l 2
 140.630859375 400.94921875 141.200195312 401.095703125 141.201171875 401.095703125 c 0
 148.579101562 402.948242188 154.943359375 403.712890625 162.4375 403.712890625 c 0x74
 233.8203125 403.712890625 276.67578125 333.280273438 294.793945312 265.435546875 c 2
 298.028320312 253.361328125 l 2
 299.513671875 247.80078125 300.853515625 242.157226562 302.01953125 236.62109375 c 1
 303.84765625 248.634765625 305.125976562 257.068359375 305.576171875 260.111328125 c 0
 312.251953125 305.1640625 345.1171875 368.736328125 393.126953125 381.556640625 c 2
 411.23828125 386.408203125 l 2
 416.853515625 387.909179688 422.67578125 388.712890625 428.6875 388.712890625 c 0
 497.002929688 388.712890625 531.921875 334.42578125 548.022460938 274.1640625 c 2
 551.2578125 262.08984375 l 2
 559.971679688 229.470703125 563.172851562 195.098632812 563.172851562 166.639648438 c 0xb4
 563.172851562 126.515625 551.923828125 86.5927734375 551.923828125 46.6396484375 c 2
 551.922851562 -13.3603515625 l 1
 533.8125 -18.212890625 l 1
 530.0625 -14.462890625 l 1
 526.827148438 -2.388671875 l 1
 530.576171875 -1.384765625 l 1xb8
 530.577148438 53.861328125 l 2
 530.577148438 93.814453125 541.826171875 133.736328125 541.826171875 173.861328125 c 0
 541.826171875 200.587890625 538.973632812 232.716796875 531.419921875 263.426757812 c 0
 514.688476562 320.556640625 479.991210938 371.787109375 413.810546875 371.787109375 c 0
 410.888671875 371.787109375 408.91015625 371.680664062 405.428710938 371.26171875 c 0
 363.491210938 353.887695312 333.255859375 295.630859375 326.922851562 252.889648438 c 0
 325.916015625 246.092773438 320.9140625 213.291015625 314.721679688 172.7578125 c 0
 311.182617188 149.594726562 307.5 130.25 303.658203125 102.645507812 c 0
 296.25 56.5 293.193359375 -15.2529296875 285.991210938 -17.0703125 c 2
 267.880859375 -21.9228515625 l 2
 267.774414062 -21.94921875 267.66796875 -21.962890625 267.5625 -21.962890625 c 2
 264.327148438 -9.888671875 l 1
 264.327148438 -9.888671875 277.5 62.75 282.495117188 108.810546875 c 0xb4
EndSplineSet
Validated: 33
EndChar

StartChar: n
Encoding: 110 110 77
Width: 390
VWidth: 0
Flags: W
HStem: 401.751 14.2178<172.564 245.493> 421.169 20G<-13.1074 4.82324>
VStem: 58.9121 15.2129<5.77734 11.8438>
LayerCount: 2
Fore
SplineSet
2.1064453125 441.168945312 m 1
 4.8232421875 431.02734375 l 1
 12.8017578125 365.52734375 35.2646484375 267.333984375 50.8134765625 175.477539062 c 1
 55.6220703125 259.342773438 80.3076171875 384.8828125 168.221679688 408.155273438 c 2
 183.435546875 412.231445312 l 2
 192.633789062 414.666992188 202.525390625 415.96875 213.15625 415.96875 c 0
 304.368164062 415.96875 343.59375 345.986328125 365.934570312 262.725585938 c 2
 368.650390625 252.583007812 l 1
 368.626953125 252.673828125 l 2
 368.635742188 252.642578125 368.650390625 252.612304688 368.650390625 252.583007812 c 0
 368.8125 251.977539062 368.869140625 251.763671875 369.040039062 251.120117188 c 0
 386.307617188 186.072265625 393.74609375 111.80859375 407.126953125 58.962890625 c 0
 411.3359375 44.20703125 415.529296875 32.7421875 421.056640625 22.21875 c 2
 423.774414062 12.0771484375 l 1
 408.561523438 8.0009765625 l 1
 402.5078125 19.5244140625 397.573242188 33.6416015625 393.291015625 49.6005859375 c 2
 390.573242188 59.7421875 l 2
 376.282226562 113.012695312 369.173828125 187.373046875 352.1171875 253.337890625 c 0
 329.697265625 333.787109375 290.276367188 401.750976562 200.66015625 401.750976562 c 0
 192.756835938 401.750976562 186.061523438 401.147460938 178.344726562 399.698242188 c 0
 85.63671875 366.999023438 67.82421875 213.641601562 67.8232421875 138.077148438 c 0
 67.82421875 120.021484375 68.501953125 102.250976562 69.44921875 84.552734375 c 0
 70.853515625 58.361328125 72.849609375 32.3291015625 74.125 5.77734375 c 1
 58.912109375 1.701171875 l 1
 56.1923828125 11.84375 l 1
 46.744140625 77.994140625 l 2
 46.255859375 83.8671875 45.685546875 89.85546875 45.04296875 95.943359375 c 0
 33.3447265625 206.66015625 -2.5478515625 350.40625 -13.107421875 437.09375 c 1
 2.1064453125 441.168945312 l 1
EndSplineSet
Validated: 5
EndChar

